<svg width="12" height="14" viewBox="0 0 12 14" fill="none" xmlns="http://www.w3.org/2000/svg">
<path d="M6 6.53125C6.79565 6.53125 7.55871 6.18719 8.12132 5.57477C8.68393 4.96235 9 4.13172 9 3.26562C9 2.39953 8.68393 1.5689 8.12132 0.956479C7.55871 0.344056 6.79565 0 6 0C5.20435 0 4.44129 0.344056 3.87868 0.956479C3.31607 1.5689 3 2.39953 3 3.26562C3 4.13172 3.31607 4.96235 3.87868 5.57477C4.44129 6.18719 5.20435 6.53125 6 6.53125ZM8 3.26562C8 3.84302 7.78929 4.39677 7.41421 4.80506C7.03914 5.21334 6.53043 5.44271 6 5.44271C5.46957 5.44271 4.96086 5.21334 4.58579 4.80506C4.21071 4.39677 4 3.84302 4 3.26562C4 2.68823 4.21071 2.13448 4.58579 1.72619C4.96086 1.31791 5.46957 1.08854 6 1.08854C6.53043 1.08854 7.03914 1.31791 7.41421 1.72619C7.78929 2.13448 8 2.68823 8 3.26562ZM12 11.974C12 13.0625 11 13.0625 11 13.0625H1C1 13.0625 0 13.0625 0 11.974C0 10.8854 1 7.61979 6 7.61979C11 7.61979 12 10.8854 12 11.974ZM11 11.9696C10.999 11.7018 10.846 10.8963 10.168 10.1583C9.516 9.44854 8.289 8.70833 6 8.70833C3.71 8.70833 2.484 9.44854 1.832 10.1583C1.154 10.8963 1.002 11.7018 1 11.9696H11Z" fill="#FED700"/>
</svg>
