<svg width="30" height="30" viewBox="0 0 30 30" fill="none" xmlns="http://www.w3.org/2000/svg">
<rect width="30" height="30" rx="15" fill="white"/>
<path d="M17.625 14.7188C17.625 15.589 17.2793 16.4236 16.6639 17.0389C16.0486 17.6543 15.214 18 14.3438 18C13.4735 18 12.6389 17.6543 12.0236 17.0389C11.4082 16.4236 11.0625 15.589 11.0625 14.7188C11.0625 13.8485 11.4082 13.0139 12.0236 12.3986C12.6389 11.7832 13.4735 11.4375 14.3438 11.4375C15.214 11.4375 16.0486 11.7832 16.6639 12.3986C17.2793 13.0139 17.625 13.8485 17.625 14.7188Z" fill="black"/>
<path d="M4.5 14.7188C4.5 14.7188 8.4375 7.5 15 7.5C21.5625 7.5 25.5 14.7188 25.5 14.7188C25.5 14.7188 21.5625 21.9375 15 21.9375C8.4375 21.9375 4.5 14.7188 4.5 14.7188ZM15 19.3125C16.2183 19.3125 17.3868 18.8285 18.2483 17.967C19.1098 17.1055 19.5938 15.9371 19.5938 14.7188C19.5938 13.5004 19.1098 12.332 18.2483 11.4705C17.3868 10.609 16.2183 10.125 15 10.125C13.7817 10.125 12.6132 10.609 11.7517 11.4705C10.8902 12.332 10.4062 13.5004 10.4062 14.7188C10.4062 15.9371 10.8902 17.1055 11.7517 17.967C12.6132 18.8285 13.7817 19.3125 15 19.3125Z" fill="black"/>
</svg>
