<svg width="70" height="70" viewBox="0 0 70 70" fill="none" xmlns="http://www.w3.org/2000/svg">
<path d="M34.9999 64.1666C51.1082 64.1666 64.1666 51.1082 64.1666 34.9999C64.1666 18.8916 51.1082 5.83325 34.9999 5.83325C18.8916 5.83325 5.83325 18.8916 5.83325 34.9999C5.83325 51.1082 18.8916 64.1666 34.9999 64.1666Z" fill="#988430"/>
<path d="M35 63.2324C50.5923 63.2324 63.2324 50.5923 63.2324 35C63.2324 19.4077 50.5923 6.76758 35 6.76758C19.4077 6.76758 6.76758 19.4077 6.76758 35C6.76758 50.5923 19.4077 63.2324 35 63.2324Z" fill="#7A6A2A"/>
<path d="M35.0001 62.6374C50.2639 62.6374 62.6377 50.2637 62.6377 34.9999C62.6377 19.7361 50.2639 7.3623 35.0001 7.3623C19.7363 7.3623 7.36255 19.7361 7.36255 34.9999C7.36255 50.2637 19.7363 62.6374 35.0001 62.6374Z" fill="#BA9F33"/>
<path fill-rule="evenodd" clip-rule="evenodd" d="M18.5854 31.8851C18.4202 31.7342 18.2456 31.583 18.0851 31.4321C17.9246 31.2812 17.7597 31.13 17.5945 30.9791L17.1035 30.5125C17.0233 30.4322 16.9383 30.3616 16.8581 30.281C16.7778 30.2104 16.6835 30.1301 16.6033 30.0592C15.9518 29.441 15.2966 28.8228 14.6542 28.2043C15.3196 28.8132 15.9711 29.4177 16.6366 30.0355L16.8677 30.267C16.948 30.347 17.0329 30.4179 17.1132 30.4982L17.6038 30.9511C17.769 31.102 17.9295 31.2532 18.0947 31.4178C18.2599 31.5824 18.4205 31.7339 18.5857 31.8845L18.5854 31.8851ZM9.93928 31.7918C9.93928 31.7918 12.3084 32.0369 13.4648 32.2021C14.5359 32.3533 17.8869 32.8676 17.8869 32.8676L9.93928 31.7918ZM9.93928 31.7918C10.6047 31.8484 11.2702 31.919 11.9357 31.9899C12.2754 32.0229 12.6011 32.0606 12.9269 32.0935L13.4268 32.1505C13.592 32.1738 13.7526 32.1975 13.9178 32.2211L15.9002 32.5372L16.8911 32.7024C17.2168 32.759 17.5425 32.8206 17.8823 32.8772C17.5565 32.8443 17.2168 32.797 16.8911 32.7497L15.9002 32.6081L13.9178 32.3157C13.7526 32.292 13.592 32.2587 13.4268 32.2354L12.9266 32.1779C12.6008 32.1449 12.2611 32.0976 11.9354 32.0596C11.2699 31.9797 10.6044 31.8944 9.93896 31.7908L9.93928 31.7918ZM17.6511 33.4848C17.6511 33.4848 15.1215 34.127 14.2671 34.3724C13.4271 34.6036 10.8832 35.3776 10.8832 35.3776L17.6508 33.4851L17.6511 33.4848Z" fill="#CFB66C"/>
<path fill-rule="evenodd" clip-rule="evenodd" d="M17.6512 33.4849C17.0897 33.6501 16.5312 33.8106 15.9616 33.9618L14.2719 34.4148C13.7104 34.58 13.1519 34.7406 12.5919 34.9058L11.7519 35.1369C11.4735 35.2172 11.1904 35.2878 10.9026 35.3684C11.1807 35.2751 11.4641 35.1796 11.7426 35.0993L12.5826 34.8305C13.1441 34.6556 13.7026 34.4904 14.2626 34.3159C14.8335 34.1743 15.3953 34.0231 15.9662 33.8862C16.5088 33.7493 17.08 33.6127 17.6512 33.4852V33.4849ZM11.2377 36.9352C11.5158 36.8313 14.7252 35.3354 15.4709 34.986C15.8443 34.8112 16.9294 34.426 16.9294 34.426L11.2377 36.9352Z" fill="#CFB66C"/>
<path fill-rule="evenodd" clip-rule="evenodd" d="M11.2376 36.935C11.4828 36.8417 11.7142 36.7275 11.9501 36.6189L12.6485 36.2932L14.0504 35.6184C14.517 35.3965 14.9706 35.1517 15.4519 34.9433C15.6974 34.8397 15.9429 34.7547 16.188 34.6745L16.5613 34.5565C16.6886 34.5236 16.8068 34.4856 16.9347 34.4526C16.468 34.6745 15.9768 34.8633 15.5095 35.0801C15.0428 35.3116 14.5656 35.5005 14.084 35.708L12.6588 36.3355C12.1803 36.5293 11.7136 36.7368 11.2373 36.935H11.2376ZM11.5487 38.2417C11.5487 38.2417 14.4557 36.538 15.4563 35.9905C15.9802 35.698 17.6745 34.8577 17.6745 34.8577L11.5487 38.2417Z" fill="#CFB66C"/>
<path fill-rule="evenodd" clip-rule="evenodd" d="M11.5488 38.2422C12.0394 37.9401 12.5397 37.6333 13.04 37.3219L13.7866 36.8686C14.0414 36.7177 14.2869 36.5762 14.5467 36.4253C14.8015 36.2741 15.0469 36.1232 15.3064 35.9816C15.4299 35.9054 15.5593 35.8391 15.6934 35.7835L16.0898 35.5853C16.6137 35.3305 17.1376 35.0707 17.6898 34.8489C17.1896 35.1653 16.675 35.4344 16.1607 35.7125C15.9059 35.8541 15.6461 35.9816 15.3913 36.1232C15.1365 36.2647 14.8911 36.4159 14.6313 36.5528C14.3765 36.7037 14.131 36.8453 13.8716 36.9822L13.1022 37.4022L11.5495 38.2422H11.5488ZM17.6509 35.2309C17.6509 35.2309 15.8434 36.6185 15.2582 37.0621C14.673 37.5058 12.9504 38.7518 12.9504 38.7518L17.6509 35.2309Z" fill="#CFB66C"/>
<path fill-rule="evenodd" clip-rule="evenodd" d="M28.0243 46.4212L27.0994 44.6702L27.6373 42.4803L31.4742 40.9985L29.8412 37.6478L30.6482 34.2639L32.1634 31.2337L36.8453 30.4976L40.2856 27.2175L47.7143 27.7791L49.1725 35.7221L46.3644 45.7227L44.7647 50.9002L38.2798 51.1457L35.2689 49.0597L31.7434 47.5869L28.0243 46.4212Z" fill="#E2CC85"/>
<path fill-rule="evenodd" clip-rule="evenodd" d="M39.3984 46.3645C39.3984 46.3645 38.5015 46.7751 36.9717 46.6805C36.529 46.086 33.4285 45.8076 33.4285 45.8076C33.4285 45.8076 33.0415 45.6897 32.357 45.9728C31.6683 46.2528 31.0168 46.2182 30.408 46.3691C29.7991 46.52 29.1946 45.7273 28.728 45.5621C28.2613 45.3876 27.6425 44.9676 27.6425 44.9676L26.3358 44.84L23.712 43.7309L19.5434 39.5779L18.4107 41.3512L18.0613 43.5458L19.3216 46.1464L22.7148 49.2376L29.3315 50.9176L33.2534 49.7621L38.1664 47.6854L39.3984 46.3641V46.3645Z" fill="#F1D789"/>
<path fill-rule="evenodd" clip-rule="evenodd" d="M15.8907 31.6869L16.7307 29.1432L17.7316 27.5006L20.9547 27.2314L19.9871 30.0538L17.2926 34.849L18.411 39.1296L16.4289 40.1205L15.8197 39.1862L15.3291 37.0436L15.2961 34.6365L15.8907 31.6869Z" fill="#F4ECB4"/>
<path fill-rule="evenodd" clip-rule="evenodd" d="M19.5056 46.19L18.8874 45.3264C18.8874 45.3264 18.7222 44.9157 18.8168 44.557C18.9101 44.1936 18.8967 44.17 18.8498 44.0331C18.8028 43.8962 18.4061 43.4242 18.4298 43.0182C18.4531 42.6076 18.3968 42.4707 18.6986 42.1452C19.0146 41.8292 18.9204 41.2816 18.9204 41.2816L19.331 41.5364L19.4244 41.3948C19.4244 41.3948 19.5753 41.5128 19.5753 41.6969C19.6082 41.4421 19.4714 40.2621 19.7828 39.9933C20.0942 39.7245 20.6464 41.2533 20.6464 41.2533L20.3067 39.0351L19.4334 36.7605L17.8806 34.6839L17.7873 32.3947V32.1965C17.7873 32.1965 17.0745 33.2916 16.8764 34.1565C16.7348 34.7511 17.0746 35.4732 17.0039 36.3275C16.947 37.1771 16.8764 37.1108 17.0839 37.4475C17.2914 37.7841 17.7966 38.4763 17.5985 38.9766C17.4239 39.4062 16.8291 39.1041 16.8291 39.1041C16.8291 39.1041 16.7112 39.4532 16.5506 39.5808C16.494 39.3732 16.4327 39.241 16.3195 39.1141C16.3098 39.1944 16.2865 39.3029 16.2865 39.3029C16.2865 39.3029 16.1826 38.9772 16.0787 38.5665C15.9374 38.0193 15.7862 37.2972 15.6493 36.9102C15.5927 37.132 15.4512 37.8068 15.4512 37.8068L15.5314 38.8453L15.9185 40.2705L16.2918 41.2038L16.6552 42.3459L16.971 43.1131L17.2258 43.6983L17.4476 45.0152L18.5187 46.1477L19.0899 46.4028L19.505 46.1903L19.5056 46.19Z" fill="#F3E19D"/>
<path fill-rule="evenodd" clip-rule="evenodd" d="M16.4519 29.6103C16.4519 29.6103 15.6825 30.917 15.461 32.2342C15.2395 33.5515 15.041 34.9434 15.181 36.7366C15.3226 38.5445 15.5917 39.6533 15.8088 40.4463C16.1822 41.7632 17.1491 43.5944 17.1491 43.5944L17.1821 43.5235C17.0196 43.2154 16.8898 42.8911 16.7951 42.5559C16.6675 42.0557 16.6202 41.4611 16.5023 41.192C16.3984 40.9232 16.2239 40.6918 16.1389 40.3614C16.0587 40.0453 16.0456 39.545 15.7992 39.1723C15.6953 39.0211 15.5677 38.6247 15.5301 38.2284C15.4828 37.6335 15.5537 36.9681 15.4971 36.4208C15.3932 35.5099 15.3226 34.8917 15.4168 34.4148C15.5111 33.9379 16.0023 32.5839 16.3044 31.5078C16.5026 30.8187 16.3844 30.2381 16.7478 29.6386C17.1111 29.0441 17.3333 28.5202 17.4132 28.1568C17.5066 27.8264 16.4507 29.6103 16.4507 29.6103H16.4519Z" fill="#F2E8B0"/>
<path fill-rule="evenodd" clip-rule="evenodd" d="M20.1008 29.0862C20.1008 29.0862 19.7044 29.2044 19.5156 29.4119C19.3267 29.6101 19.2465 29.7753 18.9916 30.1103C18.7368 30.4454 18.7225 30.7192 18.5147 31.1392C18.3072 31.5498 17.8492 32.168 17.7926 32.3898C17.736 32.6116 17.6417 33.6498 17.5238 34.1407C17.4199 34.6316 17.6417 35.2358 17.6417 35.2358L17.9105 35.1789C17.9105 35.1789 17.9105 35.5283 18.1796 35.7644C18.4484 35.9955 18.4957 34.9807 18.4957 34.9807L19.5009 31.5875L21.0158 30.5586L21.181 29.728L20.1002 29.0862H20.1008Z" fill="#F5EEC0"/>
<path fill-rule="evenodd" clip-rule="evenodd" d="M20.8366 30.6251C20.8366 30.6251 20.1238 30.6721 19.7748 30.9272C19.6332 31.0308 19.5766 31.1157 19.4257 31.2433C19.1473 31.4745 18.8639 31.6869 18.7273 31.99C18.5761 32.2917 18.4109 32.7497 18.2976 33.6133C18.2504 33.9767 18.2504 34.3118 18.2174 34.6045C18.1701 35.0009 18.0995 35.317 18.1371 35.5379C18.1844 35.9909 18.6517 36.227 18.6971 36.7413L19.6646 36.2506L20.5756 32.6589L22.5106 31.4455L21.4155 30.2185L20.8353 30.623L20.8366 30.6251Z" fill="#E6DB9D"/>
<path fill-rule="evenodd" clip-rule="evenodd" d="M15.7322 54.8111C15.7363 54.7756 15.7403 54.7401 15.7444 54.7037C15.8856 53.4904 15.9096 52.5708 16.0132 51.9949C16.1641 51.1785 16.268 50.8749 16.2443 50.5694C16.2114 50.0788 16.1737 49.72 16.221 49.3424C16.2916 48.8421 16.7826 48.2476 16.7686 47.8369C16.7589 47.5112 16.5937 47.299 16.4522 47.1008C16.3106 46.9026 16.1974 46.7374 16.1974 46.7374C16.1974 46.7374 17.1649 46.072 17.1556 43.3911C17.1753 43.3967 17.1944 43.4046 17.2122 43.4148L17.6888 44.769L18.0146 45.1654L19.2652 47.4968L20.8746 49.0592L23.2531 50.659L24.7446 52.282L24.8955 56.6099L22.9463 59.1396L22.6271 59.7176C20.0912 58.4445 17.7657 56.7896 15.7319 54.8108L15.7322 54.8111Z" fill="#E5CB7A"/>
<path fill-rule="evenodd" clip-rule="evenodd" d="M21.6863 58.9516C21.6863 58.9516 21.7193 58.4137 22.1629 58.0643C22.2338 58.1822 22.2808 58.2957 22.2668 58.3804C22.3471 58.2391 22.9086 57.3329 24.1783 57.0967C25.4479 56.8656 25.7547 55.9406 25.7547 55.9406L28.4492 53.4913L31.5311 50.6549L35.2784 49.3379L37.0296 48.9083C37.0296 48.9083 37.0626 49.0358 36.9966 49.3189C37.3221 49.2956 38.0442 49.1304 38.7946 48.866C39.0966 48.7481 39.3801 48.7008 39.531 48.8566C39.7528 49.0641 39.7858 49.5551 39.7998 49.8475C40.1631 49.7673 40.5831 49.4182 40.9198 49.4512C41.458 49.5078 41.9346 50.1403 42.4821 50.1403C43.2042 50.1403 43.5297 49.6966 44.0349 49.3473C44.337 49.1397 44.771 48.8806 45.0165 48.7054C45.6017 48.2758 51.7937 46.3833 51.7937 46.3833L53.9646 46.5249L54.314 48.8563L54.1273 54.951C54.1043 54.9731 54.0813 54.9961 54.0579 55.0182L44.187 60.1736L30.5044 62.2711C27.4394 61.7704 24.4817 60.753 21.7572 59.2624L21.6872 58.9513L21.6863 58.9516Z" fill="#D8C173"/>
<path fill-rule="evenodd" clip-rule="evenodd" d="M16.562 55.5866C16.7565 55.1799 16.9313 54.8399 16.9621 54.7183C16.9864 54.9634 17.0309 55.5013 17.1205 56.0731C16.9323 55.9132 16.7462 55.7509 16.562 55.5863V55.5866Z" fill="#F1D789"/>
<path fill-rule="evenodd" clip-rule="evenodd" d="M26.5569 61.3222L28.3265 60.83L28.4774 60.8773C28.4774 60.8773 28.5576 60.9246 28.5576 61.0848C28.7795 60.9575 28.9683 60.9809 29.1052 60.8963C29.1758 61.0471 29.2464 61.5474 29.5582 61.6087C29.8836 61.6796 30.233 61.4671 30.587 61.1983C30.9361 60.9199 31.3337 60.5705 31.6345 60.429C31.7449 60.6319 31.8427 60.8415 31.9273 61.0565C32.3237 60.7404 33.0128 59.4567 33.9943 59.4801C34.278 58.8096 34.752 58.237 35.3576 57.833C36.2686 57.2149 36.8395 57.1676 37.5522 57.2242C37.8353 56.8565 38.1842 56.5444 38.5811 56.3039C38.699 56.3512 39.0247 56.5494 39.4307 56.3605C39.8414 56.172 40.3037 55.4403 40.9126 55.346C41.2406 55.3009 41.5742 55.3709 41.8565 55.5442C41.8565 55.5442 43.6298 53.7836 44.8534 53.1984C44.8061 53.0568 44.7119 52.5236 46.1464 51.3435C46.2267 51.4145 46.1701 51.6126 46.2267 51.6235C46.25 51.6235 46.6 51.4726 47.043 51.1326C47.5906 50.7222 48.2464 50.2926 48.6428 50.1747C49.3895 49.9529 50.1815 50.4058 50.1815 50.4058C50.2489 50.3586 50.324 50.3234 50.4034 50.3019C50.5919 50.2689 50.7288 50.2453 50.8327 50.2086C50.8234 50.4541 50.9603 50.8741 50.8327 51.2374C50.9805 51.3205 51.137 51.387 51.2994 51.4356C51.2194 51.6102 51.0446 52.0538 50.7521 52.2663C50.9973 52.3842 51.0303 52.5211 51.3796 52.6396C51.2381 52.8378 51.0063 53.1779 50.903 53.3863C50.7991 53.6081 50.4261 54.5284 50.2609 54.8775C50.0863 55.2268 49.8505 55.8687 49.737 55.9975C49.6234 56.1263 49.213 56.6723 48.897 56.9411C49.177 56.8372 50.3225 56.4881 50.8084 56.3559C50.6638 56.568 49.9305 57.656 49.2255 58.7023C45.8501 60.7254 42.0822 62.0059 38.173 62.4585C34.2638 62.9111 30.3031 62.5253 26.5547 61.3268L26.5569 61.3222Z" fill="#E0CD81"/>
<path fill-rule="evenodd" clip-rule="evenodd" d="M20.9531 30.4975C20.9531 30.4975 20.5427 30.4975 20.4624 30.5541C20.3822 30.6107 20.8731 30.729 21.024 30.7856C21.1749 30.8422 21.5006 31.1017 21.5856 31.3095C21.6658 31.5077 24.5353 32.6638 24.5353 32.6638L26.5647 32.5598L27.2644 31.5932L25.9335 30.4275L26.8668 27.676L25.6304 27.8742L22.6571 29.6475L21.1655 30.2187L20.9531 30.4975Z" fill="#DFC57C"/>
<path fill-rule="evenodd" clip-rule="evenodd" d="M25.4098 31.4084C25.4391 31.4559 25.4804 31.4948 25.5296 31.5213C25.5787 31.5478 25.634 31.5609 25.6898 31.5593C26.1098 31.5593 26.4965 31.6632 26.657 31.8753C26.9261 32.2154 27.6719 33.3009 27.6719 33.3009L29.4558 33.9427L29.5709 31.8421L27.6218 30.4878L25.4036 31.3042V31.4081H25.4085L25.4098 31.4084Z" fill="#E5CC7C"/>
<path fill-rule="evenodd" clip-rule="evenodd" d="M25.0598 32.187C25.0598 32.187 25.3852 32.2107 25.7959 32.0595C26.2066 31.9083 26.8814 31.5829 27.1741 31.7104C27.5845 31.8849 27.4995 32.4325 27.9435 32.9237C28.2123 33.2258 28.7032 33.2165 28.9817 33.5422C29.2601 33.868 30.218 33.7168 30.218 33.7168L30.5814 35.6768L29.1232 37.5459L28.6463 39.8677H26.6745L24.8731 39.1531L23.9858 37.0065L24.4295 34.8355L25.0598 32.187Z" fill="#D2C281"/>
<path fill-rule="evenodd" clip-rule="evenodd" d="M28.8744 32.2813C28.9233 32.2964 28.9741 32.3043 29.0253 32.3049C28.9687 32.3522 28.8504 32.4558 28.8977 32.7249C28.945 32.994 29.0959 33.3338 28.9687 33.5413C29.0702 33.6523 29.146 33.7845 29.1905 33.9283C29.2708 34.1597 29.2944 34.3719 29.818 34.4052C29.7424 34.4517 29.6728 34.5072 29.6105 34.5704C29.6105 34.5704 29.9739 34.8865 30.158 35.1789C30.3466 35.1708 30.8468 35.0153 30.8468 35.0153L30.9508 35.0862L31.1726 34.9929C31.1726 34.9929 30.9651 34.9126 31.116 34.4077C31.2575 33.9641 31.3851 33.9877 31.396 33.9547C31.4068 33.9217 31.4999 33.4545 31.4999 33.2656C31.5705 33.0205 31.6271 32.2748 31.6271 32.2748L31.4762 30.6278L30.6269 30.1132L29.9362 29.4465L29.2848 30.6735L28.8557 31.1013L28.8228 32.1631L28.8744 32.2813Z" fill="#E2C270"/>
<path fill-rule="evenodd" clip-rule="evenodd" d="M30.9175 30.9035C30.9175 30.9035 31.0684 31.3328 31.1253 31.6632C31.1454 31.599 31.1565 31.5323 31.1583 31.4651C31.1583 31.4651 31.2762 32.1165 31.2995 32.3856C31.3468 32.376 31.3929 32.362 31.4034 32.409C31.414 32.456 31.5217 32.9802 31.4968 33.2726C31.6933 32.9484 31.9652 32.6764 32.2895 32.4799C32.4783 32.3617 32.7001 32.2344 32.9316 32.2248C33.295 32.2155 33.5591 32.4563 33.9934 32.4563C35.0409 32.4563 35.9898 31.6869 36.6883 31.4511C37.2025 31.2762 37.6462 31.149 37.9576 30.8656C38.1088 30.7383 38.3779 30.4552 38.6231 30.0349C38.9488 29.4749 39.2885 28.9874 39.6286 28.9261C39.4747 28.9544 39.3182 28.9654 39.1619 28.9591C39.1619 28.9591 39.2658 28.8552 39.4419 28.7136C39.618 28.572 39.8289 28.3975 40.1307 28.3975C40.6689 28.3975 40.9377 28.4775 41.2398 28.4775C41.5419 28.4681 41.7165 28.3975 41.7165 28.3975C41.7165 28.3975 42.0329 28.6193 42.7453 28.6193C43.4581 28.6287 43.9347 28.69 44.3077 28.7232C44.6807 28.7565 45.9311 28.6193 46.2898 28.6299C46.5237 28.6389 46.7533 28.6951 46.9649 28.7951L45.8085 25.4351L41.6545 21.8044L39.1815 23.5554L35.3773 27.3593L31.6962 28.7232L30.9268 29.5869V30.9035H30.9175Z" fill="#CCB360"/>
<path fill-rule="evenodd" clip-rule="evenodd" d="M39.1768 28.9776C39.1768 28.9776 39.2807 28.874 39.4549 28.7325C39.6292 28.5909 39.8423 28.4161 40.1441 28.4161C40.682 28.4161 40.9511 28.4963 41.2532 28.4963C41.5553 28.487 41.7298 28.4161 41.7298 28.4161C41.7298 28.4161 42.0465 28.6376 42.7587 28.6376C43.4715 28.6469 43.9481 28.7082 44.3211 28.7412C44.6941 28.7742 45.9445 28.6376 46.3032 28.6478C46.537 28.6566 46.7666 28.7129 46.978 28.813L46.4541 27.2979L45.8456 26.1418L44.1086 24.2397L42.0083 23.0034C41.9989 22.994 41.2862 22.8052 41.2862 22.8052L39.3983 23.9473L37.6853 28.379L37.6523 29.3124L38.7612 29.8363C39.0396 29.3696 39.3467 28.9963 39.6345 28.949C39.3747 28.9773 39.1765 28.9773 39.1765 28.9773L39.1768 28.9776Z" fill="#D5B457"/>
<path fill-rule="evenodd" clip-rule="evenodd" d="M39.1531 29.2941C38.9879 29.3034 38.8513 29.2704 38.8133 29.1525C38.6718 28.7562 38.5586 28.6995 38.44 28.6995C38.3215 28.6995 38.1616 28.9543 38.0667 28.9777C37.9718 29.001 37.8592 28.6852 37.8592 28.6852L37.7553 28.6379C37.7553 28.6379 37.1465 29.0343 36.7171 29.5016C36.2878 29.9689 35.5844 30.7619 35.2683 30.9031C34.9523 31.0444 33.8665 31.092 33.495 31.1722C33.1236 31.2525 32.7117 31.5216 32.6551 31.5829C32.5985 31.6442 32.8206 31.7102 32.8536 31.7714C32.8865 31.8281 32.4899 31.8044 32.4569 31.8648C32.4336 31.9121 32.5502 32.1809 32.6081 32.3178C32.7094 32.2674 32.8205 32.24 32.9335 32.2375C33.2969 32.2282 33.5613 32.469 33.9953 32.469C35.0431 32.469 35.9916 31.6996 36.6901 31.4634C37.2046 31.2889 37.6483 31.1614 37.9597 30.8782C38.1106 30.751 38.3797 30.4676 38.6251 30.0476C38.8043 29.7598 38.9792 29.4907 39.154 29.2925L39.1531 29.2941Z" fill="#D2B257"/>
<path fill-rule="evenodd" clip-rule="evenodd" d="M24.1265 52.6514C24.1265 52.6514 24.0332 52.302 23.1683 51.4007C22.9228 51.1459 22.772 50.934 22.6068 50.7825C22.1961 50.3952 21.9553 50.2916 21.6628 50.0697C21.021 49.5931 20.3226 49.5931 19.7846 49.0079C19.2467 48.4227 18.6198 47.3045 18.1843 46.1618C17.7549 45.0197 17.6367 44.6563 17.6367 44.6234C17.6367 44.5904 17.7549 44.3685 17.9058 44.4015C18.0567 44.4345 18.0567 44.727 18.0947 44.7979C18.1699 44.9137 18.2551 45.0226 18.3495 45.1233C18.5713 45.3784 18.8874 45.6833 19.0479 46.1382C19.015 45.7511 18.8827 45.3218 18.8827 45.3218C18.8827 45.3218 19.7134 45.8457 20.4212 46.393C21.1339 46.9405 21.4264 47.1294 21.6345 47.4785C21.8427 47.8275 22.333 48.7481 22.5679 49.0172C22.8028 49.2864 26.0212 50.3009 26.0212 50.3009L27.5522 51.4424L28.3123 53.1084L27.7174 54.0418L26.5753 54.2872L24.7205 53.4565L24.1265 52.6511V52.6514Z" fill="#D2B159"/>
<path fill-rule="evenodd" clip-rule="evenodd" d="M20.0056 46.9121C20.0056 46.9121 20.3926 47.5303 21.3365 48.1155C22.1862 48.6301 23.5311 49.0973 24.7301 49.3758C25.4189 49.541 26.108 49.6682 26.7262 49.6779C28.3922 49.7012 29.5389 49.2249 30.9598 49.069C31.7291 48.9888 32.673 48.9275 33.6546 48.6957C34.9146 48.3936 35.6603 48.0536 36.6751 47.5757C37.4112 47.236 38.0863 46.9812 38.6336 46.6554C39.4029 46.2025 39.9645 45.6975 40.616 45.5466C40.5357 45.7685 40.4508 46.1648 39.8089 46.5755C40.1487 46.5658 40.616 46.5425 40.616 46.5425C40.616 46.5425 40.163 46.8113 39.3653 47.4155C38.8744 47.7888 38.2232 48.4207 37.5578 48.8407C37.1281 49.1098 36.6608 49.3073 36.3541 49.4685C35.6074 49.8792 35.3063 50.0867 34.8156 50.5885C34.9902 50.5792 35.0045 50.5885 35.0045 50.5885C35.0045 50.5885 34.386 50.6688 33.9427 50.9046C33.8493 50.9046 33.6876 50.8716 33.4045 50.9519C33.1826 51.0225 32.8899 51.1833 32.5881 51.268C32.1585 51.3955 32.0172 51.3389 32.0172 51.3389L32.0878 51.4805C32.0878 51.4805 31.5278 51.4708 31.3412 51.4898C31.3742 51.4991 31.3648 51.5134 31.3648 51.5134C31.332 51.5189 31.3005 51.5301 31.2715 51.5464C31.1817 51.6046 31.0829 51.6476 30.979 51.6737C30.9224 51.683 30.8751 51.683 30.8042 51.6973C30.8279 51.7539 31.012 52.0706 31.097 52.2573C31.0263 52.3046 29.9642 53.1069 29.9642 53.1069C29.9972 53.1588 30.0241 53.2142 30.0445 53.2721C30.0775 53.3757 30.0918 53.5269 30.1247 53.5976C30.2047 53.7391 30.252 53.7628 30.252 53.7628C30.252 53.7628 30.1247 53.7864 29.9026 53.843C29.7141 53.8903 29.4826 53.9703 29.156 54.0176C29.0557 54.0306 28.9549 54.0385 28.8539 54.0412C28.9012 54.1451 29.1087 54.5415 28.7263 54.9991C28.344 55.4568 28.226 55.5233 28.1081 55.8158C28.0488 55.7709 27.9856 55.7313 27.9193 55.6976C27.792 55.6409 27.6172 55.5563 27.5559 55.4428C27.5202 55.5941 27.4729 55.7424 27.4144 55.8864C27.2965 56.2025 27.1219 56.5142 27.0889 56.7501C26.9614 56.6085 26.7256 56.3301 26.3998 56.3867C26.0741 56.4433 25.8146 56.8869 25.758 57.0145C25.758 56.9342 25.7014 56.8729 25.6874 56.9672C25.6778 57.0711 25.4986 58.1563 24.498 59.0342C24.4887 58.8124 24.4887 58.3215 24.4651 58.1613C24.3717 58.2546 24.2575 58.3924 23.5778 58.6852C22.9123 58.9776 23.0178 59.2704 23.0178 59.2704C23.0178 59.2704 22.9612 58.8037 23.3199 58.3121C23.6832 57.8215 23.9051 57.5901 23.9051 57.5524C23.8992 57.5141 23.8828 57.4781 23.8578 57.4485C23.8105 57.4012 23.7162 57.3446 23.7162 57.3069C23.7728 57.2836 24.3344 57.0145 24.3014 56.4573C24.2684 55.9573 24.0563 55.6976 23.9051 55.5137C23.8817 55.4901 24.1272 55.3155 24.0939 55.2589C24.0703 55.2259 23.7685 55.0038 23.7305 54.8856C23.7394 54.815 23.7553 54.7455 23.7778 54.6781C23.8108 54.5741 23.8344 54.5032 23.8251 54.4326C23.8015 54.3147 23.6739 53.9889 23.6363 53.956C23.6692 53.9653 23.9051 53.956 23.9051 53.956C23.9051 53.956 23.7165 53.6539 23.6832 53.5123C23.6499 53.3708 23.5793 52.9977 23.5417 52.9271C23.6219 52.9365 23.8201 52.9505 23.8201 52.9271C23.8298 52.8562 23.6456 52.7383 23.7268 52.6471C23.7834 52.6565 23.892 52.7037 23.9956 52.836C23.939 52.6848 23.8447 52.3923 23.6462 52.2744C23.7395 52.2414 24.0569 52.1562 24.3353 52.3214C24.6138 52.4866 24.7086 52.7177 24.7086 52.7177C24.7086 52.7177 24.8738 52.8453 25.129 53.0341C25.4214 53.2653 25.7941 53.5941 26.3889 53.8269C26.5165 53.8978 26.8419 53.8978 27.0781 53.8505C27.1809 53.826 27.2794 53.7863 27.3705 53.7326C27.4034 53.7132 27.4382 53.6974 27.4744 53.6853C27.4237 53.5835 27.3653 53.4856 27.2999 53.3925C27.3801 53.3925 27.4744 53.4022 27.4744 53.4022C27.4744 53.4022 27.531 53.2746 27.2762 53.0289C27.3329 52.9722 27.4038 52.9355 27.4038 52.84C27.3235 52.8307 27.182 52.7128 27.149 52.6655C27.196 52.6325 27.2669 52.5239 27.3472 52.4909C27.2762 52.4343 27.1017 52.1982 27.0214 52.1749C27.0981 52.1464 27.1723 52.1116 27.2433 52.0709C27.2433 52.0709 26.8469 51.967 26.7193 51.8821C26.5918 51.7888 26.4033 51.6273 26.29 51.58C26.1718 51.5327 25.9643 51.5094 25.8794 51.4148C25.9593 51.4385 26.0869 51.4148 26.1814 51.4148C26.2521 51.4148 26.2853 51.4241 26.3087 51.4241C26.2993 51.3912 26.2993 51.3202 26.4835 51.2969C26.5721 51.2835 26.6581 51.2565 26.7383 51.2166C26.7383 51.2166 26.5635 51.2073 26.365 51.0185C26.1665 50.8296 26.0016 50.6787 25.8884 50.6551C25.7705 50.6314 25.5486 50.7353 25.4118 50.7257C25.2229 50.7024 25.1426 50.6078 25.1426 50.6078C25.1426 50.6078 24.5151 50.6644 23.1229 49.8151C21.9192 49.0787 21.3953 48.4275 21.3953 48.4275C21.2827 48.3866 21.1738 48.336 21.0699 48.2763C20.6169 48.0405 19.9891 47.5496 20.0081 46.9074L20.0056 46.9121Z" fill="#C2A44D"/>
<path fill-rule="evenodd" clip-rule="evenodd" d="M37.369 18.5852C37.4782 18.6207 37.5752 18.6861 37.649 18.7741C37.8709 19.0289 38.0124 19.5102 37.5075 20.0247C37.7057 20.0954 37.7875 20.1181 37.9605 20.0954C37.7859 20.3032 37.3896 20.7468 37.3659 21.1339C37.3423 21.4499 37.5405 21.5445 37.5405 21.5445C37.5405 21.5445 37.2384 21.8936 37.2244 22.4779C37.367 22.317 37.5231 22.1686 37.691 22.0342C38.0404 21.7558 38.5217 21.4397 38.8475 21.2415C38.843 21.3246 38.8542 21.4077 38.8804 21.4867C38.8804 21.4867 39.489 20.9864 40.0004 21.2085C40.2316 21.3124 40.1277 21.6379 40.1277 21.6379C40.1277 21.6379 40.4441 21.5199 40.6659 21.7418C40.8877 21.9636 41.2013 22.5357 41.3622 22.7575C41.4328 22.8615 41.617 23.0596 41.8055 23.3664C42.0631 23.7959 42.2782 24.2494 42.4477 24.7207C42.457 24.4752 42.5183 24.0931 43.2171 24.3336C43.9155 24.5791 44.7082 25.0937 45.3737 26.107C46.0392 27.1203 46.2041 28.2642 46.5391 28.6998C46.8789 29.1198 47.2283 29.8182 47.2519 30.111C47.2756 30.4037 47.148 31.3473 47.8465 33.9006C48.0446 33.1079 48.3467 31.3473 48.3467 31.3473L48.5119 29.7946L48.7008 24.9901L43.6837 20.8221L39.7618 17.9761L37.2085 18.2215L37.3687 18.5849L37.369 18.5852Z" fill="#CAA13E"/>
<path fill-rule="evenodd" clip-rule="evenodd" d="M46.6905 25.7353C46.6905 25.7353 46.6195 25.2686 45.4398 24.4753C44.2598 23.6919 43.3395 23.6919 42.4902 23.0264C41.8387 22.5025 41.1592 21.2988 40.7168 20.9025C40.2872 20.5108 40.2166 19.378 40.2166 19.378L41.6654 18.1647L43.8202 15.0502L45.6417 13.0444L46.5147 14.2578L47.728 15.683L48.4028 18.543L48.6483 22.7293L46.6883 25.7356L46.6905 25.7353Z" fill="#B59544"/>
<path fill-rule="evenodd" clip-rule="evenodd" d="M48.1489 30.7534C48.1846 30.1185 48.1062 29.4824 47.9174 28.8752C47.6063 27.9076 46.9265 26.1897 46.6107 25.5463C46.4832 24.8335 46.5777 24.7769 46.7146 24.6966C46.8515 24.6164 47.3661 24.3233 47.648 23.2951C47.9298 22.2669 48.8044 22.2333 48.8044 22.2333L49.3423 21.8369L50.159 23.8803L50.8714 25.7258L51.0932 27.137L51.2584 28.3404L50.8714 30.8843L48.9602 32.6116L48.1485 30.7534H48.1489Z" fill="#C89D3A"/>
<path fill-rule="evenodd" clip-rule="evenodd" d="M21.4788 59.1077V59.0555C21.5185 59.0306 21.5535 58.999 21.5824 58.9621C21.6153 58.9148 21.6393 58.8582 21.6626 58.8442C21.7099 58.8206 21.9317 58.7509 22.0496 58.7733C22.1676 58.7957 22.4793 58.9242 22.6445 58.9148C22.9842 58.9055 23.3806 58.6457 24.0084 58.7639C24.9523 58.9385 25.1741 59.5803 25.7217 59.9437C26.095 60.1988 26.4814 60.0853 26.5381 60.0853H26.6653C26.6889 60.0853 26.8635 59.8871 26.9581 59.8967C27.1469 59.906 27.1656 60.0619 27.2835 60.0713C27.5619 60.1042 28.1001 59.9297 28.3693 60.0006C28.449 60.0256 28.5216 60.0695 28.5808 60.1286C28.6399 60.1877 28.6839 60.2603 28.709 60.3401C28.7656 60.5146 28.7183 60.7364 28.5814 60.864C28.289 61.1328 28.0105 61.3879 27.9539 61.6107C28.0259 61.6656 28.0951 61.7241 28.1611 61.7861C25.826 61.1912 23.5792 60.2916 21.4788 59.1105V59.1077Z" fill="#CEB052"/>
<path fill-rule="evenodd" clip-rule="evenodd" d="M46.6096 49.6778C46.6096 49.6778 47.3457 48.6962 47.6008 48.2099C47.8556 47.7087 46.7938 41.3621 46.7938 41.3621L48.9271 34.3727L48.8701 32.0978C48.8701 32.0978 48.974 29.9975 49.2195 29.0866C49.5123 29.6105 50.4232 30.243 50.6214 30.578C50.7147 29.9359 51.0317 28.5816 50.9847 27.1375C51.1593 27.4063 51.5793 30.1107 51.5793 30.1107L51.9993 31.9323L52.5468 33.8674L53.1557 35.9111L53.519 37.3223L53.7265 37.662L53.9014 38.2566L54.0666 38.8987L54.5432 40.4042L54.8232 41.6405L55.045 43.8824C55.0933 44.054 55.128 44.2292 55.1489 44.4063C55.1583 44.6518 55.1159 44.7933 55.1159 44.8359C55.1159 44.8786 55.1962 45.3739 55.1632 45.7469C55.1159 46.1202 55.1159 46.4123 54.8232 46.6802C54.5304 46.9481 54.3466 48.5491 54.3466 48.5491L53.8227 48.2C53.8227 48.2 53.9266 47.7231 53.6811 47.2891C53.4356 46.8551 52.959 46.7651 52.6899 46.8361C52.4211 46.8927 51.8832 46.9773 51.7084 47.1285C51.5432 47.2794 51.1375 47.7467 50.7645 47.9592C50.2978 48.2392 49.5375 48.2613 49.1318 48.3555C48.7211 48.4489 48.2681 48.7289 47.7912 49.054C47.4173 49.2961 47.0225 49.5043 46.6115 49.6762L46.6096 49.6778Z" fill="#CCA847"/>
<path fill-rule="evenodd" clip-rule="evenodd" d="M46.6096 59.9898C46.6096 59.9898 46.6407 60.0101 46.7008 60.043C50.0538 58.4721 53.0581 56.2453 55.5363 53.4941C55.5093 52.539 55.4741 51.56 55.4355 51.1972C55.3556 50.4278 55.4122 49.6445 55.3885 49.1915C55.3649 48.7385 55.1101 46.893 54.9922 46.4164C54.8646 45.9397 54.6189 45.7036 54.5815 45.7036C54.5486 45.7133 54.3501 46.6005 54.3501 46.8236C54.3501 47.0467 54.3028 47.5837 54.3028 47.7205C54.2698 47.7109 54.2558 47.6272 54.2558 47.593C54.2085 47.7109 54.1519 47.9187 54.1282 47.9424C54.1046 47.966 54.1612 47.7442 54.1282 47.6969C54.0953 47.6496 54.0349 47.6733 54.048 47.5553C54.0536 47.4854 54.0646 47.416 54.0809 47.3478C54.0809 47.3478 53.9394 47.5553 53.8358 48.0839C53.7319 48.6078 53.7319 48.6221 53.6942 48.6691C53.6613 48.7261 53.4724 48.9146 53.4628 48.9855C53.4534 49.1128 53.6376 49.2403 53.6516 49.3109C53.6609 49.4292 53.4864 49.9764 53.4298 50.2443C53.3732 50.5121 53.3968 51.037 53.3365 51.3061C53.2892 51.5516 53.2431 51.6931 53.0817 51.7967C53.1996 51.8204 53.3128 51.8533 53.3128 51.8533C53.3128 51.8533 53.478 52.5518 53.058 53.1466C52.9071 53.3541 52.8695 53.4487 52.7089 53.6376C52.3925 53.9866 52.1471 54.3842 52.1234 54.6428C52.1071 54.5665 52.0961 54.4891 52.0905 54.4113C52.0905 54.4113 51.5998 54.9825 51.392 55.3082C51.1232 55.7282 50.7502 55.7046 50.6454 55.8085C50.5405 55.9124 50.5178 56.1009 50.552 56.2521C50.4587 56.2755 50.2832 56.3088 50.165 56.6721C50.1084 56.8607 49.9668 57.0455 49.745 57.1724C49.5232 57.2993 49.2541 57.3376 49.1172 57.3706C49.2351 57.4036 49.2824 57.4036 49.339 57.4412C49.2684 57.5591 48.9426 57.7433 48.5793 57.9794C48.2159 58.2013 48.041 58.5267 47.9514 58.7392C47.8581 58.9373 47.7203 59.0649 47.4985 59.0885C47.5918 59.1452 47.7299 59.2771 47.8005 59.3197C47.6966 59.3433 47.5205 59.3433 47.206 59.6125C46.8756 59.8862 46.7624 59.9665 46.6112 59.9901L46.6096 59.9898Z" fill="#C39D3C"/>
<path fill-rule="evenodd" clip-rule="evenodd" d="M40.0431 62.1771C40.2238 62.0504 40.4195 61.9467 40.6258 61.8682C41.3619 61.5757 42.1406 61.5191 42.4473 61.4248C42.7401 61.3315 42.9712 61.2027 43.3346 61.1321C43.325 61.2148 43.3169 61.2926 43.3082 61.366C42.2369 61.7028 41.1459 61.9737 40.0415 62.1771H40.0431Z" fill="#D2BA6B"/>
<path fill-rule="evenodd" clip-rule="evenodd" d="M53.6193 42.8156C53.6193 42.8156 53.4685 43.632 53.1993 44.1466C52.9302 44.6611 52.6393 45.3736 52.6393 45.3736C52.6411 45.213 52.6601 45.0531 52.696 44.8967C52.3562 45.0948 51.5302 45.5718 51.296 45.7839C51.0741 45.9821 50.7011 46.3315 50.6069 46.4967C50.8287 45.8455 51.0598 45.2603 51.0978 44.9912C50.7581 45.2367 49.172 46.544 48.3463 47.4076L45.7741 49.489C45.4772 49.6491 45.1715 49.7922 44.8585 49.9177C44.4151 50.1062 43.8912 50.2667 43.5042 50.4179C43.6081 50.1395 43.773 49.8937 44.0045 49.6579C44.2499 49.4267 44.986 48.6291 45.0993 48.2579C45.2032 47.8709 45.2268 47.6397 45.0899 47.314C44.9624 47.347 44.6699 47.3613 44.4718 47.4179C44.2736 47.4745 44.0611 47.6867 44.0611 47.6867C44.0611 47.6867 44.212 46.8231 44.5377 46.0067C44.2922 46.016 43.8722 46.0867 43.8722 46.0867C43.8722 46.0867 44.4574 45.1051 45.4589 44.421C45.1522 44.4862 44.8521 44.5793 44.5623 44.6991C43.9771 44.9446 43.3353 45.3079 42.8586 45.5061C43.1274 45.1328 45.0153 42.4386 46.1387 39.9276C47.2587 37.4216 47.6771 36.7798 47.9226 35.4348C48.0498 34.7694 48.0159 33.7859 48.0498 32.9052C48.0828 32.0319 48.1914 31.2485 48.1208 30.7246C48.4132 31.088 49.5083 32.1122 49.546 34.4013C49.5789 36.6902 48.4985 39.7817 47.3514 41.4474C47.6314 41.5276 48.3569 41.6222 49.1023 40.3274C49.8478 39.0325 49.8387 38.671 50.1078 38.1328C50.1408 38.4019 50.1312 38.4962 50.1312 38.4962C50.1312 38.4962 51.217 37.1795 51.7312 35.5229C51.8351 36.2356 52.1419 36.8635 51.6603 38.1707C51.231 39.3505 50.6694 39.6386 50.6694 39.6386C50.6694 39.6386 50.9478 39.5913 51.3582 39.3458C51.4291 39.5203 51.4151 39.7191 51.533 39.7895C51.6509 39.8598 51.8115 39.9783 51.8351 40.0915C51.9624 39.9027 52.1605 39.6619 52.2221 39.4827C52.1749 39.856 52.1419 41.4884 52.3155 42.3191C52.6792 42.2861 53.0519 42.2625 53.3067 41.6063C53.1321 42.2485 53.1321 42.6352 53.2501 43.1827C53.4436 43.0508 53.6181 42.8147 53.6181 42.8147L53.6193 42.8156Z" fill="#C0993A"/>
<path fill-rule="evenodd" clip-rule="evenodd" d="M41.3571 16.8015C41.3571 16.8015 40.9937 16.9524 40.3756 16.9524C39.8376 16.9524 39.9885 16.7449 39.1485 16.7449C37.8555 16.7449 33.3387 17.4915 32.5457 17.481C32.0311 17.4716 34.2824 17.7028 34.2824 17.7028L40.0358 17.7831L41.1919 17.6897L41.6216 16.8155L41.3571 16.8015Z" fill="#A88F33"/>
<path fill-rule="evenodd" clip-rule="evenodd" d="M26.439 28.0481C26.439 28.0481 25.7026 28.6097 25.3912 29.0393C25.0798 29.469 24.9146 29.7518 24.5605 30.1012C24.6437 30.1043 24.7267 30.0932 24.806 30.0682C24.806 30.0682 24.806 30.1615 24.7494 30.1861C24.7983 30.1806 24.8479 30.1862 24.8944 30.2023C24.9409 30.2185 24.9832 30.2448 25.0182 30.2794C24.9143 30.3361 24.6312 30.6195 24.853 30.9545C25.0182 31.2093 25.3676 31.2327 25.3676 31.2327C25.3676 31.2327 25.2873 31.4641 25.6224 31.4405C26.3445 31.4075 27.1515 31.0911 27.5242 31.1714C27.8975 31.2647 28.1097 31.2989 28.3738 31.7569C28.6538 32.2099 28.8977 32.2808 28.8977 32.2808C28.8977 32.2808 29.0629 31.8605 29.0253 31.233C29.1608 30.8947 29.2358 30.5354 29.2471 30.1712L29.0017 28.3636L27.9305 27.009L26.5429 27.7784L26.439 28.0472V28.0481Z" fill="#E3C571"/>
<path fill-rule="evenodd" clip-rule="evenodd" d="M27.7554 27.7791C27.7554 27.7791 27.8593 28.0245 28.2936 28.0479C28.2463 28.1518 28.2463 28.1661 28.2606 28.246C28.2699 28.3263 28.2839 28.4442 28.2839 28.4442C28.3318 28.4211 28.375 28.3894 28.4115 28.3509C28.4351 28.4548 28.3879 28.6197 28.4115 28.7379C28.4261 28.8098 28.4498 28.8795 28.4821 28.9454C28.489 28.9293 28.4969 28.9136 28.5058 28.8984C28.5151 28.8748 28.5991 29.1532 28.8315 29.3651C28.8313 29.3325 28.8393 29.3004 28.8548 29.2718C28.8584 29.3309 28.878 29.388 28.9115 29.437C28.8941 29.4287 28.8782 29.4175 28.8645 29.404C28.8645 29.404 28.8878 30.1507 29.0154 30.5367C29.0367 30.5118 29.0556 30.4849 29.072 30.4565C29.072 30.4331 29.0627 30.6643 29.039 30.8298C29.006 30.995 29.0297 31.2262 29.0297 31.2262C29.1148 31.1592 29.2083 31.1036 29.3078 31.061C29.4494 31.004 29.6811 30.8295 29.8224 30.4425C29.9043 30.2233 29.9675 29.9975 30.0112 29.7677C30.0569 29.8555 30.0884 29.95 30.1046 30.0477C30.1142 30.1656 30.336 30.1043 30.336 30.1043L30.3833 29.5897L30.6633 28.424L30.9181 27.7019L32.1451 25.7907L34.3621 24.0834L36.2972 24.527L37.93 22.3088L35.1172 20.6191L32.4553 20.8976L30.0395 24.2436L28.1047 27.2785L27.7554 27.7787V27.7791Z" fill="#D8B65B"/>
<path fill-rule="evenodd" clip-rule="evenodd" d="M41.6967 22.937C41.6967 22.937 41.5315 22.9699 41.0548 23.217C40.5782 23.464 40.2478 23.5424 40.0636 23.9058C39.8795 24.2692 39.8655 24.5572 39.8655 24.5572C39.8655 24.5572 40.1912 24.4157 40.38 24.3684C40.5782 24.3214 40.8 24.3354 40.7764 24.4157C40.7537 24.4707 40.7222 24.5217 40.6831 24.5666C40.6831 24.5666 41.0564 24.5572 41.0464 24.7414C41.0365 24.9256 40.9758 25.1285 40.9052 25.2181C40.8343 25.3114 40.5418 25.4495 40.5088 25.5581C40.4286 25.7799 40.5418 25.7893 40.4992 25.9685C40.4662 26.1433 40.3107 26.483 39.8007 27.0776C39.2768 27.6724 39.0541 28.0924 39.0541 28.0924C39.0541 28.0924 38.7993 27.6158 38.667 27.2051C38.5737 27.2521 38.0725 27.5306 38.0725 27.5306L36.9114 23.4861L36.9348 23.217C36.9348 23.217 37.0387 23.0897 37.0623 22.8536C36.8878 22.797 36.8641 22.7497 36.6327 22.5282C36.4012 22.3067 36.2127 22.0372 35.826 21.853C35.7693 21.7491 35.6984 21.6079 35.4153 21.551C35.1322 21.494 34.9623 21.4474 34.9623 21.4474C34.9623 21.4474 35.1132 21.3904 35.1841 21.2725C35.0093 21.2962 34.868 21.3528 34.4857 21.3434C34.0987 21.3338 34.056 21.3198 33.8439 21.3528C33.6317 21.3858 33.3772 21.4803 33.2823 21.1546C33.1784 21.0743 32.9566 21.1453 32.7677 21.4234C32.5789 21.7015 32.5129 21.9237 32.1495 22.0323C32.124 22.1924 32.0679 22.3462 31.9843 22.4852C31.8804 22.6601 31.7152 22.8346 31.4934 23.0941C31.144 23.5048 31.2006 24.1796 30.6437 24.6941C30.0822 25.2084 30.7371 23.2686 30.7371 23.2686L31.6337 21.1219L34.187 18.6252L38.1515 18.3564L38.5386 20.4098L40.4737 21.0753L41.696 22.9395L41.6967 22.937Z" fill="#D3AE4D"/>
<path fill-rule="evenodd" clip-rule="evenodd" d="M42.3245 23.3897L40.6586 20.9876L39.4929 20.0907C39.4929 20.0907 38.6622 18.5619 38.6056 18.5147C38.5583 18.4817 37.775 18.3967 37.2747 18.3638L37.3681 18.5949C37.4772 18.6304 37.5743 18.6958 37.648 18.7838C37.8699 19.0386 38.0114 19.5198 37.5065 20.0344C37.7047 20.105 37.7865 20.1277 37.9595 20.105C37.7849 20.3129 37.3886 20.7565 37.3649 21.1435C37.3413 21.4596 37.5395 21.5539 37.5395 21.5539C37.5395 21.5539 37.2374 21.9032 37.2234 22.4872C37.366 22.3263 37.5222 22.1779 37.69 22.0435C38.0394 21.7636 38.5207 21.4487 38.8464 21.2505C38.842 21.3337 38.8532 21.417 38.8794 21.496C38.8794 21.496 39.4879 20.9957 39.9994 21.2176C40.2305 21.3215 40.1266 21.6472 40.1266 21.6472C40.1266 21.6472 40.443 21.5293 40.6648 21.7511C40.8866 21.9729 41.2027 22.5438 41.3632 22.7659C41.4339 22.8698 41.618 23.068 41.8066 23.3745C42.0642 23.804 42.2792 24.2577 42.4487 24.729C42.458 24.5402 42.496 24.2761 42.822 24.2761L42.3264 23.3888L42.3245 23.3897Z" fill="#CAA13E"/>
<path fill-rule="evenodd" clip-rule="evenodd" d="M17.349 30.2145C17.349 30.2145 17.2311 29.9217 17.349 29.3509C17.4669 28.78 17.6511 28.5109 17.7124 27.6709C17.7737 26.8309 18.3213 25.783 18.3213 25.783L19.836 25.0942L20.9075 25.3867L21.2236 26.8215L19.869 27.5682C19.869 27.5682 19.7984 27.8843 19.416 28.1391C19.0337 28.3939 18.5051 28.5921 18.3779 28.8518C18.3018 29.0109 18.2463 29.179 18.2127 29.3521C18.2127 29.3521 17.8257 29.2718 17.5945 29.5266C17.349 29.7864 17.3584 30.0176 17.349 30.2157V30.2145Z" fill="#F4EFC8"/>
<path fill-rule="evenodd" clip-rule="evenodd" d="M20.407 29.832C20.407 29.832 20.2794 29.9123 20.1851 30.112C20.0918 29.9611 19.8687 29.0642 19.8594 28.2572C19.8501 27.4502 19.8018 27.2501 19.9885 26.972C20.1752 26.6939 20.9072 26.4008 20.8033 25.8999C20.6994 25.4233 20.2651 25.2251 19.7318 25.362C19.3585 25.4553 19.0807 26.2493 18.6937 26.6456C18.4009 26.9477 18.0518 26.9004 17.9576 27.0656C17.83 27.2875 17.9479 27.5093 17.9103 27.6508C17.9006 27.6981 17.7827 27.9529 17.5702 28.2597C17.1409 28.8778 16.4142 29.7511 16.3196 30.5345C16.3526 30.0909 16.3292 30.0815 16.4471 29.5906L16.3762 29.4727L16.8429 27.9436L17.145 26.6836L17.8201 24.5737L19.0091 22.4171L20.1655 21.1238L21.3689 21.204L21.5105 23.0116L22.1996 26.4052L23.6484 28.1891L21.3263 29.7518L20.406 29.832H20.407Z" fill="#EBCC73"/>
<path fill-rule="evenodd" clip-rule="evenodd" d="M21.129 30.4733C21.129 30.4733 20.9308 30.5206 20.8599 30.483C20.7889 30.4453 20.7186 30.4027 20.7419 30.3554C20.7653 30.3081 20.8928 30.2282 20.8928 30.1902C20.8955 30.1559 20.8846 30.1219 20.8626 30.0955C20.8406 30.0691 20.8091 30.0523 20.7749 30.0486C20.6663 30.0346 20.6334 30.1053 20.6334 30.1053C20.6334 30.1053 20.5295 30.0253 20.4448 30.0119C20.4949 30.0058 20.5453 30.0026 20.5957 30.0023C20.4653 29.9432 20.327 29.9035 20.1851 29.8844C20.303 29.8137 20.5344 29.6059 20.6853 29.6059C20.8362 29.6059 20.9308 29.5826 20.9071 29.5023C20.8835 29.422 20.7656 29.3041 20.6383 29.2568C20.6853 29.2002 20.7186 29.1153 20.6054 28.8835C20.4871 28.6523 20.5344 28.4965 20.5724 28.4401C20.6054 28.3692 20.7233 28.242 20.7799 28.1617C20.8365 28.0814 20.8838 27.9728 20.9781 27.9162C21.0254 27.8832 21.1763 27.8229 21.3275 27.7653C21.4927 27.7087 21.6295 27.6378 21.7238 27.7087C21.8277 27.7793 21.7804 27.8739 21.7804 27.8739C21.7804 27.8739 22.1062 27.7557 22.3986 27.9069C22.6914 28.0481 23.4041 28.1381 23.4041 28.1381L23.6595 28.6526L21.9699 30.1015L21.2715 30.4509L21.1299 30.4742L21.129 30.4733Z" fill="#E5C66B"/>
<path fill-rule="evenodd" clip-rule="evenodd" d="M23.4748 28.1046C23.4748 28.1046 22.9509 28.454 22.833 28.5813C22.9036 28.5909 23.0215 28.6382 22.9742 28.7088C22.9176 28.7794 22.5778 29.0249 22.389 29.2564C22.1908 29.4875 22.002 29.7803 21.936 29.9218C21.8654 30.0491 21.3272 30.4221 21.1433 30.4691C21.5303 30.4691 22.309 29.9925 22.6015 29.9925C22.5922 30.134 22.6818 30.2946 22.847 30.3086C23.0122 30.3226 23.4888 30.4125 24.1306 30.0161C24.7724 29.6291 24.5602 29.341 24.829 29.1525C25.3436 28.8124 25.5511 28.5103 25.8342 28.3218C26.1174 28.1333 26.2639 28.0903 26.2639 28.0903C26.2639 28.0903 26.2732 27.9488 26.3572 27.9631C26.3802 27.9657 26.402 27.9746 26.4204 27.9887C26.4387 28.0029 26.4528 28.0218 26.4611 28.0434C26.4611 28.0434 26.9521 27.694 27.5811 27.5997C27.5665 27.5931 27.5547 27.5814 27.5482 27.5667C27.5482 27.5667 27.5951 27.5431 27.6048 27.5194C27.6048 27.5194 27.6378 27.4722 27.6614 27.4958C27.685 27.5194 27.718 27.694 27.7653 27.7649C27.8692 27.7176 28.0674 27.274 28.0674 27.274L28.5443 25.9101V24.6641L28.171 24.735L25.371 25.9241L23.6717 27.6846L23.4735 28.1046H23.4748Z" fill="#E6BD62"/>
<path fill-rule="evenodd" clip-rule="evenodd" d="M31.5358 21.993C31.6872 21.9563 31.8324 21.8973 31.9667 21.8182C31.9101 21.9694 31.9101 22.1346 31.6646 22.4933C31.4191 22.852 31.4098 22.9039 31.2116 23.2767C31.0134 23.6637 30.9898 24.2206 30.8009 24.4657C30.8856 24.4246 30.9764 24.3976 31.0697 24.3858C31.0697 24.3858 30.8812 24.551 30.8009 24.7255C30.7207 24.9001 30.5791 25.2634 30.23 25.4856C29.881 25.7077 29.437 25.849 28.9604 26.3729C28.4835 26.8871 27.9928 27.5386 27.7471 27.7729C27.8746 27.5511 28.0492 27.1074 28.0964 26.815C28.1437 26.5225 28.0868 26.1728 28.1671 25.7861C28.2473 25.3994 28.2473 25.1206 28.6337 24.4455C29.0201 23.7704 29.6816 21.4249 29.6816 21.4249L31.1068 20.9719L31.5364 21.9914L31.5358 21.993Z" fill="#B6933F"/>
<path fill-rule="evenodd" clip-rule="evenodd" d="M30.5068 21.1293C30.5068 21.1293 30.0775 21.7475 29.9596 22.2951C29.8417 22.8426 29.95 22.7953 29.8793 23.0644C29.8371 23.2285 29.8371 23.4006 29.8793 23.5647C30.028 23.3252 30.2316 23.1245 30.4732 22.9792C30.8792 22.734 31.2096 22.5592 31.4066 22.3517C31.6047 22.1299 31.7699 21.7665 32.1993 21.488C32.0247 21.4644 31.7793 21.3841 31.7326 21.3947C31.9075 21.1965 32.431 20.8944 32.9596 20.5311C33.4835 20.1577 33.4506 20.0071 34.3002 19.6344C34.0217 19.6817 33.8895 19.6108 33.6581 19.6344C33.7514 19.4363 34.0781 19.3417 34.4047 19.0163C34.7314 18.6908 34.1972 18.2092 34.1972 18.2092L31.7083 19.7147L30.505 21.1306L30.5068 21.1293Z" fill="#C49937"/>
<path fill-rule="evenodd" clip-rule="evenodd" d="M23.7534 20.0061L23.81 19.5531L24.5228 18.411L25.2685 16.4053V13.6632L25.2119 12.0774L25.3298 11.0389L25.4194 10.7089L25.514 10.5813L26.1225 10.8974L26.9628 12.0395L27.0431 14.2437L26.2264 17.7219L23.895 20.2659L23.7534 20.0061Z" fill="#DFC068"/>
<path fill-rule="evenodd" clip-rule="evenodd" d="M25.608 10.4536C25.608 10.4536 25.2347 10.4632 25.1551 12.016C25.0754 13.5687 25.0369 14.3851 24.9802 15.1545C24.9236 15.9239 24.7917 16.3908 24.7254 16.8441C24.6592 17.2974 24.6215 17.9153 24.4093 18.293C24.316 18.4675 24.1166 19.0151 23.6493 19.4257C23.1254 19.8787 22.3427 20.1951 22.2241 20.2187C22.0163 20.2657 20.9638 20.3696 20.5345 20.6058C20.3836 20.686 20.1238 20.7803 19.836 21.0494C19.2649 21.5637 18.5051 22.4839 17.9576 23.5931C17.1176 25.2497 16.2776 29.9267 16.2776 29.9267L16.4664 29.6106C16.4664 29.6106 16.4901 29.1906 16.9101 28.4542C17.3207 27.7181 17.2028 26.8921 17.7737 25.4809C17.9955 24.943 18.274 24.2445 18.6137 23.6497C19.1519 22.6821 19.8031 21.8515 20.4592 21.3985C21.5303 20.6624 22.7104 20.5019 22.7104 20.5019L23.98 19.6619C23.98 19.6619 24.2018 19.2325 24.4946 18.7416C24.9049 18.0528 25.4279 17.2834 25.5421 16.165C25.7169 14.5083 25.2966 13.4228 25.3203 12.4413C25.3439 11.4597 25.3532 10.7376 25.5517 10.5628C25.7502 10.3879 25.6084 10.4542 25.6084 10.4542L25.608 10.4536Z" fill="#A88F33"/>
<path fill-rule="evenodd" clip-rule="evenodd" d="M25.6083 17.8635C25.6083 17.8635 26.1683 16.4853 26.4247 15.2629C26.4719 15.0174 26.5662 14.7723 26.5899 14.5741C26.7078 13.4177 26.7408 12.9411 26.5899 12.3086C26.4719 11.8419 26.019 11.4213 25.7828 11.0953C25.5517 10.7552 25.4431 10.6286 25.4904 10.557C25.5377 10.4855 25.7215 10.3685 25.9007 10.3825C26.0912 10.388 26.2786 10.4323 26.4515 10.5125C26.6243 10.5927 26.7791 10.7073 26.9063 10.8492C27.2697 11.2692 27.5574 12.6947 27.5574 12.6947L27.8602 14.5757L28.6296 16.9448L25.6089 17.8653L25.6083 17.8635Z" fill="#C99E3D"/>
<path fill-rule="evenodd" clip-rule="evenodd" d="M30.8704 16.4286C30.8704 16.4286 30.7665 16.4756 30.578 16.4286C30.586 16.5057 30.5727 16.5834 30.5393 16.6534C30.506 16.7233 30.454 16.7827 30.3891 16.825C30.191 16.7447 28.3358 16.9052 28.3358 16.9052C28.3358 16.9052 27.4722 16.754 27.2031 15.6119C27.0145 14.8519 27.3446 13.8044 27.236 13.1153C27.0708 12.1004 26.8397 11.9019 26.816 11.5862C26.7924 11.2704 26.7687 11.1898 26.7687 10.9916C26.6648 10.968 26.6035 10.935 26.4999 10.935C26.4763 10.8417 26.5233 10.7602 26.4197 10.595C26.4763 10.6186 26.8633 10.6659 27.3163 11.0952C27.6896 11.4446 27.6896 11.5719 27.7459 11.6428C27.8166 11.7134 28.3878 12.2028 28.6332 12.6906C28.8787 13.1784 29.3553 14.734 29.4639 14.9888C29.4969 15.0927 29.5678 15.1966 29.7439 15.4324C30.0177 15.7725 30.4187 16.3347 30.8717 16.428L30.8704 16.4286Z" fill="#B58634"/>
<path fill-rule="evenodd" clip-rule="evenodd" d="M27.8123 11.6665C28.0982 12.1284 28.355 12.6076 28.5813 13.1013C28.8598 13.7289 29.025 14.2434 29.3743 14.6634C29.1855 14.1162 28.8504 13.0401 28.6523 12.6577C28.4304 12.2533 27.9775 11.8177 27.8123 11.6668V11.6665Z" fill="#A88F33"/>
<path fill-rule="evenodd" clip-rule="evenodd" d="M24.6024 19.4256C24.6024 19.4256 24.1257 19.5435 23.2385 20.0108C22.9457 20.1617 22.6676 20.2889 22.3985 20.4072C21.6994 20.7232 20.9497 21.0154 20.3549 21.1765C20.4021 21.2332 20.4255 21.2565 20.4255 21.2565C20.4255 21.2565 20.4255 21.488 20.553 21.6199C20.4824 21.6908 19.5382 22.3326 19.817 24.4799C20.0055 24.4093 20.2273 24.3147 20.2603 24.3147C20.3172 24.3244 20.3312 24.4799 20.4018 24.4799C20.4724 24.4799 20.7039 24.3866 20.9494 24.0692C20.94 24.1968 20.7985 25.4804 21.5582 26.3441C21.6998 26.1789 22.0585 25.6313 22.0585 25.6313L22.0678 25.4568C22.0678 25.4568 22.1008 24.848 22.2993 24.2911C22.4977 23.7342 22.8844 23.3235 22.8844 23.3235L24.9038 20.4398L24.6017 19.4253L24.6024 19.4256Z" fill="#E6C367"/>
<path fill-rule="evenodd" clip-rule="evenodd" d="M22.7151 23.66C22.6226 23.7253 22.5208 23.7762 22.413 23.8109C22.38 23.693 22.3327 23.287 22.6112 22.8906C22.9369 22.4137 23.6494 21.7955 23.8475 21.3039C23.9751 20.9875 23.9185 20.1948 25.0512 19.18C26.184 18.1651 26.6273 17.816 26.6273 17.816L28.4585 16.8958L30.7097 17.7831L29.5913 22.1667L28.723 24.22L25.2696 23.5688L22.7148 23.66H22.7151Z" fill="#DCBA5A"/>
<path fill-rule="evenodd" clip-rule="evenodd" d="M24.0332 22.4698L24.4629 21.9318V21.5495C24.4629 21.5495 24.9395 21.4219 25.4537 20.898C25.968 20.3741 26.6808 19.3689 27.3086 19.4302C27.9364 19.5011 27.9977 20.7941 28.0214 21.1578C28.045 21.5215 28.1253 22.3469 28.2525 22.7908C28.3941 23.2345 26.7234 24.9145 26.7234 24.9145L25.5888 25.7782L24.0332 22.4698Z" fill="#E9CE77"/>
<path fill-rule="evenodd" clip-rule="evenodd" d="M25.3628 26.9484C25.3628 26.9484 25.7122 26.4009 25.4561 26.283C25.607 25.9432 25.8854 25.5845 25.8854 25.5845C25.8854 25.5845 26.0836 25.0939 26.7254 24.4897C27.3672 23.8855 27.7639 23.4842 27.8678 23.0785C27.9318 22.8141 27.9667 22.5435 27.9717 22.2715C28.0411 22.3282 28.1153 22.3787 28.1935 22.4224C28.2974 22.4697 28.788 22.8754 28.7174 23.692C28.6468 24.5087 28.3441 24.8484 28.3441 24.8484C28.3441 24.8484 28.0517 25.1409 27.8441 25.2921C27.622 25.443 27.5421 25.6175 27.1691 25.6318C27.2074 25.6013 27.2505 25.5773 27.2966 25.5609C27.2966 25.5609 26.9096 25.5139 26.7018 25.7024C26.494 25.891 26.0522 26.4718 25.8304 26.6466C25.6086 26.7882 25.3637 26.9487 25.3637 26.9487L25.3628 26.9484Z" fill="#CDAE50"/>
<path fill-rule="evenodd" clip-rule="evenodd" d="M41.0552 17.7688C40.4976 17.5656 39.9116 17.451 39.3186 17.4291C38.3274 17.3961 36.8786 17.4527 35.458 17.4621C33.9289 17.4714 32.5414 16.9382 30.616 16.8439C30.2999 16.655 29.496 15.829 26.9866 17.58C27.1375 17.5707 28.8084 17.193 29.3886 17.92C29.9738 18.6421 29.8086 19.8692 29.7287 20.1616C29.5775 20.8131 29.0866 21.7617 28.8887 22.4271C28.6908 23.0926 28.7375 23.4423 28.5959 23.909C28.4544 24.3756 28.143 24.6074 28.3268 25.1453C28.5723 24.9944 28.7002 24.9944 29.1102 24.0742C29.5202 23.1539 29.4359 22.4978 30.1157 21.719C30.7812 20.9357 31.889 19.8642 32.3102 19.5951C32.7315 19.326 36.0762 17.5893 39.5784 19.246C40.423 19.1564 41.0555 17.7685 41.0555 17.7685L41.0552 17.7688Z" fill="#D2A83E"/>
<path fill-rule="evenodd" clip-rule="evenodd" d="M28.397 17.1264C28.3935 17.091 28.3856 17.0561 28.3736 17.0225C28.3409 16.9535 28.2979 16.8898 28.2461 16.8337C28.2461 16.8337 27.4154 16.6828 26.9954 16.7298C26.259 16.81 25.5936 17.721 25.2821 18.1883C24.9707 18.6556 24.5837 19.3774 24.1637 19.7504C24.1683 19.714 24.1599 19.6772 24.1401 19.6465C24.1401 19.6465 24.1637 19.6794 24.1167 19.7267C24.0697 19.774 24.0694 19.7974 24.0931 19.8201L24.164 19.8907C24.1873 19.8907 24.8388 19.5979 25.7261 18.7707C26.67 17.907 27.3921 17.464 27.7698 17.3122C27.9712 17.2266 28.1817 17.1643 28.3973 17.1264H28.397Z" fill="#C29637"/>
<path fill-rule="evenodd" clip-rule="evenodd" d="M44.5099 13.5781C44.5099 13.5781 44.3587 13.7667 44.1698 13.9745C43.7498 14.4181 43.2023 14.9181 42.735 15.4327C42.2916 15.9236 41.7914 16.306 41.2295 16.9478C40.6676 17.5896 40.0162 18.3021 39.8513 18.5099C39.7004 18.7177 39.5825 19.0574 39.5825 19.232C39.5022 19.1754 39.408 19.1141 39.408 19.1141C39.4476 19.1882 39.4951 19.2578 39.5495 19.3219C39.6674 19.4871 39.8513 19.6952 39.9459 19.8222C40.0619 19.9838 40.1452 20.1665 40.191 20.3601C40.2476 20.3694 40.611 20.4403 41.0643 19.6946C41.5176 18.9489 42.1118 18.1325 42.1118 18.1325L43.0557 16.7306L43.6506 15.5416L44.3973 14.2106L44.5108 13.5781H44.5099Z" fill="#AC8132"/>
<path fill-rule="evenodd" clip-rule="evenodd" d="M45.4777 12.6248C45.4777 12.6248 44.9065 13.0914 44.6847 13.3714C44.4628 13.6514 43.938 14.3863 43.938 14.3863L44.1268 14.3627L45.0851 13.5133L45.4584 12.8478L45.4774 12.626L45.4777 12.6248Z" fill="#A88F33"/>
<path fill-rule="evenodd" clip-rule="evenodd" d="M45.3023 50.1308C45.3023 50.1308 45.293 49.7438 45.5101 49.5126C45.7319 49.2812 46.2935 48.9414 46.8411 47.6671C47.3886 46.3928 47.4496 46.105 47.4496 46.105C47.4496 46.105 46.468 46.945 45.8629 47.1432C46.0045 46.8505 46.0847 46.643 46.1557 46.4918C46.0754 46.4211 45.7357 46.3409 45.7027 46.3032C45.8912 46.1144 45.9951 45.6518 46.3775 45.345C46.8684 44.9717 47.7651 44.3302 48.4619 43.7583C49.1588 43.1865 50.529 41.8565 50.7038 41.4695C50.8077 41.6204 50.8311 41.7146 50.8311 41.7146C50.8311 41.7146 50.1423 42.6116 49.7835 43.1825C49.4671 43.6734 49.4908 43.9518 49.4908 43.9518L50.1423 43.6718C50.1423 43.6718 50.3308 44.3703 49.4768 45.4324C49.8501 45.2909 50.0007 45.3758 50.2129 45.2576C49.8635 45.4797 49.3822 45.7818 48.9292 46.6122C48.4856 47.4428 47.8814 48.4104 46.8622 49.0142C45.871 49.6514 45.2998 50.128 45.2998 50.128L45.3023 50.1308Z" fill="#A67A2E"/>
<path fill-rule="evenodd" clip-rule="evenodd" d="M42.7445 18.2601C42.7445 18.2601 42.3575 19.0668 42.3009 19.6946C42.2916 19.8458 42.2536 19.9637 42.2536 20.1382C42.2443 20.6998 42.2866 21.3276 42.1603 21.6201C42.113 21.5021 42.0894 21.4219 42.0421 21.3749C41.9715 21.5731 41.8439 22.1912 41.74 22.4224C41.693 22.2715 41.5891 21.7476 41.5988 21.1294C41.6084 20.5113 41.6221 20.393 41.6221 20.2658C41.5988 20.4543 41.4712 20.7094 41.4239 20.8603C41.3533 20.7331 41.273 20.5679 41.1785 20.431C41.1218 20.5243 41.0512 20.6621 40.9899 20.7331C40.9803 20.6765 40.957 20.5253 40.9426 20.3131C40.9333 20.0676 40.919 19.7515 40.9333 19.6853C40.9566 19.558 41.1551 19.0578 41.5751 18.5998C42.0754 18.0523 42.5899 17.0001 42.7408 16.6744C42.8917 16.3486 43.5335 14.9944 43.5335 14.9944H44.0244L43.3117 16.6177C43.3117 16.6177 42.8824 17.505 42.6605 17.8311C42.4387 18.1571 41.9715 19.0914 41.7636 19.4547C41.9145 19.2566 42.0421 19.1527 42.1933 18.9638C42.3395 18.8316 42.7452 18.2607 42.7452 18.2607L42.7445 18.2601Z" fill="#8C6228"/>
<path fill-rule="evenodd" clip-rule="evenodd" d="M45.487 12.563C45.4068 12.8098 45.2801 13.039 45.1137 13.2381C44.8209 13.5875 44.1931 14.0545 43.8867 14.4272C43.6067 14.7905 43.0467 15.7817 43.3012 16.9568C43.3946 16.702 43.5703 16.1971 44.0376 15.6259C44.5049 15.0547 45.0051 14.3989 45.2509 13.8893C45.496 13.3747 45.529 12.969 45.529 12.969L45.6223 12.8511L45.5657 12.582L45.4854 12.563H45.487Z" fill="#CBA94C"/>
<path fill-rule="evenodd" clip-rule="evenodd" d="M55.044 43.868C55.044 43.868 54.8551 43.3538 54.7985 42.8865C54.7419 42.4192 54.8918 42.3265 54.7182 41.7917C54.6143 41.466 54.4258 41.5117 54.3785 41.466C54.3312 41.4202 54.2982 40.928 54.3075 40.6589C54.3169 40.3898 54.2982 40.0408 54.2509 39.8896C54.1803 39.8329 54.133 39.7856 54.0291 39.4366C53.9112 39.0872 53.8546 38.9127 53.7979 38.8091C53.7413 38.7055 53.5758 38.6109 53.5758 38.507C53.5758 38.2992 53.7647 38.1909 53.7647 38.1336C53.7553 38.0157 53.6138 38.1103 53.5758 38.077C53.5288 38.0204 53.694 37.6807 53.6327 37.6334C53.6091 37.61 53.4439 37.8082 53.4013 37.7516C53.354 37.6947 53.2974 37.1331 53.2124 36.7604C53.1325 36.397 53.0472 36.1329 53.0379 36.0243C53.0286 35.9204 52.3864 34.0892 52.2309 33.6456C52.1055 33.2707 52 32.8894 51.9148 32.5035C51.8675 32.2816 51.8345 31.8284 51.8109 31.8756C51.7872 31.9229 51.8015 32.1541 51.7636 32.1447C51.7306 32.1351 51.6127 31.3284 51.575 31.2008C51.5421 31.0733 51.3436 30.6408 51.295 30.3279C51.2477 30.0115 51.1441 29.1855 51.0732 28.6239C51.0023 28.0624 50.9693 27.8312 50.9693 27.6906C50.9809 27.3466 50.962 27.0023 50.9127 26.6617C50.8193 26.0669 50.6327 25.3448 50.469 24.9251C50.1529 24.1321 49.3126 22.1027 49.1624 21.5978C49.1624 21.4702 49.3276 21.5412 49.3276 21.5412C49.3276 21.5412 49.7379 22.57 50.04 23.3627C50.3328 24.1557 50.6112 24.8542 50.6821 24.9251C50.7388 24.9957 51.1824 25.7744 51.3806 27.0488C51.5788 28.3231 51.6494 29.4981 51.7676 30.2815C51.8242 30.6548 51.8715 31.0509 51.9894 31.4472C52.1167 31.8769 52.3149 32.3205 52.5746 33C52.7965 33.5712 52.9617 34.0478 53.0513 34.4585C53.1552 34.9824 53.1552 35.3788 53.2165 35.6385C53.2734 35.8604 53.358 36.3037 53.5565 36.9452C53.755 37.5867 54.0471 38.413 54.2453 38.9273C54.6327 39.9561 54.8053 40.8151 54.8638 41.2731C54.9155 41.745 55.0903 43.378 55.043 43.8687L55.044 43.868Z" fill="#A88F33"/>
<path fill-rule="evenodd" clip-rule="evenodd" d="M45.5105 12.5066L45.4869 12.5633C45.4869 12.5633 45.5575 12.5869 45.5435 12.6815C45.5445 12.8109 45.5366 12.9402 45.5199 13.0685C45.4965 13.2337 45.4493 13.3609 45.4399 13.4649C45.4399 13.6867 45.4729 13.9415 45.1599 14.574C45.0666 14.7485 45.0091 14.8994 44.9618 15.0033C44.8439 15.2581 44.8202 15.2961 44.7163 15.414C44.8815 15.3206 45.4763 14.9473 45.7781 15.0033C45.5706 15.1212 45.2542 15.3527 45.056 15.6548C45.1033 15.6641 45.3015 15.7021 45.616 15.6548C46.1399 15.5745 46.7251 15.3857 47.2393 15.4233C47.8012 15.4563 47.5794 14.7485 47.5794 14.7485L46.931 13.3233L45.7041 12.46L45.5105 12.5069V12.5066Z" fill="#BE9C44"/>
<path fill-rule="evenodd" clip-rule="evenodd" d="M48.7102 23.1822C48.7102 23.1822 48.1627 22.6346 47.9409 20.7555C47.719 18.8677 47.7663 16.0889 47.7663 16.0889L47.3227 15.0034C47.3227 15.0034 47.2294 14.2813 46.997 14.0125C46.7646 13.7437 46.3082 13.2904 46.1003 13.0686C45.8925 12.8468 45.6567 12.5447 45.5151 12.4974C45.5858 12.3795 45.9022 11.714 47.1149 11.7047C48.3276 11.6954 48.7015 12.3702 48.8282 12.6156C48.9548 12.8611 49.5266 13.9223 49.7388 15.9445C49.937 17.9642 49.9466 18.1154 49.9136 18.8139C49.89 19.2009 49.7624 20.0975 49.5403 21.0554C49.3374 21.8674 49.1156 22.7737 48.7096 23.1841L48.7102 23.1822Z" fill="#A17C34"/>
<path fill-rule="evenodd" clip-rule="evenodd" d="M46.9934 24.7917C47.1759 24.8048 47.3582 24.7637 47.5173 24.6735C47.6919 24.6641 48.3244 24.7444 48.8104 24.1262C48.8434 24.2675 48.9286 24.6501 48.7065 24.9899C48.8247 24.8716 48.9993 24.8247 49.0229 24.7917C49.0322 24.9662 49.1974 25.5041 48.499 26.8114C48.6875 26.6039 48.9093 26.6132 49.1075 26.5896C49.1172 26.835 49.2491 27.6607 48.9 28.1047C48.6688 28.4068 48.2911 28.3122 48.2911 28.3122C48.2966 28.2462 48.2966 28.18 48.2911 28.114C48.2818 27.9865 48.2345 27.8592 48.2678 27.7743C48.0853 27.6909 47.919 27.5758 47.7768 27.4342C47.3661 27.0472 46.8328 26.3867 46.7952 25.8958C46.7479 25.3483 47.2389 25.2303 47.2389 25.2303C47.1977 25.1936 47.1627 25.1505 47.135 25.1028C47.1113 25.0228 47.0877 24.8953 46.9934 24.7917Z" fill="#8C6228"/>
<path fill-rule="evenodd" clip-rule="evenodd" d="M43.3535 18.8544C43.3535 18.8544 43.3299 18.8214 43.2026 18.9723C43.2263 18.8214 43.2499 18.6796 43.2593 18.5427C43.3195 18.4159 43.3974 18.2984 43.4907 18.1936C43.4198 18.3348 43.3725 18.4624 43.3725 18.4624C43.3725 18.4624 43.5473 18.1367 43.8021 17.9385C43.9767 17.7969 44.1985 17.731 44.2927 17.5988C44.3966 17.4572 44.373 17.4336 44.3966 17.4099C44.3966 17.4099 44.6281 17.259 44.9821 16.8151C45.0291 16.7584 45.1001 16.6972 45.1473 16.6405C45.2273 16.6076 45.4161 16.5226 45.638 16.4091C45.8694 16.2818 46.1289 16.1073 46.2894 16.0357C46.6055 15.8942 46.9408 15.9085 47.0964 15.6864C47.2143 15.6534 47.3415 15.2993 47.3182 14.9976C47.4927 15.0682 48.3893 15.6251 48.6964 16.8428C48.9182 17.7064 48.5216 19.0373 48.3564 19.6795C48.1912 20.3216 48.1678 20.7979 47.9364 21.0904C47.6436 21.4777 46.7001 22.0237 46.4686 22.294C46.2704 22.5159 45.6759 23.0774 45.6992 23.4831C45.7229 23.7852 46.0956 23.9498 46.1762 24.007C46.2567 24.0643 46.2561 24.1346 46.4073 24.1004C46.5585 24.0661 46.6148 23.9964 46.6764 23.9964C46.747 24.0058 46.747 24.0201 46.78 24.0201C46.8039 24.0194 46.8277 24.0161 46.8509 24.0104C46.8509 24.0104 46.8273 24.4401 45.8221 24.5704C45.7512 24.5801 45.6806 24.6034 45.5907 24.6177C45.7089 24.5611 45.7795 24.5611 45.9071 24.3866C45.7655 24.3629 45.3595 24.3393 45.2556 24.3063C45.2886 24.2497 45.3972 24.0985 45.4868 24.0279C45.567 23.9572 45.4774 23.9345 45.4068 23.9712C45.2852 24.054 45.1686 24.1437 45.0574 24.24C44.9395 24.344 44.8356 24.4855 44.6468 24.6134C44.5902 24.4245 44.5995 24.0658 44.8216 23.8064C44.7647 23.8157 44.6561 23.9809 44.5525 23.9479C44.5338 23.7758 44.5449 23.6017 44.5855 23.4333C44.6421 23.2208 44.9489 22.8481 44.9489 22.8481L46.4306 20.2003L46.7467 18.1945L43.3535 18.8538V18.8544Z" fill="#92723A"/>
<path fill-rule="evenodd" clip-rule="evenodd" d="M43.2732 18.9676C43.2732 18.9676 43.1929 19.0242 43.3535 19.1328C43.3298 19.1658 43.2732 19.2837 43.2022 19.3639C43.1223 19.4573 43.037 19.5151 43.0041 19.5954C42.9334 19.7606 42.8768 19.8738 42.8768 19.9448C42.8768 20.0157 42.8532 20.4687 42.655 20.7611C42.584 20.865 42.5038 21.0396 42.4471 21.1575C42.3292 21.365 42.2253 21.5308 42.2016 21.6242C42.1547 21.7894 42.1217 22.2423 42.1217 22.2423C42.1217 22.2423 42.2256 22.1148 42.2633 22.0678C42.2063 22.1857 42.145 22.313 42.0554 22.4075C42.112 22.3602 42.2773 22.2423 42.5557 21.9969C42.9428 21.6714 43.547 21.1239 44.2834 20.6902C44.0613 20.7705 43.8727 20.7705 43.7218 20.7941C43.8397 20.6762 44.9016 19.4302 45.4586 19.3123C45.4924 19.2694 45.5092 19.2156 45.5058 19.1611L45.0289 19.1141L44.0613 19.3216L43.92 18.575L43.2732 18.9666V18.9676Z" fill="#B18E3E"/>
<path fill-rule="evenodd" clip-rule="evenodd" d="M44.8121 23.2152C44.8121 23.2152 44.6846 23.3425 44.5667 23.6589C44.4759 23.5641 44.398 23.4577 44.3352 23.3425C44.1607 23.05 43.8919 22.677 43.264 22.8895C43.2547 22.6913 43.2404 22.5874 43.264 22.4459C43.3679 22.4225 43.684 22.1677 44.0001 21.7947C44.2223 21.5399 44.4298 21.2472 44.5713 20.8744C44.6647 20.8035 44.8261 20.6856 45.038 20.5487C45.3401 20.3412 45.7035 20.0578 45.7601 19.7417C45.6185 19.7983 45.3164 19.9399 44.8631 19.9165C45.038 19.8363 45.3068 19.7513 45.2738 19.402C45.3447 19.3547 45.4014 19.3217 45.4014 19.3217C45.3482 19.3039 45.2922 19.2959 45.2362 19.298C45.2265 19.2651 45.2125 19.2181 45.1323 19.2414C45.052 19.2648 45.0389 19.2651 45.0283 19.298C44.9954 19.3077 44.8868 19.298 44.8065 19.355C44.7263 19.4119 44.5044 19.6001 44.4195 19.6331C44.4525 19.5765 44.4995 19.4919 44.4995 19.4919C44.4995 19.4919 44.2683 19.5152 44.1031 19.5852C43.801 19.6891 43.4519 19.878 43.0979 20.0618C43.1309 20.0052 43.1452 19.9685 43.1685 19.9579C43.1919 19.9473 43.2488 19.9346 43.2488 19.9249C43.2488 19.9153 43.2255 19.8316 43.2395 19.7977C43.3453 19.5735 43.4702 19.3587 43.6128 19.1559C43.778 18.9337 43.811 18.6176 43.811 18.6176L44.5331 18.2543L46.5624 17.7876L47.8794 17.8679L47.7142 18.7788L46.9364 20.3692L46.2709 21.818L45.5109 22.7056L44.8124 23.2152H44.8121Z" fill="#543E26"/>
<path fill-rule="evenodd" clip-rule="evenodd" d="M48.1018 19.273C48.1018 19.273 47.3087 20.2545 47.0869 20.4057C47.2284 20.1036 48.1018 18.3054 48.4179 17.8052C48.3472 17.7485 48.2526 17.7485 48.4745 16.8718C48.2859 17.3152 48.2197 17.5466 48.0641 17.6645C47.9086 17.7824 47.8893 17.7448 47.7841 17.7448C47.804 17.7089 47.8121 17.6677 47.8074 17.6269C47.8074 17.6269 47.142 17.5466 46.6874 17.5466C46.2329 17.5466 45.3331 17.7921 44.8325 17.9903C44.4361 18.1555 44.2143 18.1555 44.0728 18.2591C43.9312 18.377 43.8509 18.5045 43.78 18.5375C43.7234 18.5705 43.4546 18.6554 43.393 18.745C43.3363 18.8384 43.2421 18.9432 43.2421 18.9668C43.2421 18.9905 43.2184 19.0238 43.2894 18.9998C43.3127 18.9905 43.4875 18.8959 43.6857 18.778C43.9545 18.6271 44.2803 18.4526 44.5164 18.3487C45.1912 18.0796 45.4037 18.1268 45.7055 18.0702C46.0216 18.0136 46.4749 17.8814 46.7767 17.8814C47.0788 17.872 47.65 17.8814 47.7822 17.905C47.7256 17.9523 47.6783 18.0089 47.702 18.2071C47.702 18.2637 47.6547 18.325 47.6086 18.4619C47.4674 18.8489 47.1983 19.4908 47.0486 19.8165C46.8411 20.2598 46.6053 20.6328 46.4886 20.864C46.3719 21.0952 46.1153 21.704 45.8611 22.0297C45.6069 22.3555 45.474 22.5536 45.3944 22.6246C45.3147 22.6955 44.7429 23.1152 44.7855 23.2664C44.8894 23.2334 45.5456 22.9864 46.0219 22.45C46.4982 21.9137 46.5931 21.5864 46.9659 21.2936C47.3386 21.0009 47.6313 20.5103 47.8059 20.1046C47.9521 19.7269 47.9191 19.609 48.103 19.2739L48.1018 19.273Z" fill="#806031"/>
<path fill-rule="evenodd" clip-rule="evenodd" d="M31.0119 26.5994C31.0119 26.5994 30.908 27.0287 30.6719 27.2412C30.4407 27.449 30.03 27.6283 29.983 27.9776C29.9264 28.3267 30.3937 28.5015 30.3937 28.5015C30.3937 28.5015 30.1386 28.9215 30.1386 29.2376C30.1386 29.5634 30.1293 29.6246 30.1622 29.9361C30.1248 29.9601 30.093 29.992 30.0689 30.0294C30.0689 30.0294 30.0922 30.3315 30.3237 30.52C30.5552 30.7086 30.7531 30.8221 30.871 30.7748C30.889 30.8133 30.9048 30.8528 30.9183 30.893C30.9183 30.893 31.0931 30.4494 31.211 30.0624C31.3289 29.666 31.4329 29.7223 31.4798 29.1891C31.5268 28.6558 32.0399 27.7403 32.0399 27.7403L32.3899 26.9578L31.819 26.5142L31.0119 26.5991V26.5994Z" fill="#B6903C"/>
<path fill-rule="evenodd" clip-rule="evenodd" d="M32.0738 27.3684C31.9561 27.4893 31.8474 27.6186 31.7487 27.7554C31.5978 27.9633 31.4799 28.1518 31.2581 28.2324C31.0362 28.3129 30.8947 28.3123 30.9087 28.5345C30.9227 28.7566 31.1305 28.8505 31.2484 28.9638C31.376 29.0817 31.4799 29.2799 31.4233 29.502C31.4939 29.469 31.6214 29.4311 31.7394 29.1763C31.8573 28.9215 32.682 27.3687 32.682 27.3687H32.0738V27.3684Z" fill="#685026"/>
<path fill-rule="evenodd" clip-rule="evenodd" d="M35.3266 23.7863C35.3266 23.7863 35.3973 23.5978 35.3266 23.4609C35.2557 23.3194 34.8264 23.2721 34.6139 23.1115C34.3921 22.9463 34.1229 22.8315 33.9011 22.904C33.9341 22.8238 34.0663 22.6489 33.9578 22.6113C33.8538 22.5783 33.4671 22.7528 33.3632 22.8331C33.2593 22.9134 33.0232 23.0076 32.9762 23.0646C32.9292 23.1215 32.8486 23.2298 32.8014 23.1825C32.7541 23.1495 32.7307 23.0646 32.6505 23.1115C32.5702 23.1585 32.1838 23.4749 32.1126 23.6591C32.0413 23.8433 31.8811 24.2539 31.3998 24.7209C30.9185 25.1879 30.7107 25.4903 30.8523 25.6648C30.9938 25.8393 31.0601 25.7121 31.0837 25.863C31.1019 26.0111 31.0939 26.1613 31.0601 26.3066C31.0035 26.5521 30.9092 26.7832 31.0364 26.8305C31.3622 26.9344 31.6786 26.7372 31.7492 26.7976C31.8907 26.9248 31.6689 27.3828 32.004 27.4724C32.344 27.5657 32.6791 27.3921 32.6791 27.3921L33.9154 26.7266L35.1048 26.0991L35.7133 24.8954L35.387 23.8902L35.3248 23.7863H35.3266Z" fill="#D4B968"/>
<path fill-rule="evenodd" clip-rule="evenodd" d="M34.1596 26.6605C34.1596 26.6605 33.9518 26.3444 34.2069 26.0657C34.462 25.7869 34.8251 25.6693 34.9666 25.4948C34.9397 25.4615 34.9035 25.437 34.8627 25.4242C34.9567 25.256 35.1 25.1208 35.2734 25.0368C35.2028 24.9662 35.1082 24.9096 35.0046 24.9096C34.7731 24.9096 34.6313 25.0511 34.4191 25.0511C34.2116 25.0511 34.1879 24.9472 34.1879 24.9472C34.1879 24.9472 34.5373 24.9142 34.504 24.7584C34.471 24.5932 34.4107 24.5932 34.4107 24.5932C34.4107 24.5932 35.0855 24.3132 35.2034 24.1639C35.3213 24.0145 35.3073 23.8381 35.3309 23.7675C35.4109 23.7675 35.8782 23.522 36.067 23.6259C36.2558 23.7299 36.1236 24.013 36.1236 24.013C36.1236 24.013 36.6951 23.5833 36.9863 23.1621C37.2411 23.1857 37.3596 22.9875 37.5463 22.9875C37.7778 22.9875 38.1411 23.3036 38.2118 23.9784C38.259 24.3654 38.3297 24.5873 38.259 25.2717C38.2261 25.6587 38.2354 26.485 38.3524 26.8951C38.4323 27.2208 38.6212 27.1878 38.6212 27.1878C38.5922 27.2871 38.5348 27.3757 38.456 27.4426C38.3284 27.5605 38.3144 27.8723 38.3284 27.9902C38.3472 28.0764 38.3709 28.1615 38.3994 28.245C38.3994 28.245 38.2485 28.4195 38.2105 28.5377C38.1775 28.6556 38.022 28.7359 37.9084 28.7359C37.7949 28.7359 37.8518 28.7263 37.7009 28.7359C37.55 28.7456 37.5028 28.7689 37.4082 28.7359C37.3136 28.7029 37.243 28.665 37.2809 28.3626C37.3139 28.0605 36.1152 27.3574 36.1152 27.3574L34.1553 26.6589L34.1596 26.6605Z" fill="#CCA849"/>
<path fill-rule="evenodd" clip-rule="evenodd" d="M31.9085 29.6433C31.9085 29.6433 32.3379 30.2145 34.1031 30.2145C34.9431 30.2145 35.2359 30.1343 35.4098 30.087C35.5987 30.0397 36.3064 29.7615 37.0192 28.9212C37.661 28.1615 37.5195 27.8501 37.5195 27.8501L37.1461 27.7935L35.9328 27.9587L32.3425 29.4878L31.907 29.6433H31.9085Z" fill="#585136"/>
<path fill-rule="evenodd" clip-rule="evenodd" d="M33.2249 29.7847C33.2249 29.7847 31.6958 30.1247 31.6958 29.1572C31.6958 28.2133 32.6397 27.2222 32.8758 27.0476C33.1213 26.8728 33.7065 26.6743 33.7065 26.6743H35.1177L35.3865 27.387L35.2686 28.9254L33.2249 29.7844V29.7847Z" fill="#252211"/>
<path fill-rule="evenodd" clip-rule="evenodd" d="M34.6365 26.9628C34.6365 26.9628 34.344 26.6937 33.6786 27.0561C33.0131 27.4186 32.4749 28.1762 32.4419 28.864C32.4089 29.4726 32.9421 29.9259 33.7728 29.9495C34.391 29.9729 34.764 29.9022 34.9529 29.8562C34.9056 29.7996 34.6601 29.4928 34.6601 29.4928L34.6368 26.9631L34.6365 26.9628Z" fill="#C3B378"/>
<path fill-rule="evenodd" clip-rule="evenodd" d="M34.3486 27.1133C34.3486 27.1133 34.278 27.0567 34.0686 27.1699C33.8941 27.2632 33.6393 27.5099 33.4411 27.6845C33.3135 27.7884 33.2333 27.8353 33.1611 27.9156C32.8683 28.265 32.6229 28.8361 32.7647 29.1192C32.9066 29.4023 33.3736 29.7281 34.5629 29.5062L34.3452 27.1136L34.3486 27.1133Z" fill="#E6D89C"/>
<path fill-rule="evenodd" clip-rule="evenodd" d="M33.9616 27.6987C33.9616 27.6987 33.7727 27.9914 33.7727 28.4587C33.7727 28.9353 34.0418 29.6951 35.033 29.7517C35.7927 29.799 36.3023 28.6569 36.8545 28.2132C37.2745 27.8735 37.5293 27.8639 37.5293 27.8639C37.5293 27.8639 37.0999 27.3972 35.9532 26.7927C34.8205 26.1838 33.5509 26.1036 32.8618 27.0382C33.1875 27.0145 34.24 26.7454 34.24 26.7454L34.7546 26.9106L33.9616 27.699V27.6987Z" fill="#252211"/>
<path fill-rule="evenodd" clip-rule="evenodd" d="M35.4434 28.317C35.4105 28.2464 35.3868 28.1518 35.5237 28.1285C35.6606 28.1051 35.7218 28.1188 35.7691 28.2218C35.8164 28.3248 35.8624 28.4106 35.7924 28.4532C35.7218 28.4909 35.5377 28.4532 35.4431 28.3164L35.4434 28.317ZM35.2217 27.6515C35.2217 27.6515 35.1744 27.6845 35.198 27.6186C35.2074 27.5386 35.2689 27.3967 35.4198 27.43C35.5707 27.4633 35.538 27.6282 35.5131 27.6755C35.4882 27.7228 35.3623 27.8027 35.2677 27.7688C35.2557 27.7657 35.2446 27.7599 35.2353 27.7517C35.226 27.7436 35.2188 27.7333 35.2142 27.7219C35.2095 27.7104 35.2077 27.698 35.2088 27.6856C35.2099 27.6733 35.2139 27.6614 35.2204 27.6509L35.2217 27.6515Z" fill="#6F674D"/>
<path fill-rule="evenodd" clip-rule="evenodd" d="M22.4468 27.9532C22.4468 27.9532 22.8201 28.2332 23.2538 28.2223C23.6831 28.2126 24.2354 27.7693 24.4902 27.4859C24.641 27.3207 24.7702 27.1461 24.9102 27.0092C25.0284 26.8913 25.1083 26.8347 25.165 26.7544C25.2452 26.6611 25.3302 26.4856 25.3728 26.4287C25.2689 26.509 25.118 26.6508 24.9621 26.7451C24.8112 26.8384 24.4855 27.0139 24.3533 27.0612C24.226 27.1085 22.9044 27.8079 22.9044 27.8079L22.4468 27.9532Z" fill="#AC924C"/>
<path fill-rule="evenodd" clip-rule="evenodd" d="M23.0171 24.466C23.0171 24.466 23.2246 24.3244 23.6259 24.2345C24.013 24.1412 24.7917 24.0693 24.7917 24.0693L25.4335 24.3493L25.6883 25.3169L25.2216 26.3224L24.6271 26.6957L23.952 25.6103L23.0186 24.4679L23.0171 24.466Z" fill="#9F8E57"/>
<path fill-rule="evenodd" clip-rule="evenodd" d="M22.1772 25.3298L21.9551 25.4956C21.9551 25.4956 22.012 25.3917 22.059 25.0756C22.106 24.7595 22.3517 23.9901 22.7105 23.5464C23.0692 23.1028 23.0598 23.1264 23.0598 23.1264C23.0268 23.1204 22.9929 23.1215 22.9604 23.1296C22.9278 23.1377 22.8973 23.1526 22.871 23.1734C22.9183 23.0689 23.2204 22.6955 23.5225 22.5089C23.8246 22.3222 23.9425 22.2634 24.2586 22.4155C24.5746 22.5677 24.6549 22.6467 24.8864 22.6374C25.1179 22.628 25.3157 22.3826 25.3157 22.3826C25.3157 22.3826 25.363 22.5334 25.1885 22.8828C25.0139 23.2322 24.3248 23.9447 24.3248 23.9447L22.89 24.9262L22.1772 25.3307V25.3298Z" fill="#EAC970"/>
<path fill-rule="evenodd" clip-rule="evenodd" d="M23.2388 24.3479C23.2388 24.3479 24.2773 24.4895 24.5934 24.1971C24.6027 24.23 24.6407 24.23 24.6407 24.2537C24.6381 24.2715 24.6298 24.288 24.617 24.3007C24.6514 24.2952 24.6861 24.292 24.7209 24.2913C24.7625 24.3037 24.8052 24.3116 24.8485 24.315C24.8833 24.3142 24.918 24.311 24.9524 24.3053C24.9491 24.3288 24.9411 24.3513 24.929 24.3716C24.9168 24.392 24.9006 24.4096 24.8815 24.4235C24.9287 24.4235 24.9748 24.4329 24.9748 24.4705C24.9748 24.5082 24.9841 24.6217 24.9275 24.6454C24.8806 24.6583 24.8307 24.6549 24.7859 24.6357C24.7897 24.7251 24.814 24.8124 24.8569 24.8908C24.9502 25.0654 25.1493 25.2642 25.4169 25.2069C25.4169 25.2069 25.5581 25.5467 24.9636 26.3017C24.8836 26.4056 24.7984 26.5472 24.6948 26.6651C24.6539 26.7543 24.6226 26.8477 24.6015 26.9435C24.6015 26.9435 25.607 26.5565 25.8947 25.6739C26.1875 24.7866 26.2441 23.9136 26.1875 23.0973C26.1779 22.8658 26.1402 22.7009 26.0836 22.5827C25.942 22.2899 25.5454 22.3372 25.3851 22.5024C25.1537 22.7339 24.7667 23.3095 24.2287 23.7058C23.6812 24.1022 23.6579 24.1725 23.2375 24.3479H23.2388Z" fill="#D7BC6B"/>
<path fill-rule="evenodd" clip-rule="evenodd" d="M21.993 25.6224C21.993 25.6224 21.7948 25.7403 21.6909 26.1824C21.587 26.6354 21.7842 27.1876 21.8984 27.3621C22.0126 27.5367 22.2718 28.0136 22.8094 28.0372C22.9424 28.0365 23.074 28.0092 23.1964 27.957C23.3841 27.8709 23.5601 27.7615 23.7203 27.6312C23.9518 27.4567 24.1403 27.3058 24.1167 27.2915C24.0601 27.2679 22.6915 26.1351 22.6915 26.1351L22.1769 25.5608L21.9927 25.623L21.993 25.6224Z" fill="#585136"/>
<path fill-rule="evenodd" clip-rule="evenodd" d="M23.2869 27.5005C23.2869 27.5005 23.5653 27.4772 23.7305 27.3733C23.8957 27.2694 22.7629 26.1462 22.7629 26.1462L22.8432 27.3596L23.2869 27.5005Z" fill="#453A25"/>
<path fill-rule="evenodd" clip-rule="evenodd" d="M22.0823 25.5371C22.0823 25.5371 21.9407 25.8062 21.9407 25.8771C21.9171 26.1083 21.988 26.8351 22.0446 27.0662C22.1012 27.3117 22.408 27.6844 22.8047 27.6844C23.0498 27.6844 23.3898 27.5335 23.3898 27.4959C23.3898 27.4486 23.0405 27.4025 22.9462 27.2267C22.8896 27.1334 22.8659 26.9013 22.8529 26.6667C22.8435 26.5159 22.8435 26.3507 22.9002 26.2934C23.0277 26.1519 23.0511 25.7459 23.0511 25.7459L23.504 24.9043H22.9083L22.1955 25.3479L22.0823 25.5371Z" fill="#84754B"/>
<path fill-rule="evenodd" clip-rule="evenodd" d="M21.9084 25.7969C21.9084 25.7969 22.3751 25.1788 22.7957 25.0369C23.2163 24.895 23.4045 24.9803 23.4045 24.9803L23.1591 25.6081L22.8097 25.9951L22.8334 26.1933C22.8334 26.1933 22.7764 26.7172 23.1258 27.0806C23.4752 27.4439 23.7346 27.4299 23.8858 27.4299C24.037 27.4299 24.471 27.3024 24.6928 26.7785C24.891 26.2879 25.0562 25.6585 24.6598 25.0276C24.2725 24.3998 23.5884 24.3755 23.4562 24.3755C23.324 24.3755 22.2858 24.4274 21.9084 25.796V25.7969Z" fill="#252211"/>
<path fill-rule="evenodd" clip-rule="evenodd" d="M33.8907 27.8968C33.7161 27.8166 33.8813 27.3259 34.0559 27.1747C34.2304 27.0236 34.4522 26.8493 34.8396 26.8254C34.9808 26.816 35.1177 26.9056 35.0944 27.0002C35.0614 27.1747 34.8159 27.4202 34.5941 27.5947C34.2874 27.8355 34.0889 27.9864 33.8907 27.8968Z" fill="#F7F7E7"/>
<path fill-rule="evenodd" clip-rule="evenodd" d="M24.4518 25.221C24.5793 25.2117 24.7445 25.3144 24.7775 25.4525C24.8105 25.6034 24.6972 25.9055 24.4518 25.9055C24.2536 25.9055 24.1497 25.66 24.1497 25.5894C24.1519 25.5313 24.1681 25.4747 24.197 25.4242C24.2063 25.4099 24.2299 25.2447 24.4518 25.221Z" fill="#F8F6DE"/>
<path fill-rule="evenodd" clip-rule="evenodd" d="M22.6112 25.3298C22.6112 25.3298 22.2855 25.4807 22.1346 25.7965C22.0268 26.0297 21.9942 26.2906 22.0413 26.5431C22.0649 26.661 22.1828 26.9535 22.2631 27.0574C22.3433 27.1613 22.4519 27.2322 22.5322 27.2226C22.6125 27.2129 22.7773 27.0007 22.7773 26.8735C22.7773 26.7463 22.787 26.2081 22.9425 25.9153C23.0794 25.6229 22.6121 25.3301 22.6121 25.3301L22.6112 25.3298Z" fill="#D4C38B"/>
<path fill-rule="evenodd" clip-rule="evenodd" d="M22.6583 25.3059C22.6017 25.3389 22.5074 25.3862 22.5307 25.4475C22.5544 25.5041 22.7526 25.5408 22.8235 25.6789C22.9038 25.8205 22.9038 25.9713 22.8801 26.0423C22.9418 26.013 22.9977 25.9729 23.0453 25.924C23.1492 25.8061 23.2765 25.6459 23.3851 25.6459C23.456 25.6459 23.5266 25.6789 23.5929 25.6789C23.6968 25.6789 23.8004 25.6459 23.8147 25.5374C23.838 25.3958 23.6165 25.2683 23.489 25.2919C23.5126 25.1986 23.5456 25.0608 23.4417 24.9662C23.3378 24.8716 23.0123 25.0371 22.9414 25.0844C22.8705 25.1317 22.6583 25.3062 22.6583 25.3062V25.3059Z" fill="#E2D59D"/>
<path fill-rule="evenodd" clip-rule="evenodd" d="M30.1578 35.2216L30.8563 35.0154L31.0544 35.1569C31.0544 35.1569 31.1957 35.459 31.4178 35.4967C31.3469 35.6476 31.1627 35.7767 31.1724 35.8837C31.182 35.9907 31.2763 36.0725 31.2763 36.0725C31.2763 36.0725 30.6484 37.1107 31.8851 38.157C31.5924 38.2749 31.2196 38.437 31.0215 38.5303C31.1627 38.5633 31.4648 38.6237 31.5924 38.7381C31.7199 38.8526 31.7199 38.889 31.8378 38.96C31.9557 39.0309 32.0264 39.1252 32.003 39.1675C31.9228 39.1202 31.6536 38.9789 31.6067 39.1108C31.5597 39.2428 30.4409 39.1911 30.4409 39.1911L28.5531 39.5545C28.5531 39.5545 28.6237 39.3656 28.4256 39.1911C28.1944 38.9836 27.9113 39.2004 27.6092 38.9693C27.2128 38.6672 27.1985 38.3178 27.0713 38.1859C27.1985 38.1056 27.4583 37.9877 28.0765 37.9059C28.0528 37.8586 27.9726 37.7171 28.0199 37.5898C28.0765 37.4246 28.3123 37.3207 28.2417 37.1232C28.3456 37.0995 28.3926 37.0995 28.6524 36.7738C28.8978 36.448 29.0487 36.3774 29.2376 36.3538C29.4264 36.3301 29.5396 36.3538 29.889 36.028C30.1342 35.7969 30.0542 35.5987 30.0542 35.5987C30.0542 35.5987 30.2144 35.5468 30.1581 35.221L30.1578 35.2216Z" fill="#CBAC5A"/>
<path fill-rule="evenodd" clip-rule="evenodd" d="M28.0957 35.3268C28.105 35.2795 28.1429 35.2558 28.3977 35.2795C28.6526 35.3031 30.2666 35.1286 30.7056 35.105C31.1492 35.072 32.7113 35.0953 33.4714 35.2558C34.2314 35.4163 35.0005 35.6052 35.3732 35.6994C35.7466 35.8033 35.8642 35.8407 35.8499 35.8879C35.8405 35.9352 35.7565 35.9813 35.7083 35.9682C35.6613 35.9589 34.4246 35.5812 34.0426 35.5016C33.6606 35.4219 32.3386 35.2089 31.6159 35.2216C30.9411 35.2313 30.672 35.2123 30.1011 35.2782C29.5299 35.3492 28.586 35.4434 28.3029 35.4058C28.0229 35.3728 28.0807 35.3728 28.095 35.3255L28.0957 35.3268Z" fill="#D6BC6F"/>
<path fill-rule="evenodd" clip-rule="evenodd" d="M31.8942 39.0258C31.8942 39.0258 32.8617 39.5497 33.2111 40.1915C33.4659 40.6681 33.0602 40.9042 33.0602 40.9042C33.0602 40.9042 33.6078 40.9042 33.5368 41.2063C33.5038 41.3948 32.5929 41.9044 31.9841 42.1735C31.3659 42.4426 31.3896 42.4286 31.0875 42.4756C30.7947 42.5229 29.9924 42.3823 29.8272 42.6172C29.662 42.8521 29.7338 43.0941 29.7799 43.1317C29.8272 43.1647 30.2095 43.212 30.2095 43.212C30.2095 43.212 30.1292 43.4338 29.3365 43.4575C28.5438 43.4811 28.3453 43.5374 28.2981 43.6227C28.2508 43.7026 28.4489 43.6556 28.8126 43.716C29.176 43.7726 29.6856 43.8093 29.6856 43.8093C29.6856 43.8093 29.5204 43.9509 29.0911 44.0641C28.6001 44.1914 27.8308 44.3096 27.5996 44.4511C27.7175 44.5314 27.8924 44.6493 27.9729 44.6586C27.7748 44.7059 27.496 44.8098 27.449 44.8475C27.5197 44.8948 27.6142 44.9514 27.6142 44.9514C27.6142 44.9514 27.2176 45.428 26.9864 45.5462C26.7553 45.6645 25.4243 46.2823 24.9664 46.1644C23.8243 45.8623 23.6827 44.6117 23.4043 44.5174C22.9843 44.3759 22.7861 44.6586 22.4131 44.4605C22.5783 44.3426 22.6682 44.2719 22.8428 44.1917C22.6539 44.0983 21.677 43.4789 21.677 43.4789C21.5749 43.2563 21.4615 43.0389 21.3373 42.8278C21.1485 42.5021 20.8706 42.0678 20.6622 41.6854C20.2092 40.8454 20.1856 40.4584 19.7749 39.9818C19.8458 39.8885 20.091 39.9015 20.091 39.9015L23.5319 41.0343L29.633 41.211L31.2197 38.9458L31.8945 39.0261L31.8942 39.0258Z" fill="#DFC677"/>
<path fill-rule="evenodd" clip-rule="evenodd" d="M22.8569 42.4803C22.8938 42.5213 22.9367 42.5563 22.9842 42.5842C23.1024 42.6645 23.2769 42.759 23.3948 42.9003C23.4421 42.8297 23.56 42.7021 23.7682 42.9003C23.9763 43.0985 24.2348 42.9572 24.3957 43.0042C24.5609 43.0611 24.5702 43.0845 24.5702 43.0845C24.5702 43.0845 24.6636 43.0042 24.8723 42.9193C24.9999 42.872 25.1508 42.839 25.316 42.792C25.4668 42.759 25.632 42.7117 25.7456 42.7117C25.8495 42.7824 26.2222 43.1784 27.7184 42.5938C29.1296 42.0463 29.455 41.985 29.6911 42.0696C29.7148 42.013 29.7384 41.9044 30.1018 41.9187C30.1018 41.7678 29.7997 41.2533 29.7997 41.2533L28.1337 40.6824H27.2224L24.49 41.1826L22.9758 42.0466L22.8579 42.4821L22.8569 42.4803Z" fill="#C4A859"/>
<path fill-rule="evenodd" clip-rule="evenodd" d="M21.9458 41.5222C21.9458 41.5222 21.9788 41.777 22.3565 42.0461C22.7298 42.3149 22.8471 42.4755 22.8471 42.4755C22.8471 42.4755 22.918 42.3821 22.9746 42.2869C23.0313 42.183 23.0786 42.0651 23.1728 42.0321C23.3617 41.9519 23.791 42.1028 23.8856 42.0791C23.9658 42.0558 23.9422 41.8906 24.0271 41.8906C24.2253 41.8809 24.3526 42.0178 24.4235 42.0178C24.4944 42.0178 24.6686 42.0085 24.6923 41.9708C24.7159 41.9332 24.7253 41.5412 24.9944 41.3524C25.2871 41.1448 25.6458 41.2345 25.741 41.2817C25.741 41.3524 25.7504 41.5272 25.9392 41.5365C26.1281 41.5459 26.1467 41.5129 26.3126 41.5695C26.4784 41.6261 26.6759 41.5602 26.7655 41.8383C26.8458 41.815 27.0346 41.7913 26.9874 41.5222C27.0807 41.4516 27.1622 41.4043 27.3607 41.1259C27.408 41.0553 27.4879 40.975 27.5495 40.8711C27.7147 40.8711 27.9129 40.8381 28.177 41.0693C28.0968 41.1259 28.0495 41.1626 28.0262 41.2201C28.0952 41.2885 28.1583 41.3628 28.2147 41.442C28.2856 41.5353 28.3329 41.6498 28.4225 41.6734C28.6207 41.7301 28.9464 41.6498 29.3098 41.6734C29.6592 41.6971 29.9516 41.8243 30.0792 41.9046C30.1265 41.8812 30.1265 41.8716 30.2444 41.8953C30.3623 41.9189 30.4519 41.9282 30.3246 41.7773C30.3953 41.8103 30.4755 41.8813 30.5465 41.8103C30.6174 41.7394 30.6737 41.6358 30.8719 41.6121C31.0701 41.5885 31.141 41.6215 31.2213 41.414C31.3252 41.1592 30.9665 41.1592 30.9665 41.1592C30.9665 41.1592 31.1317 41.008 31.3158 40.8098C31.5377 40.6023 31.7925 40.3332 31.8538 40.0028C31.9577 39.3939 31.3631 39.314 31.3631 39.314L28.4794 40.2013L24.9539 40.0264L21.9477 41.5225L21.9458 41.5222Z" fill="#927D49"/>
<path fill-rule="evenodd" clip-rule="evenodd" d="M19.3547 33.1925C19.3547 33.1925 19.2614 33.3104 19.2038 33.5888C19.1463 33.8673 19.1709 33.8343 19.1236 34.0325C19.0763 34.2307 18.4954 36.2035 18.7132 36.8689C18.931 37.5344 19.3081 37.7799 19.5439 38.3178C19.5912 38.4357 19.6372 38.5067 19.6618 38.6106C19.7421 38.9597 19.6714 39.2288 19.7657 39.5782C19.7987 39.6961 19.8839 39.833 20.0112 39.9745C20.2912 40.267 20.7476 40.5454 20.9445 40.7436C21.2226 41.0364 21.6193 41.6312 22.1242 41.6875C22.3933 41.7205 22.7757 41.6073 23.0918 41.4187C23.3718 41.2439 23.5448 40.9987 23.8384 40.8587C24.0459 40.7548 24.2678 40.7172 24.4659 40.6699C24.8766 40.5896 25.2496 40.5765 25.4715 40.6226C25.8112 40.6935 26.6135 40.939 27.0581 40.939C27.4055 40.9334 27.751 40.8859 28.087 40.7974C28.7617 40.5993 29.5781 40.2592 30.1163 40.1083C30.4324 40.015 30.6872 39.9904 30.947 39.9338C31.3906 39.8299 31.7633 39.6883 31.9758 39.4192C31.8343 39.254 31.6597 38.9992 30.7155 39.0085C29.6444 39.0321 28.4077 39.6267 27.7989 39.7213C27.19 39.8159 26.9259 39.8958 26.2461 39.6503C25.5797 39.4024 25.5576 39.2384 25.5576 39.2384C25.5576 39.2384 24.8579 38.749 24.5652 37.5014C24.2724 36.2539 24.5652 35.3448 25.3252 34.4808C25.5234 34.259 25.4761 34.0608 25.4761 34.0608C25.4761 34.0608 25.9764 33.386 25.8395 32.7541C25.6886 32.1263 24.7211 32.2538 24.7211 32.2538L19.355 33.1925H19.3547Z" fill="#6E6342"/>
<path fill-rule="evenodd" clip-rule="evenodd" d="M20.1615 35.2925C20.1199 35.3707 20.1003 35.4588 20.1049 35.5473C20.1142 35.6745 20.1522 35.8397 20.5342 36.2127C20.86 36.5381 20.789 36.9015 20.789 36.9015C20.789 36.9015 20.953 36.9345 21.3979 36.7263C21.7472 36.5612 21.8645 36.8539 21.8645 36.8539C21.9662 36.8006 22.0765 36.7654 22.1903 36.75C22.2934 36.7405 22.3932 36.7086 22.4827 36.6567C22.4827 36.6567 22.8934 37.0766 23.2521 37.2748C23.5778 37.4497 23.7667 37.5676 23.9272 37.4497C24.0781 37.3457 24.0781 37.1333 24.0684 37.039C24.031 36.952 23.9836 36.8696 23.9272 36.7935C23.8233 36.6427 23.6581 36.4678 23.6472 36.3269C23.6235 36.0015 23.8927 35.6142 23.8357 35.5199C23.7788 35.4256 23.5669 35.402 23.043 35.5908C22.5004 35.77 20.1593 35.2934 20.1593 35.2934L20.1615 35.2925Z" fill="#39331F"/>
<path fill-rule="evenodd" clip-rule="evenodd" d="M21.3979 37.4025C21.3979 37.4025 21.1292 37.1477 21.2234 35.9111C21.3375 35.9094 21.4514 35.9205 21.563 35.944C21.563 35.944 21.7095 36.9022 21.3979 37.4025Z" fill="#292311"/>
<path fill-rule="evenodd" clip-rule="evenodd" d="M19.482 32.2483C19.5195 32.2205 19.5543 32.1893 19.586 32.155C19.4926 32.3295 19.0617 33.0279 19.4111 34.1277C19.7605 35.2225 20.6381 36.0388 21.7189 36.0768C22.7997 36.1147 23.3678 35.5858 24.0174 34.7931C24.2722 34.4771 24.565 34.0804 24.8244 33.8116C25.2115 33.3913 25.5136 33.2734 25.5136 32.8677C25.5136 32.037 24.6639 31.664 23.4132 31.2913C22.1626 30.9186 21.0345 30.9647 20.4493 31.2198C19.8784 31.4979 19.6329 31.7907 19.4817 32.2486L19.482 32.2483Z" fill="#252211"/>
<path fill-rule="evenodd" clip-rule="evenodd" d="M23.4982 37.7751L23.5916 37.7279C23.5916 37.7279 23.6149 37.3545 23.7661 37.3645C23.917 37.3881 23.9879 37.5866 23.9736 37.6572C23.9642 37.7279 23.9266 37.8461 23.7754 37.8318C23.5773 37.8364 23.4973 37.7751 23.4973 37.7751H23.4982Z" fill="#3F3824"/>
<path fill-rule="evenodd" clip-rule="evenodd" d="M23.0784 36.1893C23.0784 36.1893 23.1717 36.1563 23.2859 36.2695C23.3792 36.2695 23.7861 36.2223 23.9137 36.3025C24.0413 36.3828 24.0789 36.4534 24.0789 36.4534C24.0789 36.4534 23.6023 36.5573 23.3425 36.4534C23.0784 36.3638 23.0784 36.1893 23.0784 36.1893Z" fill="#2D2815"/>
<path fill-rule="evenodd" clip-rule="evenodd" d="M25.1785 36.2599C25.1785 36.2363 24.9237 36.0618 24.6547 36.0048C24.6074 35.9955 24.5977 36.0285 24.5613 36.0285C24.5377 36.0192 24.5284 35.9482 24.5284 35.9482L24.3753 36.0288C24.3753 36.0288 24.3517 36.0618 24.4319 36.1221C24.5025 36.1787 24.6208 36.226 24.6537 36.3202C24.6867 36.4145 24.6867 36.4474 24.701 36.4618C24.7103 36.4711 24.8755 36.4618 24.9558 36.4145C25.036 36.3672 25.1872 36.2901 25.1776 36.259L25.1785 36.2599Z" fill="#82764F"/>
<path fill-rule="evenodd" clip-rule="evenodd" d="M22.7957 37.2182C22.7957 37.2182 22.8426 36.8928 23.159 36.8785C23.4845 36.8548 23.5461 37.1709 23.5461 37.1709L23.3572 37.3598C23.3572 37.3551 23.2157 37.1569 22.7972 37.2182H22.7957Z" fill="#2D2816"/>
<path fill-rule="evenodd" clip-rule="evenodd" d="M24.8486 35.8163C24.8486 35.8163 24.6738 36.0052 24.2871 36.0618C24.2541 36.0145 24.1832 35.9202 24.2871 35.7693C24.391 35.6183 24.5089 35.571 24.6268 35.618C24.6788 35.6264 24.7274 35.6496 24.7667 35.6847C24.806 35.7198 24.8344 35.7655 24.8486 35.8163Z" fill="#574F35"/>
<path fill-rule="evenodd" clip-rule="evenodd" d="M25.5609 36.0478C25.5706 36.0005 25.5376 35.9911 25.5609 35.9675C25.5842 35.9439 25.7121 35.8969 25.7358 35.9202C25.7451 35.9299 25.7358 35.9675 25.7358 36.0135C25.7358 36.0596 25.7358 36.1069 25.7121 36.1408C25.6791 36.188 25.5849 36.2117 25.5376 36.1977C25.4903 36.1837 25.481 36.1174 25.481 36.1044C25.5043 36.095 25.5609 36.0714 25.5609 36.0478ZM26.3667 35.5382C26.3667 35.5146 26.447 35.4673 26.4942 35.4673C26.5649 35.4673 26.5649 35.5239 26.5745 35.5382C26.5978 35.5475 26.5978 35.5286 26.6215 35.5712C26.6451 35.6138 26.6784 35.6891 26.6545 35.7364C26.6305 35.7836 26.5366 35.8163 26.5132 35.807C26.4802 35.7833 26.3763 35.5712 26.3667 35.5382Z" fill="#82764F"/>
<path fill-rule="evenodd" clip-rule="evenodd" d="M24.7441 36.1563C24.7441 36.1563 24.8481 36.1797 24.9896 36.2979C24.9423 36.3308 24.8714 36.3685 24.8714 36.3685C24.8714 36.3685 24.8621 36.2599 24.7441 36.156V36.1563Z" fill="#6E6342"/>
<path fill-rule="evenodd" clip-rule="evenodd" d="M24.5133 35.118C24.4896 35.0946 24.5839 35.038 24.6405 35.0473C24.6971 35.0567 24.7208 35.0946 24.7821 35.104C24.8434 35.1133 24.853 35.0803 24.8754 35.0567C24.8978 35.033 24.9793 35.0473 24.9933 35.0567C25.002 35.0671 25.0099 35.0781 25.017 35.0897C25.0179 35.0717 25.0226 35.0542 25.0307 35.0381C25.0388 35.022 25.0501 35.0078 25.0639 34.9963C25.082 34.983 25.1029 34.974 25.125 34.9699C25.1471 34.9658 25.1698 34.9667 25.1915 34.9727C25.2008 35.0057 25.2481 35.1236 25.2388 35.1472C25.2295 35.1709 25.0879 35.2042 25.0639 35.1802C25.0876 35.2371 25.1915 35.3551 25.2055 35.3784C25.2195 35.4017 25.1016 35.4587 25.0546 35.4493C24.9886 35.4447 24.5826 35.2085 24.512 35.1189L24.5133 35.118ZM25.1315 34.3345C25.1227 34.3108 25.106 34.2907 25.0842 34.2779C25.0512 34.2686 24.9426 34.2779 24.9426 34.3345C24.9426 34.3912 25.0359 34.7079 25.1408 34.8728C25.259 35.038 25.339 35.1746 25.4192 35.2126C25.4444 35.224 25.4731 35.2255 25.4993 35.2168C25.5256 35.208 25.5476 35.1896 25.5608 35.1653C25.5701 35.1416 25.5938 34.9671 25.5844 34.5564C25.5751 34.1457 25.5608 33.7493 25.5372 33.7256C25.5135 33.702 25.4192 33.7023 25.3863 33.7493C25.3533 33.7963 25.1408 34.2639 25.1311 34.3345H25.1315Z" fill="#585136"/>
<path fill-rule="evenodd" clip-rule="evenodd" d="M24.7114 36.7511C24.7114 36.7511 24.5462 36.6472 24.3856 36.7181C24.2347 36.789 24.244 37.0674 24.244 37.0674C24.278 37.0807 24.3146 37.0855 24.3509 37.0813C24.3871 37.0772 24.4218 37.0643 24.4519 37.0437C24.5558 36.9731 24.6877 36.8553 24.7114 36.7514V36.7511Z" fill="#574F35"/>
<path fill-rule="evenodd" clip-rule="evenodd" d="M25.0228 37.1238C25.0134 37.0305 24.9294 37.0305 24.9294 36.9823C24.9352 36.9592 24.9486 36.9388 24.9674 36.9242C24.9862 36.9097 25.0093 36.9018 25.033 36.902C25.0803 36.902 25.1264 36.9586 25.1842 36.9953C25.2409 37.0283 25.3258 37.0887 25.3351 37.1605C25.3445 37.2324 25.2418 37.4294 25.1276 37.4294C25.0134 37.4294 25.0474 37.2169 25.0237 37.1226L25.0228 37.1238ZM25.9337 36.9963C25.9337 36.9963 25.7449 37.0529 25.7589 36.9963C25.7729 36.9396 25.8158 36.9256 25.8771 36.9256C25.9082 36.893 25.9501 36.8728 25.995 36.8687C26.0207 36.8674 26.0459 36.8759 26.0656 36.8924C26.0656 36.8924 26.1932 36.8357 26.2308 36.8687C26.2685 36.9017 26.2405 36.9017 26.2638 36.9396C26.2935 36.9818 26.313 37.0302 26.3207 37.0812C26.3207 37.1188 26.1792 37.1991 26.0656 37.1851C25.9337 37.1568 25.957 37.0199 25.9337 36.9963ZM27.0332 36.7838C27.0332 36.7838 27.0898 36.8167 27.0428 36.8547C27.0098 36.8877 26.8446 36.948 26.7028 36.9586C26.5612 36.9586 26.434 36.982 26.434 36.935C26.434 36.888 26.5519 36.7934 26.6225 36.7698C26.6367 36.752 26.6547 36.7377 26.6751 36.7279C26.6956 36.7181 26.718 36.7131 26.7407 36.7131C26.7974 36.7131 27.0189 36.6895 27.0805 36.6802C27.1371 36.6705 27.1844 36.7035 27.1511 36.7508C27.1371 36.7838 27.0332 36.7838 27.0332 36.7838ZM27.3589 35.3265C27.3589 35.3265 27.288 35.4774 27.208 35.4774C27.1278 35.468 27.1278 35.4444 27.1278 35.4207C27.1278 35.3878 27.208 35.3028 27.1984 35.2792C27.175 35.2792 27.1181 35.2792 27.1278 35.2226C27.1278 35.1753 27.208 35.1186 27.2786 35.1292C27.332 35.0854 27.3984 35.0605 27.4675 35.0586C27.5478 35.0586 27.6184 35.0819 27.6184 35.1292C27.6184 35.1765 27.525 35.2801 27.4908 35.3041C27.4532 35.3417 27.4059 35.3663 27.3589 35.3274V35.3265ZM26.2828 38.1157C26.2828 38.1157 26.1894 38.1253 26.1894 38.1723C26.1894 38.196 26.2128 38.196 26.2461 38.182C26.2652 38.1809 26.2842 38.1776 26.3027 38.1723C26.312 38.182 26.312 38.2289 26.383 38.2289C26.4412 38.2211 26.4973 38.2018 26.5482 38.1723C26.6048 38.149 26.6521 38.125 26.6521 38.079C26.6284 37.9987 26.5811 37.9607 26.5105 37.9607C26.4743 37.9585 26.4382 37.9667 26.4066 37.9844C26.4066 37.9844 26.383 37.9371 26.3027 37.9844C26.2224 38.0317 26.2318 38.0317 26.2554 38.0553C26.2977 38.093 26.2837 38.1176 26.2837 38.1176L26.2828 38.1157ZM25.7495 38.6066C25.7495 38.583 25.8674 38.5357 25.9004 38.55C25.9334 38.5593 26.0277 38.7386 26.0277 38.7575C26.0277 38.7812 25.9098 38.8378 25.8625 38.8378C25.8152 38.8378 25.7352 38.7575 25.7352 38.7445C25.7352 38.7351 25.7918 38.7211 25.7918 38.7115C25.8058 38.6882 25.7495 38.6312 25.7495 38.6076V38.6066ZM25.3762 37.9175C25.3998 37.9082 25.3998 37.8845 25.4328 37.8609C25.4431 37.854 25.4549 37.8496 25.4672 37.848C25.4795 37.8464 25.492 37.8476 25.5038 37.8515C25.5121 37.8367 25.5236 37.8239 25.5375 37.814C25.5514 37.8042 25.5673 37.7976 25.584 37.7946C25.6406 37.7853 25.6879 37.7946 25.6774 37.8183C25.6774 37.8892 25.7246 37.9362 25.7246 37.9928C25.7246 38.0494 25.6917 38.1204 25.5738 38.1676C25.4558 38.2006 25.2953 38.2006 25.2717 38.1913C25.248 38.182 25.2244 38.0874 25.248 38.0401C25.2717 37.9928 25.3376 37.9411 25.3756 37.9175H25.3762Z" fill="#82764F"/>
<path fill-rule="evenodd" clip-rule="evenodd" d="M25.5268 37.9495C25.5268 37.9495 25.4465 37.9967 25.4465 38.0204C25.4394 38.0432 25.4362 38.0671 25.4372 38.091C25.4372 38.105 25.5411 38.0816 25.5552 38.0673C25.5598 38.058 25.5268 37.974 25.5268 37.9495Z" fill="#6E6342"/>
<path fill-rule="evenodd" clip-rule="evenodd" d="M24.8243 37.7278C24.8712 37.7374 24.9515 37.7278 25.0128 37.7514C25.0601 37.7751 25.093 37.8223 25.0458 37.8789C24.9985 37.9355 24.9524 38.0205 24.8476 38.0061C24.7297 37.9968 24.6165 37.9355 24.6165 37.8883C24.6145 37.8584 24.6185 37.8284 24.6282 37.8C24.6379 37.7717 24.6532 37.7455 24.6731 37.7231C24.7204 37.6855 24.7437 37.7091 24.824 37.7278H24.8243Z" fill="#585136"/>
<path fill-rule="evenodd" clip-rule="evenodd" d="M24.7679 37.7751C24.7679 37.7751 24.617 37.8931 24.579 37.95C24.5317 38.0066 24.3006 38.2991 24.23 38.3603C24.2534 38.319 24.2801 38.2795 24.3099 38.2424C24.2166 38.3021 24.1466 38.3921 24.1117 38.4972C24.0551 38.6721 24.4281 38.7663 24.6733 38.8373C24.9185 38.9082 25.0134 38.9306 25.0134 38.9306C24.9231 38.795 24.8456 38.6512 24.7819 38.5013C24.6885 38.2795 24.6403 38.2558 24.7016 38.1519C24.7489 38.048 24.8198 37.9774 24.8198 37.8971C24.7915 37.8224 24.7679 37.7751 24.7679 37.7751Z" fill="#574F35"/>
<path fill-rule="evenodd" clip-rule="evenodd" d="M19.3876 38.1479C19.4219 38.1543 19.4571 38.1543 19.4915 38.1479C19.5621 38.1383 20.2985 37.8679 21.0679 37.9165C21.6438 37.9513 22.2147 38.0451 22.7715 38.1965C23.7391 38.4513 24.9424 38.9563 25.7211 39.2444C25.9287 39.3243 26.1318 39.4662 26.2811 39.5225C26.876 39.754 26.8993 39.754 27.2487 39.8153C27.6594 39.8719 28.0794 39.735 28.5183 39.6407C29.0562 39.5225 29.9765 39.4659 30.7835 39.348C31.0445 39.3118 31.3019 39.2534 31.5529 39.1734C31.5529 39.1734 30.9111 39.8153 29.3723 40.0464C28.7504 40.1409 28.1183 40.1488 27.4942 40.0701C27.0032 40.0228 26.6778 39.9519 26.4323 39.8812C26.1539 39.801 25.5827 39.5885 24.8796 39.4145C24.3887 39.287 23.8411 39.1927 23.2136 39.0748C21.6655 38.7914 19.9855 38.4659 19.387 38.1498L19.3876 38.1479Z" fill="#252211"/>
<path fill-rule="evenodd" clip-rule="evenodd" d="M17.6507 35.2314C17.2774 35.5475 16.8813 35.8496 16.4946 36.1421L15.3289 37.0378C14.9326 37.3302 14.5455 37.6323 14.1489 37.925C13.7522 38.2178 13.3562 38.4959 12.9355 38.765C13.3089 38.449 13.7049 38.1562 14.1013 37.8684C14.4976 37.5806 14.9086 37.2985 15.291 37.0066L16.4567 36.1097C16.8577 35.8173 17.2447 35.5152 17.6507 35.2321V35.2314ZM15.5884 38.5351C15.5884 38.5351 16.0084 38.1858 16.5323 37.6951C17.1834 37.0866 17.9811 36.3076 18.2359 36.1663L15.5881 38.5354L15.5884 38.5351Z" fill="#CFB66C"/>
<path fill-rule="evenodd" clip-rule="evenodd" d="M15.5884 38.5348C15.7962 38.3272 16.018 38.1244 16.2398 37.9259L16.5796 37.6335C16.6835 37.5401 16.8017 37.4353 16.9053 37.3314C17.1128 37.1239 17.316 36.9017 17.5235 36.6896C17.6263 36.5829 17.7351 36.482 17.8492 36.3875C17.9063 36.337 17.9697 36.2941 18.0378 36.2599C18.0947 36.2269 18.156 36.1666 18.2359 36.156C18.189 36.2269 18.1323 36.2599 18.085 36.3212C18.0284 36.3685 17.9811 36.4251 17.9342 36.4721C17.8302 36.576 17.7123 36.6703 17.6084 36.7648C17.3866 36.9537 17.1554 37.1382 16.9336 37.3357C16.7118 37.5333 16.5043 37.7464 16.2822 37.9446C16.0417 38.1477 15.8198 38.3459 15.5884 38.5357V38.5348ZM18.4108 36.6469C18.4108 36.6469 16.8723 38.1527 16.5559 38.3979L18.4108 36.6469Z" fill="#CFB66C"/>
<path fill-rule="evenodd" clip-rule="evenodd" d="M18.411 36.647C18.2726 36.8072 18.1242 36.9585 17.9667 37.1L17.5001 37.5436C17.3492 37.6945 17.2073 37.8457 17.0471 37.9966C16.8819 38.1381 16.731 38.2766 16.5562 38.4072L17.0091 37.9636C17.1603 37.8127 17.3255 37.6855 17.4861 37.5343L17.939 37.0906C18.0946 36.9351 18.2458 36.7839 18.411 36.647ZM18.4816 37.4633C18.3398 37.8591 18.1727 38.2454 17.9814 38.6197C17.585 39.4128 16.9905 40.4036 16.7307 40.9089L18.4816 37.4633Z" fill="#CFB66C"/>
<path fill-rule="evenodd" clip-rule="evenodd" d="M18.4814 37.4636C18.4814 37.6382 18.4341 37.7894 18.3775 37.9402C18.3223 38.0913 18.2593 38.2393 18.1889 38.3839C18.118 38.5254 18.0377 38.6766 17.9575 38.8135C17.8772 38.9504 17.7829 39.0917 17.712 39.2335L17.2354 40.0735C17.0702 40.3535 16.9096 40.6351 16.7351 40.9042C16.853 40.6021 17.0136 40.319 17.1648 40.0406C17.33 39.7606 17.4808 39.4806 17.6314 39.1909C17.7049 39.0466 17.7711 38.8986 17.8296 38.7476C17.9002 38.5964 17.9708 38.4548 18.0278 38.3179C18.0984 38.167 18.155 38.0252 18.226 37.8886C18.3059 37.7421 18.3722 37.6005 18.4808 37.4636H18.4814Z" fill="#CFB66C"/>
<path fill-rule="evenodd" clip-rule="evenodd" d="M20.1616 41.3335C20.1616 41.3335 19.6949 41.9517 19.7416 42.7351C19.8688 42.3247 20.0293 41.6969 20.1616 41.3335ZM20.6052 41.9532C20.6052 41.9532 20.44 43.6332 20.3031 44.4592C20.4966 43.5044 20.5343 43.5847 20.6052 41.9532ZM23.6963 44.5585C23.6963 44.5585 22.9979 46.6118 22.9836 47.1824C23.1348 46.5956 23.4272 45.3969 23.6963 44.5569V44.5585Z" fill="#DEC270"/>
<path fill-rule="evenodd" clip-rule="evenodd" d="M25.3298 41.2065C25.3298 41.2065 26.4626 43.0754 27.3122 44.6705C27.0823 43.8678 26.5534 42.3956 25.3298 41.2065Z" fill="#CBAF59"/>
<path fill-rule="evenodd" clip-rule="evenodd" d="M28.374 43.9578C28.996 45.0571 29.5568 46.1899 30.054 47.351C29.9598 46.5487 29.7046 45.1755 28.374 43.9578Z" fill="#E3C677"/>
<path fill-rule="evenodd" clip-rule="evenodd" d="M37.3217 46.713C37.5103 46.5951 37.8833 45.953 38.209 45.7928C38.5344 45.6276 38.7799 45.5946 39.0727 45.2688C39.3651 44.9288 39.446 44.7213 40.0872 44.4525C40.9841 44.0652 40.3672 43.5649 40.3672 43.5649C40.466 43.4679 40.5716 43.378 40.6833 43.2961C40.9147 43.1216 41.1835 42.9091 41.1602 42.5361C41.1272 41.9085 41.0093 40.9976 40.4947 40.469C40.995 40.3651 41.9529 40.2945 42.5481 40.1436C43.2368 39.9688 43.5532 39.7233 43.5532 39.7233C43.5532 39.7233 43.1569 39.0485 43.7987 38.369C44.4405 37.6896 44.9644 37.2836 45.3515 36.5235C44.9078 36.4669 44.2315 36.2311 42.5054 36.8869C42.5986 36.9307 42.6885 36.9812 42.7745 37.0378C42.7745 37.0378 41.7127 37.3305 41.3257 37.6563C40.6506 38.2272 40.5657 38.6945 39.8342 39.0438C39.1028 39.3932 38.3664 39.2986 37.7579 39.5817C37.1494 39.8649 37.0595 40.1056 36.8373 40.2096C36.8846 40.2662 36.828 40.3605 36.9176 40.4407C36.861 40.521 36.5306 41.0589 36.1955 41.0589C36.2285 41.1865 36.5116 41.2807 36.5116 41.2807C36.5116 41.2807 36.3041 41.4319 35.7755 41.4696C36.0443 41.7496 36.2994 42.0548 37.0025 42.4984C36.9459 42.6163 36.7098 42.7912 36.8044 43.013C36.9083 43.2348 37.1777 43.5369 38.2532 43.7824C37.7056 43.8057 37.0641 43.9333 36.1999 43.8153C35.3362 43.7114 35.1947 43.6501 34.6614 43.7824C34.7181 43.839 34.8689 43.839 35.0012 43.9899C34.8596 43.9992 33.9723 43.886 33.6702 44.2826C33.3542 44.693 33.2173 45.3681 33.2409 45.8211C33.0757 45.9013 32.9152 46.0429 32.9954 46.3357C33.0757 46.6284 33.4957 46.7227 33.7648 46.9065C34.0336 47.1047 34.0573 47.1753 34.3124 47.1284C34.5812 47.0717 34.9775 46.8029 35.209 46.8029C35.4404 46.8029 35.6053 46.9775 35.6053 46.9775C35.6053 46.9775 36.2332 46.6754 36.2944 46.732C36.3511 46.7886 36.3038 47.152 36.3651 47.2086C36.4273 47.2513 37.1344 46.8313 37.3233 46.713H37.3217Z" fill="#ECD592"/>
<path fill-rule="evenodd" clip-rule="evenodd" d="M51.042 27.8265C48.0924 20.2093 40.8006 18.7981 40.8006 18.7981H19.9969L20.0772 26.5569H24.2202V43.8824H19.9966V51.6272H40.2247C45.0998 51.6272 49.0077 46.7281 49.0077 46.7281C55.2657 37.8462 51.0417 27.8265 51.0417 27.8265H51.042ZM40.3333 41.5083C40.3333 41.5083 38.7466 43.7974 37.0203 43.7974H33.5669L33.4851 26.5759H37.9169C37.9169 26.5759 39.9702 27.0052 41.4048 31.0686C41.4048 31.0686 43.3066 36.8864 40.3333 41.5083Z" fill="white" fill-opacity="0.8"/>
</svg>
