<svg width="48" height="48" viewBox="0 0 48 48" fill="none" xmlns="http://www.w3.org/2000/svg">
<path fill-rule="evenodd" clip-rule="evenodd" d="M19.4066 12C19.4066 9.46297 21.4633 7.40628 24.0003 7.40628C26.5374 7.40628 28.5941 9.46297 28.5941 12V12.5938H19.4066V12ZM16.5941 15.4063V18C16.5941 18.7767 17.2237 19.4063 18.0003 19.4063C18.777 19.4063 19.4066 18.7767 19.4066 18V15.4063H28.5941V18C28.5941 18.7767 29.2237 19.4063 30.0003 19.4063C30.777 19.4063 31.4066 18.7767 31.4066 18V15.4063H34.6978L36.4814 38.5938H11.5186L13.3022 15.4063H16.5941ZM16.5941 12.5938V12C16.5941 7.90967 19.91 4.59378 24.0003 4.59378C28.0907 4.59378 31.4066 7.90967 31.4066 12V12.5938H36C36.7348 12.5938 37.3458 13.1595 37.4021 13.8922L39.4021 39.8922C39.4321 40.2827 39.2979 40.6681 39.0318 40.9555C38.7657 41.2429 38.3917 41.4063 38 41.4063H10C9.6083 41.4063 9.23435 41.2429 8.96821 40.9555C8.70207 40.6681 8.56785 40.2827 8.5979 39.8922L10.5979 13.8922C10.6543 13.1595 11.2652 12.5938 12 12.5938H16.5941Z" fill="#FFCE00"/>
</svg>
