<svg width="14" height="14" viewBox="0 0 14 14" fill="none" xmlns="http://www.w3.org/2000/svg">
<path d="M2.64625 14C2.62231 14 2.59836 13.9976 2.54807 13.9756C2.22956 13.8241 2.1625 13.6068 2.1625 13.5066V10.8786H1.1519C0.366404 10.8786 0 10.5024 0 9.6769V1.20167C0 0.376134 0.342456 0 1.1519 0H12.8481C13.6336 0 14 0.376134 14 1.20167V9.65492C14 10.4805 13.6575 10.8566 12.8481 10.8566H5.41943L2.81868 13.9243C2.77557 13.9682 2.72049 14 2.64625 14ZM1.08005 0.891486C0.941156 0.891486 0.89805 0.925681 0.89805 1.10398V9.65492C0.89805 9.82833 1.08484 9.98953 1.31954 9.98953H2.6726C2.81868 9.98953 2.91687 10.0897 2.91687 10.2387V12.515L5.14882 10.0408C5.19672 9.99197 5.27096 9.96511 5.32125 9.96511H12.9702C13.0828 9.96511 13.1522 9.93824 13.1522 9.75262V1.10398C13.1522 0.940335 13.0469 0.891486 12.9702 0.891486H1.08005Z" fill="#242424"/>
<path d="M2.87349 4.11787H11.1236C11.387 4.11787 11.6025 3.89805 11.6025 3.62939C11.6025 3.36072 11.387 3.1409 11.1236 3.1409H2.87349C2.61006 3.1409 2.39453 3.36072 2.39453 3.62939C2.39453 3.89805 2.61006 4.11787 2.87349 4.11787Z" fill="#242424"/>
<path d="M11.126 6.38937H2.87349C2.61006 6.38937 2.39453 6.60919 2.39453 6.87786C2.39453 7.14653 2.61006 7.36634 2.87349 7.36634H11.1236C11.387 7.36634 11.6025 7.14653 11.6025 6.87786C11.6025 6.60919 11.3894 6.38937 11.126 6.38937Z" fill="#242424"/>
</svg>
