<svg width="70" height="70" viewBox="0 0 70 70" fill="none" xmlns="http://www.w3.org/2000/svg">
<path d="M59.7487 10.2513C53.1381 3.64055 44.3488 0 35 0C25.6512 0 16.8619 3.64055 10.2513 10.2513C3.64068 16.8619 0 25.6512 0 35C0 44.3488 3.64068 53.1381 10.2513 59.7487C16.8619 66.3595 25.6512 70 35 70C44.3488 70 53.1381 66.3595 59.7487 59.7487C66.3593 53.1381 70 44.3488 70 35C70 25.6512 66.3593 16.8619 59.7487 10.2513ZM58.1988 58.1987C52.0021 64.3952 43.7633 67.808 35 67.808C26.2367 67.808 17.9979 64.3952 11.8012 58.1987C5.60465 52.0021 2.19201 43.7633 2.19201 35C2.19201 26.2367 5.60465 17.9979 11.8012 11.8013C17.9979 5.60478 26.2367 2.19201 35 2.19201C43.7633 2.19201 52.0021 5.60478 58.1988 11.8013C64.3954 17.9978 67.808 26.2366 67.808 35C67.808 43.7634 64.3954 52.0021 58.1988 58.1987Z" fill="#FED700"/>
</svg>
