<svg width="48" height="49" viewBox="0 0 48 49" fill="none" xmlns="http://www.w3.org/2000/svg">
<path d="M37 20.4166L38.051 19.4824C37.7842 19.1822 37.4017 19.0104 37 19.0104V20.4166ZM44 28.2916H45.4062C45.4062 27.9472 45.2799 27.6148 45.051 27.3574L44 28.2916ZM44 36.75L44.0002 38.1562C44.7768 38.1561 45.4062 37.5265 45.4062 36.75H44ZM39.8295 36.7506L38.5006 37.2104L38.5006 37.2104L39.8295 36.7506ZM34.1705 36.7506L35.4994 37.2104L35.4994 37.2104L34.1705 36.7506ZM30 20.4166V19.0104C29.2234 19.0104 28.5938 19.64 28.5938 20.4166H30ZM2 10.8437C1.22335 10.8437 0.59375 11.4733 0.59375 12.25C0.59375 13.0266 1.22335 13.6562 2 13.6562V10.8437ZM30 12.25H31.4062C31.4062 11.4733 30.7766 10.8437 30 10.8437V12.25ZM8.00039 35.3437C7.22374 35.3435 6.59396 35.9729 6.59375 36.7496C6.59354 37.5262 7.22296 38.156 7.99961 38.1562L8.00039 35.3437ZM9 25.9062C9.77665 25.9062 10.4062 25.2766 10.4062 24.5C10.4062 23.7233 9.77665 23.0937 9 23.0937V25.9062ZM6 23.0937C5.22335 23.0937 4.59375 23.7233 4.59375 24.5C4.59375 25.2766 5.22335 25.9062 6 25.9062V23.0937ZM9 32.0312C9.77665 32.0312 10.4062 31.4016 10.4062 30.625C10.4062 29.8483 9.77665 29.2187 9 29.2187V32.0312ZM8 29.2187C7.22335 29.2187 6.59375 29.8483 6.59375 30.625C6.59375 31.4016 7.22335 32.0312 8 32.0312V29.2187ZM9 19.7812C9.77665 19.7812 10.4062 19.1516 10.4062 18.375C10.4062 17.5983 9.77665 16.9687 9 16.9687V19.7812ZM4 16.9687C3.22335 16.9687 2.59375 17.5983 2.59375 18.375C2.59375 19.1516 3.22335 19.7812 4 19.7812V16.9687ZM35.949 21.3509L42.949 29.2259L45.051 27.3574L38.051 19.4824L35.949 21.3509ZM42.5938 28.2916V36.75H45.4062V28.2916H42.5938ZM43.9998 35.3437L39.8293 35.3443L39.8297 38.1568L44.0002 38.1562L43.9998 35.3437ZM41.1585 36.2907C40.562 34.5668 38.9393 33.3021 37 33.3021V36.1146C37.6735 36.1146 38.2737 36.5548 38.5006 37.2104L41.1585 36.2907ZM37 33.3021C35.0607 33.3021 33.4381 34.5668 32.8416 36.2907L35.4994 37.2104C35.7263 36.5548 36.3265 36.1146 37 36.1146V33.3021ZM34.1707 35.3443L30.0002 35.3437L29.9998 38.1562L34.1703 38.1568L34.1707 35.3443ZM31.4062 36.75V20.4166H28.5938V36.75H31.4062ZM30 21.8229H37V19.0104H30V21.8229ZM2 13.6562H30V10.8437H2V13.6562ZM28.5938 12.25V36.75H31.4062V12.25H28.5938ZM29.9999 35.3437L15.8294 35.3443L15.8296 38.1568L30.0001 38.1562L29.9999 35.3437ZM17.1584 36.2907C16.5619 34.5668 14.9393 33.3021 13 33.3021V36.1146C13.6736 36.1146 14.2737 36.5548 14.5006 37.2104L17.1584 36.2907ZM13 33.3021C11.0607 33.3021 9.43805 34.5668 8.84155 36.2907L11.4994 37.2104C11.7263 36.5548 12.3264 36.1146 13 36.1146V33.3021ZM10.1709 35.3443L8.00039 35.3437L7.99961 38.1562L10.1701 38.1568L10.1709 35.3443ZM37 36.1146C37.853 36.1146 38.5938 36.8286 38.5938 37.7708H41.4062C41.4062 35.3303 39.4607 33.3021 37 33.3021V36.1146ZM38.5938 37.7708C38.5938 38.713 37.853 39.4271 37 39.4271V42.2395C39.4607 42.2395 41.4062 40.2113 41.4062 37.7708H38.5938ZM37 39.4271C36.147 39.4271 35.4062 38.713 35.4062 37.7708H32.5938C32.5938 40.2113 34.5393 42.2395 37 42.2395V39.4271ZM35.4062 37.7708C35.4062 36.8286 36.147 36.1146 37 36.1146V33.3021C34.5393 33.3021 32.5938 35.3303 32.5938 37.7708H35.4062ZM13 36.1146C13.853 36.1146 14.5938 36.8286 14.5938 37.7708H17.4062C17.4062 35.3303 15.4607 33.3021 13 33.3021V36.1146ZM14.5938 37.7708C14.5938 38.713 13.853 39.4271 13 39.4271V42.2395C15.4607 42.2395 17.4062 40.2113 17.4062 37.7708H14.5938ZM13 39.4271C12.147 39.4271 11.4062 38.713 11.4062 37.7708H8.59375C8.59375 40.2113 10.5393 42.2395 13 42.2395V39.4271ZM11.4062 37.7708C11.4062 36.8286 12.147 36.1146 13 36.1146V33.3021C10.5393 33.3021 8.59375 35.3303 8.59375 37.7708H11.4062ZM9 23.0937H6V25.9062H9V23.0937ZM9 29.2187H8V32.0312H9V29.2187ZM9 16.9687H4V19.7812H9V16.9687ZM32.8416 36.2907C32.6805 36.7561 32.5938 37.2548 32.5938 37.7708H35.4062C35.4062 37.5714 35.4396 37.3833 35.4994 37.2104L32.8416 36.2907ZM41.4062 37.7708C41.4062 37.2548 41.3195 36.7561 41.1584 36.2907L38.5006 37.2104C38.5604 37.3833 38.5938 37.5714 38.5938 37.7708H41.4062ZM8.84155 36.2907C8.68055 36.7561 8.59375 37.2548 8.59375 37.7708H11.4062C11.4062 37.5714 11.4396 37.3833 11.4994 37.2104L8.84155 36.2907ZM17.4062 37.7708C17.4062 37.2548 17.3195 36.7561 17.1584 36.2907L14.5006 37.2104C14.5604 37.3833 14.5938 37.5714 14.5938 37.7708H17.4062Z" fill="#FFCE00"/>
</svg>
