<svg width="305" height="24" viewBox="0 0 305 24" fill="none" xmlns="http://www.w3.org/2000/svg">
<g clip-path="url(#clip0_141_4791)">
<path d="M304.967 10.8297C305.034 11.0011 304.997 11.1984 304.871 11.3293L296.996 19.5793C296.823 19.7552 296.546 19.7501 296.378 19.5681C296.214 19.3905 296.214 19.1089 296.378 18.9313L303.506 11.4632H284.438C284.196 11.4631 284 11.2579 284 11.0048C284 10.7517 284.196 10.5465 284.438 10.5465H303.506L296.379 3.0793C296.205 2.90343 296.2 2.61331 296.368 2.4312C296.536 2.24915 296.813 2.24412 296.987 2.41995C296.99 2.42364 296.994 2.42738 296.997 2.4312L304.872 10.6812C304.913 10.7238 304.945 10.7742 304.967 10.8297Z" fill="#2196F3"/>
<path d="M296.687 2.29697C296.446 2.2965 296.249 2.50137 296.249 2.7545C296.249 2.87653 296.295 2.99362 296.378 3.07981L303.944 11.0053L296.378 18.9308C296.21 19.1128 296.215 19.403 296.388 19.5789C296.558 19.7504 296.827 19.7504 296.996 19.5789L304.871 11.3289C305.042 11.1499 305.042 10.8598 304.871 10.6808L296.996 2.43077C296.914 2.34509 296.803 2.29697 296.687 2.29697Z" fill="#242424"/>
<path d="M304.562 10.5467H284.438C284.196 10.5467 284 10.7519 284 11.005C284 11.2582 284.196 11.4634 284.438 11.4634H304.563C304.804 11.4634 305 11.2582 305 11.005C305 10.7519 304.804 10.5467 304.562 10.5467Z" fill="#242424"/>
</g>
<g clip-path="url(#clip1_141_4791)">
<path d="M0.0348461 13.1703C-0.0360081 12.9989 0.00343588 12.8016 0.134749 12.6707L8.38475 4.42066C8.56681 4.24479 8.85698 4.24986 9.03285 4.43192C9.20438 4.60955 9.20438 4.89112 9.03285 5.06871L1.56475 12.5368L21.5417 12.5368C21.7948 12.5369 22 12.7421 22 12.9952C22 13.2483 21.7948 13.4535 21.5417 13.4535L1.56475 13.4535L9.0319 20.9207C9.21396 21.0966 9.21903 21.3867 9.04316 21.5688C8.86729 21.7509 8.57716 21.7559 8.39506 21.5801C8.39124 21.5764 8.3875 21.5726 8.38381 21.5688L0.133805 13.3188C0.0914372 13.2762 0.0577915 13.2258 0.0348461 13.1703Z" fill="#2196F3"/>
<path d="M8.70856 21.703C8.96169 21.7035 9.16725 21.4986 9.16773 21.2455C9.16794 21.1235 9.11947 21.0064 9.03306 20.9202L1.10661 12.9947L9.03306 5.06923C9.20893 4.88717 9.20386 4.597 9.0218 4.42113C8.84417 4.2496 8.56259 4.2496 8.385 4.42113L0.135003 12.6711C-0.0439188 12.8501 -0.0439188 13.1402 0.135003 13.3192L8.38501 21.5692C8.47086 21.6549 8.58722 21.703 8.70856 21.703Z" fill="#7C7B7B"/>
<path d="M0.458345 13.4533L21.5417 13.4533C21.7948 13.4533 22 13.2481 22 12.995C22 12.7418 21.7948 12.5366 21.5417 12.5366L0.458302 12.5366C0.205173 12.5366 -4.38511e-05 12.7418 -4.38289e-05 12.995C6.21989e-08 13.2481 0.205217 13.4533 0.458345 13.4533Z" fill="#7C7B7B"/>
</g>
<defs>
<clipPath id="clip0_141_4791">
<rect width="21" height="22" fill="white" transform="matrix(1 0 0 -1 284 22)"/>
</clipPath>
<clipPath id="clip1_141_4791">
<rect width="22" height="22" fill="white" transform="matrix(-1 8.74228e-08 8.74228e-08 1 22 2)"/>
</clipPath>
</defs>
</svg>
