<svg width="70" height="70" viewBox="0 0 70 70" fill="none" xmlns="http://www.w3.org/2000/svg">
<path d="M35.0002 64.1666C51.1085 64.1666 64.1668 51.1082 64.1668 34.9999C64.1668 18.8916 51.1085 5.83325 35.0002 5.83325C18.8919 5.83325 5.8335 18.8916 5.8335 34.9999C5.8335 51.1082 18.8919 64.1666 35.0002 64.1666Z" fill="#988430"/>
<path d="M35 63.2324C50.5923 63.2324 63.2324 50.5923 63.2324 35C63.2324 19.4077 50.5923 6.76758 35 6.76758C19.4077 6.76758 6.76758 19.4077 6.76758 35C6.76758 50.5923 19.4077 63.2324 35 63.2324Z" fill="#7A6A2A"/>
<path d="M35.0003 62.6374C50.2641 62.6374 62.6379 50.2637 62.6379 34.9999C62.6379 19.7361 50.2641 7.3623 35.0003 7.3623C19.7365 7.3623 7.36279 19.7361 7.36279 34.9999C7.36279 50.2637 19.7365 62.6374 35.0003 62.6374Z" fill="#BA9F33"/>
<path fill-rule="evenodd" clip-rule="evenodd" d="M18.5859 31.8851C18.4207 31.7342 18.2461 31.583 18.0856 31.4321C17.9251 31.2812 17.7602 31.13 17.595 30.9791L17.104 30.5125C17.0238 30.4322 16.9388 30.3616 16.8586 30.281C16.7783 30.2104 16.684 30.1301 16.6038 30.0592C15.9523 29.441 15.2971 28.8228 14.6547 28.2043C15.3201 28.8132 15.9716 29.4177 16.6371 30.0355L16.8682 30.267C16.9485 30.347 17.0334 30.4179 17.1137 30.4982L17.6043 30.9511C17.7695 31.102 17.93 31.2532 18.0952 31.4178C18.2604 31.5824 18.421 31.7339 18.5862 31.8845L18.5859 31.8851ZM9.93976 31.7918C9.93976 31.7918 12.3089 32.0369 13.4653 32.2021C14.5364 32.3533 17.8874 32.8676 17.8874 32.8676L9.93976 31.7918ZM9.93976 31.7918C10.6052 31.8484 11.2707 31.919 11.9362 31.9899C12.2759 32.0229 12.6016 32.0606 12.9274 32.0935L13.4273 32.1505C13.5925 32.1738 13.7531 32.1975 13.9183 32.2211L15.9007 32.5372L16.8915 32.7024C17.2173 32.759 17.543 32.8206 17.8827 32.8772C17.557 32.8443 17.2173 32.797 16.8915 32.7497L15.9007 32.6081L13.9183 32.3157C13.7531 32.292 13.5925 32.2587 13.4273 32.2354L12.9271 32.1779C12.6013 32.1449 12.2616 32.0976 11.9359 32.0596C11.2704 31.9797 10.6049 31.8944 9.93945 31.7908L9.93976 31.7918ZM17.6516 33.4848C17.6516 33.4848 15.1219 34.127 14.2676 34.3724C13.4276 34.6036 10.8837 35.3776 10.8837 35.3776L17.6513 33.4851L17.6516 33.4848Z" fill="#CFB66C"/>
<path fill-rule="evenodd" clip-rule="evenodd" d="M17.6515 33.4849C17.0899 33.6501 16.5315 33.8106 15.9618 33.9618L14.2722 34.4148C13.7106 34.58 13.1522 34.7406 12.5922 34.9058L11.7522 35.1369C11.4737 35.2172 11.1906 35.2878 10.9028 35.3684C11.181 35.2751 11.4644 35.1796 11.7428 35.0993L12.5828 34.8305C13.1444 34.6556 13.7028 34.4904 14.2628 34.3159C14.8337 34.1743 15.3956 34.0231 15.9665 33.8862C16.5091 33.7493 17.0803 33.6127 17.6515 33.4852V33.4849ZM11.2379 36.9352C11.516 36.8313 14.7255 35.3354 15.4712 34.986C15.8445 34.8112 16.9297 34.426 16.9297 34.426L11.2379 36.9352Z" fill="#CFB66C"/>
<path fill-rule="evenodd" clip-rule="evenodd" d="M11.2376 36.935C11.4828 36.8417 11.7142 36.7275 11.9501 36.6189L12.6485 36.2932L14.0504 35.6184C14.517 35.3965 14.9706 35.1517 15.4519 34.9433C15.6974 34.8397 15.9429 34.7547 16.188 34.6745L16.5613 34.5565C16.6886 34.5236 16.8068 34.4856 16.9347 34.4526C16.468 34.6745 15.9768 34.8633 15.5095 35.0801C15.0428 35.3116 14.5656 35.5005 14.084 35.708L12.6588 36.3355C12.1803 36.5293 11.7136 36.7368 11.2373 36.935H11.2376ZM11.5487 38.2417C11.5487 38.2417 14.4557 36.538 15.4563 35.9905C15.9802 35.698 17.6745 34.8577 17.6745 34.8577L11.5487 38.2417Z" fill="#CFB66C"/>
<path fill-rule="evenodd" clip-rule="evenodd" d="M11.5488 38.2422C12.0394 37.9401 12.5397 37.6333 13.04 37.3219L13.7866 36.8686C14.0414 36.7177 14.2869 36.5762 14.5467 36.4253C14.8015 36.2741 15.0469 36.1232 15.3064 35.9816C15.4299 35.9054 15.5593 35.8391 15.6934 35.7835L16.0898 35.5853C16.6137 35.3305 17.1376 35.0707 17.6898 34.8489C17.1896 35.1653 16.675 35.4344 16.1607 35.7125C15.9059 35.8541 15.6461 35.9816 15.3913 36.1232C15.1365 36.2647 14.8911 36.4159 14.6313 36.5528C14.3765 36.7037 14.131 36.8453 13.8716 36.9822L13.1022 37.4022L11.5495 38.2422H11.5488ZM17.6509 35.2309C17.6509 35.2309 15.8434 36.6185 15.2582 37.0621C14.673 37.5058 12.9504 38.7518 12.9504 38.7518L17.6509 35.2309Z" fill="#CFB66C"/>
<path fill-rule="evenodd" clip-rule="evenodd" d="M28.0245 46.4212L27.0996 44.6702L27.6375 42.4803L31.4745 40.9985L29.8414 37.6478L30.6485 34.2639L32.1636 31.2337L36.8455 30.4976L40.2858 27.2175L47.7146 27.7791L49.1728 35.7221L46.3647 45.7227L44.7649 50.9002L38.2801 51.1457L35.2691 49.0597L31.7436 47.5869L28.0245 46.4212Z" fill="#E2CC85"/>
<path fill-rule="evenodd" clip-rule="evenodd" d="M39.3986 46.3645C39.3986 46.3645 38.5017 46.7751 36.972 46.6805C36.5293 46.086 33.4288 45.8076 33.4288 45.8076C33.4288 45.8076 33.0417 45.6897 32.3573 45.9728C31.6685 46.2528 31.017 46.2182 30.4082 46.3691C29.7994 46.52 29.1949 45.7273 28.7282 45.5621C28.2615 45.3876 27.6427 44.9676 27.6427 44.9676L26.3361 44.84L23.7122 43.7309L19.5436 39.5779L18.4109 41.3512L18.0615 43.5458L19.3218 46.1464L22.7151 49.2376L29.3318 50.9176L33.2536 49.7621L38.1666 47.6854L39.3986 46.3641V46.3645Z" fill="#F1D789"/>
<path fill-rule="evenodd" clip-rule="evenodd" d="M15.8909 31.6869L16.7309 29.1432L17.7318 27.5006L20.9549 27.2314L19.9874 30.0538L17.2928 34.849L18.4113 39.1296L16.4292 40.1205L15.82 39.1862L15.3294 37.0436L15.2964 34.6365L15.8909 31.6869Z" fill="#F4ECB4"/>
<path fill-rule="evenodd" clip-rule="evenodd" d="M19.5061 46.19L18.8879 45.3264C18.8879 45.3264 18.7227 44.9157 18.8173 44.557C18.9106 44.1936 18.8972 44.17 18.8502 44.0331C18.8033 43.8962 18.4066 43.4242 18.4302 43.0182C18.4536 42.6076 18.3973 42.4707 18.699 42.1452C19.0151 41.8292 18.9209 41.2816 18.9209 41.2816L19.3315 41.5364L19.4249 41.3948C19.4249 41.3948 19.5757 41.5128 19.5757 41.6969C19.6087 41.4421 19.4718 40.2621 19.7833 39.9933C20.0947 39.7245 20.6469 41.2533 20.6469 41.2533L20.3072 39.0351L19.4339 36.7605L17.8811 34.6839L17.7878 32.3947V32.1965C17.7878 32.1965 17.075 33.2916 16.8769 34.1565C16.7353 34.7511 17.075 35.4732 17.0044 36.3275C16.9475 37.1771 16.8769 37.1108 17.0844 37.4475C17.2919 37.7841 17.7971 38.4763 17.5989 38.9766C17.4244 39.4062 16.8296 39.1041 16.8296 39.1041C16.8296 39.1041 16.7117 39.4532 16.5511 39.5808C16.4945 39.3732 16.4332 39.241 16.32 39.1141C16.3103 39.1944 16.287 39.3029 16.287 39.3029C16.287 39.3029 16.1831 38.9772 16.0792 38.5665C15.9379 38.0193 15.7867 37.2972 15.6498 36.9102C15.5932 37.132 15.4517 37.8068 15.4517 37.8068L15.5319 38.8453L15.9189 40.2705L16.2923 41.2038L16.6557 42.3459L16.9714 43.1131L17.2262 43.6983L17.4481 45.0152L18.5192 46.1477L19.0904 46.4028L19.5054 46.1903L19.5061 46.19Z" fill="#F3E19D"/>
<path fill-rule="evenodd" clip-rule="evenodd" d="M16.4524 29.6103C16.4524 29.6103 15.683 30.917 15.4615 32.2342C15.24 33.5515 15.0415 34.9434 15.1815 36.7366C15.323 38.5445 15.5922 39.6533 15.8093 40.4463C16.1827 41.7632 17.1496 43.5944 17.1496 43.5944L17.1826 43.5235C17.02 43.2154 16.8903 42.8911 16.7955 42.5559C16.668 42.0557 16.6207 41.4611 16.5028 41.192C16.3989 40.9232 16.2243 40.6918 16.1394 40.3614C16.0591 40.0453 16.0461 39.545 15.7997 39.1723C15.6958 39.0211 15.5682 38.6247 15.5306 38.2284C15.4833 37.6335 15.5542 36.9681 15.4976 36.4208C15.3937 35.5099 15.323 34.8917 15.4173 34.4148C15.5116 33.9379 16.0028 32.5839 16.3049 31.5078C16.5031 30.8187 16.3849 30.2381 16.7483 29.6386C17.1116 29.0441 17.3338 28.5202 17.4137 28.1568C17.5071 27.8264 16.4511 29.6103 16.4511 29.6103H16.4524Z" fill="#F2E8B0"/>
<path fill-rule="evenodd" clip-rule="evenodd" d="M20.1008 29.0862C20.1008 29.0862 19.7044 29.2044 19.5156 29.4119C19.3267 29.6101 19.2465 29.7753 18.9916 30.1103C18.7368 30.4454 18.7225 30.7192 18.5147 31.1392C18.3072 31.5498 17.8492 32.168 17.7926 32.3898C17.736 32.6116 17.6417 33.6498 17.5238 34.1407C17.4199 34.6316 17.6417 35.2358 17.6417 35.2358L17.9105 35.1789C17.9105 35.1789 17.9105 35.5283 18.1796 35.7644C18.4484 35.9955 18.4957 34.9807 18.4957 34.9807L19.5009 31.5875L21.0158 30.5586L21.181 29.728L20.1002 29.0862H20.1008Z" fill="#F5EEC0"/>
<path fill-rule="evenodd" clip-rule="evenodd" d="M20.8371 30.6251C20.8371 30.6251 20.1243 30.6721 19.7753 30.9272C19.6337 31.0308 19.5771 31.1157 19.4262 31.2433C19.1478 31.4745 18.8643 31.6869 18.7278 31.99C18.5766 32.2917 18.4114 32.7497 18.2981 33.6133C18.2508 33.9767 18.2508 34.3118 18.2179 34.6045C18.1706 35.0009 18.1 35.317 18.1376 35.5379C18.1849 35.9909 18.6522 36.227 18.6976 36.7413L19.6651 36.2506L20.576 32.6589L22.5111 31.4455L21.416 30.2185L20.8358 30.623L20.8371 30.6251Z" fill="#E6DB9D"/>
<path fill-rule="evenodd" clip-rule="evenodd" d="M15.7322 54.8111C15.7363 54.7756 15.7403 54.7401 15.7444 54.7037C15.8856 53.4904 15.9096 52.5708 16.0132 51.9949C16.1641 51.1785 16.268 50.8749 16.2443 50.5694C16.2114 50.0788 16.1737 49.72 16.221 49.3424C16.2916 48.8421 16.7826 48.2476 16.7686 47.8369C16.7589 47.5112 16.5937 47.299 16.4522 47.1008C16.3106 46.9026 16.1974 46.7374 16.1974 46.7374C16.1974 46.7374 17.1649 46.072 17.1556 43.3911C17.1753 43.3967 17.1944 43.4046 17.2122 43.4148L17.6888 44.769L18.0146 45.1654L19.2652 47.4968L20.8746 49.0592L23.2531 50.659L24.7446 52.282L24.8955 56.6099L22.9463 59.1396L22.6271 59.7176C20.0912 58.4445 17.7657 56.7896 15.7319 54.8108L15.7322 54.8111Z" fill="#E5CB7A"/>
<path fill-rule="evenodd" clip-rule="evenodd" d="M21.6865 58.9516C21.6865 58.9516 21.7195 58.4137 22.1631 58.0643C22.2341 58.1822 22.2811 58.2957 22.2671 58.3804C22.3473 58.2391 22.9089 57.3329 24.1785 57.0967C25.4482 56.8656 25.7549 55.9406 25.7549 55.9406L28.4494 53.4913L31.5313 50.6549L35.2786 49.3379L37.0299 48.9083C37.0299 48.9083 37.0628 49.0358 36.9969 49.3189C37.3223 49.2956 38.0444 49.1304 38.7948 48.866C39.0969 48.7481 39.3803 48.7008 39.5312 48.8566C39.753 49.0641 39.786 49.5551 39.8 49.8475C40.1634 49.7673 40.5834 49.4182 40.92 49.4512C41.4582 49.5078 41.9348 50.1403 42.4824 50.1403C43.2045 50.1403 43.5299 49.6966 44.0351 49.3473C44.3372 49.1397 44.7712 48.8806 45.0167 48.7054C45.6019 48.2758 51.7939 46.3833 51.7939 46.3833L53.9649 46.5249L54.3142 48.8563L54.1276 54.951C54.1045 54.9731 54.0815 54.9961 54.0582 55.0182L44.1873 60.1736L30.5046 62.2711C27.4397 61.7704 24.4819 60.753 21.7575 59.2624L21.6875 58.9513L21.6865 58.9516Z" fill="#D8C173"/>
<path fill-rule="evenodd" clip-rule="evenodd" d="M16.5625 55.5866C16.7569 55.1799 16.9318 54.8399 16.9626 54.7183C16.9869 54.9634 17.0313 55.5013 17.1209 56.0731C16.9328 55.9132 16.7467 55.7509 16.5625 55.5863V55.5866Z" fill="#F1D789"/>
<path fill-rule="evenodd" clip-rule="evenodd" d="M26.5569 61.3222L28.3265 60.83L28.4774 60.8773C28.4774 60.8773 28.5576 60.9246 28.5576 61.0848C28.7795 60.9575 28.9683 60.9809 29.1052 60.8963C29.1758 61.0471 29.2464 61.5474 29.5582 61.6087C29.8836 61.6796 30.233 61.4671 30.587 61.1983C30.9361 60.9199 31.3337 60.5705 31.6345 60.429C31.7449 60.6319 31.8427 60.8415 31.9273 61.0565C32.3237 60.7404 33.0128 59.4567 33.9943 59.4801C34.278 58.8096 34.752 58.237 35.3576 57.833C36.2686 57.2149 36.8395 57.1676 37.5522 57.2242C37.8353 56.8565 38.1842 56.5444 38.5811 56.3039C38.699 56.3512 39.0247 56.5494 39.4307 56.3605C39.8414 56.172 40.3037 55.4403 40.9126 55.346C41.2406 55.3009 41.5742 55.3709 41.8565 55.5442C41.8565 55.5442 43.6298 53.7836 44.8534 53.1984C44.8061 53.0568 44.7119 52.5236 46.1464 51.3435C46.2267 51.4145 46.1701 51.6126 46.2267 51.6235C46.25 51.6235 46.6 51.4726 47.043 51.1326C47.5906 50.7222 48.2464 50.2926 48.6428 50.1747C49.3895 49.9529 50.1815 50.4058 50.1815 50.4058C50.2489 50.3586 50.324 50.3234 50.4034 50.3019C50.5919 50.2689 50.7288 50.2453 50.8327 50.2086C50.8234 50.4541 50.9603 50.8741 50.8327 51.2374C50.9805 51.3205 51.137 51.387 51.2994 51.4356C51.2194 51.6102 51.0446 52.0538 50.7521 52.2663C50.9973 52.3842 51.0303 52.5211 51.3796 52.6396C51.2381 52.8378 51.0063 53.1779 50.903 53.3863C50.7991 53.6081 50.4261 54.5284 50.2609 54.8775C50.0863 55.2268 49.8505 55.8687 49.737 55.9975C49.6234 56.1263 49.213 56.6723 48.897 56.9411C49.177 56.8372 50.3225 56.4881 50.8084 56.3559C50.6638 56.568 49.9305 57.656 49.2255 58.7023C45.8501 60.7254 42.0822 62.0059 38.173 62.4585C34.2638 62.9111 30.3031 62.5253 26.5547 61.3268L26.5569 61.3222Z" fill="#E0CD81"/>
<path fill-rule="evenodd" clip-rule="evenodd" d="M20.9535 30.4975C20.9535 30.4975 20.5432 30.4975 20.4629 30.5541C20.3826 30.6107 20.8736 30.729 21.0245 30.7856C21.1754 30.8422 21.5011 31.1017 21.586 31.3095C21.6663 31.5077 24.5358 32.6638 24.5358 32.6638L26.5652 32.5598L27.2649 31.5932L25.9339 30.4275L26.8673 27.676L25.6309 27.8742L22.6575 29.6475L21.166 30.2187L20.9535 30.4975Z" fill="#DFC57C"/>
<path fill-rule="evenodd" clip-rule="evenodd" d="M25.4105 31.4084C25.4399 31.4559 25.4812 31.4948 25.5303 31.5213C25.5795 31.5478 25.6347 31.5609 25.6905 31.5593C26.1105 31.5593 26.4972 31.6632 26.6578 31.8753C26.9269 32.2154 27.6726 33.3009 27.6726 33.3009L29.4565 33.9427L29.5716 31.8421L27.6225 30.4878L25.4043 31.3042V31.4081H25.4093L25.4105 31.4084Z" fill="#E5CC7C"/>
<path fill-rule="evenodd" clip-rule="evenodd" d="M25.0603 32.187C25.0603 32.187 25.3857 32.2107 25.7964 32.0595C26.207 31.9083 26.8818 31.5829 27.1746 31.7104C27.585 31.8849 27.5 32.4325 27.944 32.9237C28.2128 33.2258 28.7037 33.2165 28.9822 33.5422C29.2606 33.868 30.2185 33.7168 30.2185 33.7168L30.5819 35.6768L29.1237 37.5459L28.6468 39.8677H26.675L24.8736 39.1531L23.9863 37.0065L24.43 34.8355L25.0603 32.187Z" fill="#D2C281"/>
<path fill-rule="evenodd" clip-rule="evenodd" d="M28.8749 32.2813C28.9238 32.2964 28.9746 32.3043 29.0258 32.3049C28.9692 32.3522 28.8509 32.4558 28.8982 32.7249C28.9455 32.994 29.0964 33.3338 28.9692 33.5413C29.0707 33.6523 29.1465 33.7845 29.191 33.9283C29.2712 34.1597 29.2949 34.3719 29.8185 34.4052C29.7429 34.4517 29.6732 34.5072 29.611 34.5704C29.611 34.5704 29.9744 34.8865 30.1585 35.1789C30.3471 35.1708 30.8473 35.0153 30.8473 35.0153L30.9512 35.0862L31.1731 34.9929C31.1731 34.9929 30.9656 34.9126 31.1164 34.4077C31.258 33.9641 31.3856 33.9877 31.3964 33.9547C31.4073 33.9217 31.5004 33.4545 31.5004 33.2656C31.571 33.0205 31.6276 32.2748 31.6276 32.2748L31.4767 30.6278L30.6274 30.1132L29.9367 29.4465L29.2852 30.6735L28.8562 31.1013L28.8232 32.1631L28.8749 32.2813Z" fill="#E2C270"/>
<path fill-rule="evenodd" clip-rule="evenodd" d="M30.918 30.9035C30.918 30.9035 31.0689 31.3328 31.1258 31.6632C31.1459 31.599 31.157 31.5323 31.1588 31.4651C31.1588 31.4651 31.2767 32.1165 31.3 32.3856C31.3473 32.376 31.3933 32.362 31.4039 32.409C31.4145 32.456 31.5221 32.9802 31.4973 33.2726C31.6938 32.9484 31.9657 32.6764 32.29 32.4799C32.4788 32.3617 32.7006 32.2344 32.9321 32.2248C33.2955 32.2155 33.5596 32.4563 33.9939 32.4563C35.0414 32.4563 35.9903 31.6869 36.6888 31.4511C37.203 31.2762 37.6467 31.149 37.9581 30.8656C38.1093 30.7383 38.3784 30.4552 38.6236 30.0349C38.9493 29.4749 39.289 28.9874 39.6291 28.9261C39.4752 28.9544 39.3187 28.9654 39.1624 28.9591C39.1624 28.9591 39.2663 28.8552 39.4424 28.7136C39.6185 28.572 39.8294 28.3975 40.1312 28.3975C40.6694 28.3975 40.9382 28.4775 41.2403 28.4775C41.5424 28.4681 41.7169 28.3975 41.7169 28.3975C41.7169 28.3975 42.0333 28.6193 42.7458 28.6193C43.4585 28.6287 43.9352 28.69 44.3082 28.7232C44.6812 28.7565 45.9316 28.6193 46.2903 28.6299C46.5241 28.6389 46.7538 28.6951 46.9654 28.7951L45.809 25.4351L41.655 21.8044L39.182 23.5554L35.3777 27.3593L31.6967 28.7232L30.9273 29.5869V30.9035H30.918Z" fill="#CCB360"/>
<path fill-rule="evenodd" clip-rule="evenodd" d="M39.1768 28.9776C39.1768 28.9776 39.2807 28.874 39.4549 28.7325C39.6292 28.5909 39.8423 28.4161 40.1441 28.4161C40.682 28.4161 40.9511 28.4963 41.2532 28.4963C41.5553 28.487 41.7298 28.4161 41.7298 28.4161C41.7298 28.4161 42.0465 28.6376 42.7587 28.6376C43.4715 28.6469 43.9481 28.7082 44.3211 28.7412C44.6941 28.7742 45.9445 28.6376 46.3032 28.6478C46.537 28.6566 46.7666 28.7129 46.978 28.813L46.4541 27.2979L45.8456 26.1418L44.1086 24.2397L42.0083 23.0034C41.9989 22.994 41.2862 22.8052 41.2862 22.8052L39.3983 23.9473L37.6853 28.379L37.6523 29.3124L38.7612 29.8363C39.0396 29.3696 39.3467 28.9963 39.6345 28.949C39.3747 28.9773 39.1765 28.9773 39.1765 28.9773L39.1768 28.9776Z" fill="#D5B457"/>
<path fill-rule="evenodd" clip-rule="evenodd" d="M39.1533 29.2941C38.9881 29.3034 38.8515 29.2704 38.8136 29.1525C38.672 28.7562 38.5588 28.6995 38.4403 28.6995C38.3217 28.6995 38.1618 28.9543 38.0669 28.9777C37.9721 29.001 37.8594 28.6852 37.8594 28.6852L37.7555 28.6379C37.7555 28.6379 37.1467 29.0343 36.7174 29.5016C36.2881 29.9689 35.5847 30.7619 35.2686 30.9031C34.9525 31.0444 33.8668 31.092 33.4953 31.1722C33.1238 31.2525 32.7119 31.5216 32.6553 31.5829C32.5987 31.6442 32.8208 31.7102 32.8538 31.7714C32.8868 31.8281 32.4901 31.8044 32.4571 31.8648C32.4338 31.9121 32.5505 32.1809 32.6083 32.3178C32.7096 32.2674 32.8207 32.24 32.9338 32.2375C33.2971 32.2282 33.5616 32.469 33.9955 32.469C35.0433 32.469 35.9919 31.6996 36.6903 31.4634C37.2049 31.2889 37.6485 31.1614 37.9599 30.8782C38.1108 30.751 38.3799 30.4676 38.6254 30.0476C38.8046 29.7598 38.9794 29.4907 39.1543 29.2925L39.1533 29.2941Z" fill="#D2B257"/>
<path fill-rule="evenodd" clip-rule="evenodd" d="M24.1265 52.6514C24.1265 52.6514 24.0332 52.302 23.1683 51.4007C22.9228 51.1459 22.772 50.934 22.6068 50.7825C22.1961 50.3952 21.9553 50.2916 21.6628 50.0697C21.021 49.5931 20.3226 49.5931 19.7846 49.0079C19.2467 48.4227 18.6198 47.3045 18.1843 46.1618C17.7549 45.0197 17.6367 44.6563 17.6367 44.6234C17.6367 44.5904 17.7549 44.3685 17.9058 44.4015C18.0567 44.4345 18.0567 44.727 18.0947 44.7979C18.1699 44.9137 18.2551 45.0226 18.3495 45.1233C18.5713 45.3784 18.8874 45.6833 19.0479 46.1382C19.015 45.7511 18.8827 45.3218 18.8827 45.3218C18.8827 45.3218 19.7134 45.8457 20.4212 46.393C21.1339 46.9405 21.4264 47.1294 21.6345 47.4785C21.8427 47.8275 22.333 48.7481 22.5679 49.0172C22.8028 49.2864 26.0212 50.3009 26.0212 50.3009L27.5522 51.4424L28.3123 53.1084L27.7174 54.0418L26.5753 54.2872L24.7205 53.4565L24.1265 52.6511V52.6514Z" fill="#D2B159"/>
<path fill-rule="evenodd" clip-rule="evenodd" d="M20.0059 46.9121C20.0059 46.9121 20.3929 47.5303 21.3368 48.1155C22.1864 48.6301 23.5313 49.0973 24.7304 49.3758C25.4192 49.541 26.1083 49.6682 26.7264 49.6779C28.3924 49.7012 29.5392 49.2249 30.96 49.069C31.7294 48.9888 32.6733 48.9275 33.6548 48.6957C34.9148 48.3936 35.6605 48.0536 36.6754 47.5757C37.4115 47.236 38.0866 46.9812 38.6338 46.6554C39.4032 46.2025 39.9647 45.6975 40.6162 45.5466C40.5359 45.7685 40.451 46.1648 39.8092 46.5755C40.1489 46.5658 40.6162 46.5425 40.6162 46.5425C40.6162 46.5425 40.1632 46.8113 39.3655 47.4155C38.8746 47.7888 38.2235 48.4207 37.558 48.8407C37.1284 49.1098 36.6611 49.3073 36.3543 49.4685C35.6077 49.8792 35.3065 50.0867 34.8159 50.5885C34.9904 50.5792 35.0047 50.5885 35.0047 50.5885C35.0047 50.5885 34.3862 50.6688 33.9429 50.9046C33.8496 50.9046 33.6878 50.8716 33.4047 50.9519C33.1829 51.0225 32.8901 51.1833 32.5883 51.268C32.1587 51.3955 32.0175 51.3389 32.0175 51.3389L32.0881 51.4805C32.0881 51.4805 31.5281 51.4708 31.3414 51.4898C31.3744 51.4991 31.3651 51.5134 31.3651 51.5134C31.3323 51.5189 31.3007 51.5301 31.2717 51.5464C31.1819 51.6046 31.0831 51.6476 30.9793 51.6737C30.9227 51.683 30.8754 51.683 30.8045 51.6973C30.8281 51.7539 31.0123 52.0706 31.0972 52.2573C31.0266 52.3046 29.9645 53.1069 29.9645 53.1069C29.9974 53.1588 30.0243 53.2142 30.0447 53.2721C30.0777 53.3757 30.092 53.5269 30.125 53.5976C30.2049 53.7391 30.2522 53.7628 30.2522 53.7628C30.2522 53.7628 30.125 53.7864 29.9029 53.843C29.7143 53.8903 29.4829 53.9703 29.1562 54.0176C29.056 54.0306 28.9551 54.0385 28.8541 54.0412C28.9014 54.1451 29.1089 54.5415 28.7266 54.9991C28.3442 55.4568 28.2263 55.5233 28.1084 55.8158C28.049 55.7709 27.9858 55.7313 27.9195 55.6976C27.7923 55.6409 27.6174 55.5563 27.5562 55.4428C27.5204 55.5941 27.4731 55.7424 27.4146 55.8864C27.2967 56.2025 27.1222 56.5142 27.0892 56.7501C26.9616 56.6085 26.7258 56.3301 26.4001 56.3867C26.0744 56.4433 25.8149 56.8869 25.7583 57.0145C25.7583 56.9342 25.7016 56.8729 25.6876 56.9672C25.678 57.0711 25.4988 58.1563 24.4983 59.0342C24.4889 58.8124 24.4889 58.3215 24.4653 58.1613C24.372 58.2546 24.2578 58.3924 23.578 58.6852C22.9126 58.9776 23.018 59.2704 23.018 59.2704C23.018 59.2704 22.9614 58.8037 23.3201 58.3121C23.6835 57.8215 23.9053 57.5901 23.9053 57.5524C23.8994 57.5141 23.8831 57.4781 23.858 57.4485C23.8107 57.4012 23.7165 57.3446 23.7165 57.3069C23.7731 57.2836 24.3346 57.0145 24.3017 56.4573C24.2687 55.9573 24.0565 55.6976 23.9053 55.5137C23.882 55.4901 24.1274 55.3155 24.0941 55.2589C24.0705 55.2259 23.7687 55.0038 23.7308 54.8856C23.7397 54.815 23.7555 54.7455 23.7781 54.6781C23.811 54.5741 23.8347 54.5032 23.8253 54.4326C23.8017 54.3147 23.6741 53.9889 23.6365 53.956C23.6695 53.9653 23.9053 53.956 23.9053 53.956C23.9053 53.956 23.7168 53.6539 23.6835 53.5123C23.6502 53.3708 23.5796 52.9977 23.5419 52.9271C23.6222 52.9365 23.8204 52.9505 23.8204 52.9271C23.83 52.8562 23.6458 52.7383 23.727 52.6471C23.7837 52.6565 23.8922 52.7037 23.9958 52.836C23.9392 52.6848 23.8449 52.3923 23.6465 52.2744C23.7398 52.2414 24.0571 52.1562 24.3356 52.3214C24.614 52.4866 24.7089 52.7177 24.7089 52.7177C24.7089 52.7177 24.8741 52.8453 25.1292 53.0341C25.4216 53.2653 25.7944 53.5941 26.3892 53.8269C26.5167 53.8978 26.8422 53.8978 27.0783 53.8505C27.1811 53.826 27.2797 53.7863 27.3707 53.7326C27.4036 53.7132 27.4384 53.6974 27.4747 53.6853C27.4239 53.5835 27.3656 53.4856 27.3001 53.3925C27.3804 53.3925 27.4747 53.4022 27.4747 53.4022C27.4747 53.4022 27.5313 53.2746 27.2765 53.0289C27.3331 52.9722 27.404 52.9355 27.404 52.84C27.3238 52.8307 27.1822 52.7128 27.1492 52.6655C27.1962 52.6325 27.2671 52.5239 27.3474 52.4909C27.2765 52.4343 27.1019 52.1982 27.0217 52.1749C27.0984 52.1464 27.1725 52.1116 27.2435 52.0709C27.2435 52.0709 26.8471 51.967 26.7196 51.8821C26.592 51.7888 26.4035 51.6273 26.2903 51.58C26.172 51.5327 25.9645 51.5094 25.8796 51.4148C25.9595 51.4385 26.0871 51.4148 26.1817 51.4148C26.2523 51.4148 26.2856 51.4241 26.3089 51.4241C26.2996 51.3912 26.2996 51.3202 26.4838 51.2969C26.5724 51.2835 26.6583 51.2565 26.7386 51.2166C26.7386 51.2166 26.5637 51.2073 26.3652 51.0185C26.1667 50.8296 26.0019 50.6787 25.8886 50.6551C25.7707 50.6314 25.5489 50.7353 25.412 50.7257C25.2232 50.7024 25.1429 50.6078 25.1429 50.6078C25.1429 50.6078 24.5154 50.6644 23.1232 49.8151C21.9195 49.0787 21.3956 48.4275 21.3956 48.4275C21.2829 48.3866 21.1741 48.336 21.0702 48.2763C20.6172 48.0405 19.9894 47.5496 20.0083 46.9074L20.0059 46.9121Z" fill="#C2A44D"/>
<path fill-rule="evenodd" clip-rule="evenodd" d="M37.3695 18.5852C37.4787 18.6207 37.5757 18.6861 37.6495 18.7741C37.8713 19.0289 38.0129 19.5102 37.508 20.0247C37.7061 20.0954 37.788 20.1181 37.961 20.0954C37.7864 20.3032 37.3901 20.7468 37.3664 21.1339C37.3428 21.4499 37.5409 21.5445 37.5409 21.5445C37.5409 21.5445 37.2389 21.8936 37.2249 22.4779C37.3675 22.317 37.5236 22.1686 37.6915 22.0342C38.0409 21.7558 38.5222 21.4397 38.8479 21.2415C38.8435 21.3246 38.8547 21.4077 38.8809 21.4867C38.8809 21.4867 39.4895 20.9864 40.0009 21.2085C40.2321 21.3124 40.1282 21.6379 40.1282 21.6379C40.1282 21.6379 40.4446 21.5199 40.6664 21.7418C40.8882 21.9636 41.2018 22.5357 41.3627 22.7575C41.4333 22.8615 41.6175 23.0596 41.806 23.3664C42.0636 23.7959 42.2787 24.2494 42.4482 24.7207C42.4575 24.4752 42.5188 24.0931 43.2175 24.3336C43.916 24.5791 44.7087 25.0937 45.3742 26.107C46.0397 27.1203 46.2046 28.2642 46.5396 28.6998C46.8794 29.1198 47.2288 29.8182 47.2524 30.111C47.276 30.4037 47.1485 31.3473 47.8469 33.9006C48.0451 33.1079 48.3472 31.3473 48.3472 31.3473L48.5124 29.7946L48.7013 24.9901L43.6842 20.8221L39.7623 17.9761L37.209 18.2215L37.3692 18.5849L37.3695 18.5852Z" fill="#CAA13E"/>
<path fill-rule="evenodd" clip-rule="evenodd" d="M46.6907 25.7353C46.6907 25.7353 46.6198 25.2686 45.44 24.4753C44.26 23.6919 43.3397 23.6919 42.4904 23.0264C41.8389 22.5025 41.1595 21.2988 40.7171 20.9025C40.2874 20.5108 40.2168 19.378 40.2168 19.378L41.6656 18.1647L43.8204 15.0502L45.642 13.0444L46.5149 14.2578L47.7283 15.683L48.4031 18.543L48.6485 22.7293L46.6885 25.7356L46.6907 25.7353Z" fill="#B59544"/>
<path fill-rule="evenodd" clip-rule="evenodd" d="M48.1491 30.7534C48.1848 30.1185 48.1064 29.4824 47.9176 28.8752C47.6065 27.9076 46.9267 26.1897 46.611 25.5463C46.4834 24.8335 46.578 24.7769 46.7149 24.6966C46.8518 24.6164 47.3663 24.3233 47.6482 23.2951C47.9301 22.2669 48.8046 22.2333 48.8046 22.2333L49.3425 21.8369L50.1592 23.8803L50.8717 25.7258L51.0935 27.137L51.2587 28.3404L50.8717 30.8843L48.9605 32.6116L48.1488 30.7534H48.1491Z" fill="#C89D3A"/>
<path fill-rule="evenodd" clip-rule="evenodd" d="M21.4785 59.1077V59.0555C21.5182 59.0306 21.5533 58.999 21.5821 58.9621C21.6151 58.9148 21.639 58.8582 21.6624 58.8442C21.7097 58.8206 21.9315 58.7509 22.0494 58.7733C22.1673 58.7957 22.479 58.9242 22.6442 58.9148C22.984 58.9055 23.3803 58.6457 24.0082 58.7639C24.9521 58.9385 25.1739 59.5803 25.7215 59.9437C26.0948 60.1988 26.4812 60.0853 26.5378 60.0853H26.665C26.6887 60.0853 26.8632 59.8871 26.9578 59.8967C27.1467 59.906 27.1653 60.0619 27.2832 60.0713C27.5617 60.1042 28.0999 59.9297 28.369 60.0006C28.4488 60.0256 28.5214 60.0695 28.5805 60.1286C28.6397 60.1877 28.6837 60.2603 28.7087 60.3401C28.7654 60.5146 28.7181 60.7364 28.5812 60.864C28.2887 61.1328 28.0103 61.3879 27.9537 61.6107C28.0257 61.6656 28.0948 61.7241 28.1609 61.7861C25.8257 61.1912 23.579 60.2916 21.4785 59.1105V59.1077Z" fill="#CEB052"/>
<path fill-rule="evenodd" clip-rule="evenodd" d="M46.6094 49.6778C46.6094 49.6778 47.3455 48.6962 47.6006 48.2099C47.8554 47.7087 46.7935 41.3621 46.7935 41.3621L48.9268 34.3727L48.8699 32.0978C48.8699 32.0978 48.9738 29.9975 49.2193 29.0866C49.512 29.6105 50.4229 30.243 50.6211 30.578C50.7144 29.9359 51.0315 28.5816 50.9845 27.1375C51.159 27.4063 51.579 30.1107 51.579 30.1107L51.999 31.9323L52.5466 33.8674L53.1554 35.9111L53.5188 37.3223L53.7263 37.662L53.9011 38.2566L54.0663 38.8987L54.5429 40.4042L54.8229 41.6405L55.0448 43.8824C55.093 44.054 55.1278 44.2292 55.1487 44.4063C55.158 44.6518 55.1157 44.7933 55.1157 44.8359C55.1157 44.8786 55.196 45.3739 55.163 45.7469C55.1157 46.1202 55.1157 46.4123 54.8229 46.6802C54.5302 46.9481 54.3463 48.5491 54.3463 48.5491L53.8224 48.2C53.8224 48.2 53.9263 47.7231 53.6809 47.2891C53.4354 46.8551 52.9588 46.7651 52.6897 46.8361C52.4209 46.8927 51.883 46.9773 51.7081 47.1285C51.5429 47.2794 51.1372 47.7467 50.7642 47.9592C50.2976 48.2392 49.5372 48.2613 49.1315 48.3555C48.7209 48.4489 48.2679 48.7289 47.791 49.054C47.417 49.2961 47.0222 49.5043 46.6112 49.6762L46.6094 49.6778Z" fill="#CCA847"/>
<path fill-rule="evenodd" clip-rule="evenodd" d="M46.6094 59.9898C46.6094 59.9898 46.6405 60.0101 46.7005 60.043C50.0535 58.4721 53.0579 56.2453 55.5361 53.4941C55.509 52.539 55.4739 51.56 55.4353 51.1972C55.3553 50.4278 55.4119 49.6445 55.3883 49.1915C55.3647 48.7385 55.1099 46.893 54.9919 46.4164C54.8644 45.9397 54.6186 45.7036 54.5813 45.7036C54.5483 45.7133 54.3498 46.6005 54.3498 46.8236C54.3498 47.0467 54.3025 47.5837 54.3025 47.7205C54.2695 47.7109 54.2555 47.6272 54.2555 47.593C54.2083 47.7109 54.1516 47.9187 54.128 47.9424C54.1043 47.966 54.161 47.7442 54.128 47.6969C54.095 47.6496 54.0347 47.6733 54.0477 47.5553C54.0533 47.4854 54.0643 47.416 54.0807 47.3478C54.0807 47.3478 53.9391 47.5553 53.8355 48.0839C53.7316 48.6078 53.7316 48.6221 53.694 48.6691C53.661 48.7261 53.4722 48.9146 53.4625 48.9855C53.4532 49.1128 53.6374 49.2403 53.6514 49.3109C53.6607 49.4292 53.4862 49.9764 53.4296 50.2443C53.3729 50.5121 53.3966 51.037 53.3362 51.3061C53.2889 51.5516 53.2429 51.6931 53.0814 51.7967C53.1993 51.8204 53.3126 51.8533 53.3126 51.8533C53.3126 51.8533 53.4778 52.5518 53.0578 53.1466C52.9069 53.3541 52.8692 53.4487 52.7087 53.6376C52.3923 53.9866 52.1468 54.3842 52.1232 54.6428C52.1069 54.5665 52.0958 54.4891 52.0902 54.4113C52.0902 54.4113 51.5996 54.9825 51.3918 55.3082C51.123 55.7282 50.75 55.7046 50.6451 55.8085C50.5403 55.9124 50.5176 56.1009 50.5518 56.2521C50.4584 56.2755 50.283 56.3088 50.1647 56.6721C50.1081 56.8607 49.9666 57.0455 49.7447 57.1724C49.5229 57.2993 49.2538 57.3376 49.1169 57.3706C49.2348 57.4036 49.2821 57.4036 49.3388 57.4412C49.2681 57.5591 48.9424 57.7433 48.579 57.9794C48.2156 58.2013 48.0408 58.5267 47.9512 58.7392C47.8579 58.9373 47.72 59.0649 47.4982 59.0885C47.5916 59.1452 47.7297 59.2771 47.8003 59.3197C47.6964 59.3433 47.5203 59.3433 47.2058 59.6125C46.8754 59.8862 46.7621 59.9665 46.6109 59.9901L46.6094 59.9898Z" fill="#C39D3C"/>
<path fill-rule="evenodd" clip-rule="evenodd" d="M40.0435 62.1771C40.2243 62.0504 40.42 61.9467 40.6263 61.8682C41.3623 61.5757 42.1411 61.5191 42.4478 61.4248C42.7406 61.3315 42.9717 61.2027 43.3351 61.1321C43.3255 61.2148 43.3174 61.2926 43.3087 61.366C42.2374 61.7028 41.1464 61.9737 40.042 62.1771H40.0435Z" fill="#D2BA6B"/>
<path fill-rule="evenodd" clip-rule="evenodd" d="M53.6201 42.8156C53.6201 42.8156 53.4692 43.632 53.2001 44.1466C52.931 44.6611 52.6401 45.3736 52.6401 45.3736C52.6418 45.213 52.6608 45.0531 52.6967 44.8967C52.357 45.0948 51.531 45.5718 51.2967 45.7839C51.0749 45.9821 50.7019 46.3315 50.6076 46.4967C50.8294 45.8455 51.0606 45.2603 51.0985 44.9912C50.7588 45.2367 49.1727 46.544 48.3471 47.4076L45.7748 49.489C45.478 49.6491 45.1723 49.7922 44.8592 49.9177C44.4159 50.1062 43.892 50.2667 43.5049 50.4179C43.6088 50.1395 43.7737 49.8937 44.0052 49.6579C44.2507 49.4267 44.9868 48.6291 45.1 48.2579C45.2039 47.8709 45.2276 47.6397 45.0907 47.314C44.9631 47.347 44.6707 47.3613 44.4725 47.4179C44.2743 47.4745 44.0618 47.6867 44.0618 47.6867C44.0618 47.6867 44.2127 46.8231 44.5384 46.0067C44.293 46.016 43.873 46.0867 43.873 46.0867C43.873 46.0867 44.4582 45.1051 45.4596 44.421C45.1529 44.4862 44.8528 44.5793 44.563 44.6991C43.9778 44.9446 43.336 45.3079 42.8594 45.5061C43.1282 45.1328 45.016 42.4386 46.1394 39.9276C47.2594 37.4216 47.6779 36.7798 47.9233 35.4348C48.0506 34.7694 48.0167 33.7859 48.0506 32.9052C48.0835 32.0319 48.1921 31.2485 48.1215 30.7246C48.4139 31.088 49.5091 32.1122 49.5467 34.4013C49.5797 36.6902 48.4992 39.7817 47.3521 41.4474C47.6321 41.5276 48.3576 41.6222 49.1031 40.3274C49.8485 39.0325 49.8395 38.671 50.1086 38.1328C50.1415 38.4019 50.1319 38.4962 50.1319 38.4962C50.1319 38.4962 51.2177 37.1795 51.7319 35.5229C51.8359 36.2356 52.1426 36.8635 51.661 38.1707C51.2317 39.3505 50.6701 39.6386 50.6701 39.6386C50.6701 39.6386 50.9486 39.5913 51.3589 39.3458C51.4299 39.5203 51.4159 39.7191 51.5338 39.7895C51.6517 39.8598 51.8122 39.9783 51.8359 40.0915C51.9631 39.9027 52.1613 39.6619 52.2229 39.4827C52.1756 39.856 52.1426 41.4884 52.3162 42.3191C52.6799 42.2861 53.0526 42.2625 53.3074 41.6063C53.1329 42.2485 53.1329 42.6352 53.2508 43.1827C53.4443 43.0508 53.6188 42.8147 53.6188 42.8147L53.6201 42.8156Z" fill="#C0993A"/>
<path fill-rule="evenodd" clip-rule="evenodd" d="M41.3576 16.8015C41.3576 16.8015 40.9942 16.9524 40.376 16.9524C39.8381 16.9524 39.989 16.7449 39.149 16.7449C37.856 16.7449 33.3392 17.4915 32.5462 17.481C32.0316 17.4716 34.2828 17.7028 34.2828 17.7028L40.0363 17.7831L41.1924 17.6897L41.6221 16.8155L41.3576 16.8015Z" fill="#A88F33"/>
<path fill-rule="evenodd" clip-rule="evenodd" d="M26.439 28.0481C26.439 28.0481 25.7026 28.6097 25.3912 29.0393C25.0798 29.469 24.9146 29.7518 24.5605 30.1012C24.6437 30.1043 24.7267 30.0932 24.806 30.0682C24.806 30.0682 24.806 30.1615 24.7494 30.1861C24.7983 30.1806 24.8479 30.1862 24.8944 30.2023C24.9409 30.2185 24.9832 30.2448 25.0182 30.2794C24.9143 30.3361 24.6312 30.6195 24.853 30.9545C25.0182 31.2093 25.3676 31.2327 25.3676 31.2327C25.3676 31.2327 25.2873 31.4641 25.6224 31.4405C26.3445 31.4075 27.1515 31.0911 27.5242 31.1714C27.8975 31.2647 28.1097 31.2989 28.3738 31.7569C28.6538 32.2099 28.8977 32.2808 28.8977 32.2808C28.8977 32.2808 29.0629 31.8605 29.0253 31.233C29.1608 30.8947 29.2358 30.5354 29.2471 30.1712L29.0017 28.3636L27.9305 27.009L26.5429 27.7784L26.439 28.0472V28.0481Z" fill="#E3C571"/>
<path fill-rule="evenodd" clip-rule="evenodd" d="M27.7559 27.7791C27.7559 27.7791 27.8598 28.0245 28.2941 28.0479C28.2468 28.1518 28.2468 28.1661 28.2611 28.246C28.2704 28.3263 28.2844 28.4442 28.2844 28.4442C28.3323 28.4211 28.3755 28.3894 28.412 28.3509C28.4356 28.4548 28.3883 28.6197 28.412 28.7379C28.4266 28.8098 28.4503 28.8795 28.4826 28.9454C28.4895 28.9293 28.4974 28.9136 28.5063 28.8984C28.5156 28.8748 28.5996 29.1532 28.832 29.3651C28.8318 29.3325 28.8398 29.3004 28.8553 29.2718C28.8589 29.3309 28.8785 29.388 28.9119 29.437C28.8946 29.4287 28.8787 29.4175 28.865 29.404C28.865 29.404 28.8883 30.1507 29.0159 30.5367C29.0372 30.5118 29.0561 30.4849 29.0725 30.4565C29.0725 30.4331 29.0631 30.6643 29.0395 30.8298C29.0065 30.995 29.0302 31.2262 29.0302 31.2262C29.1153 31.1592 29.2088 31.1036 29.3083 31.061C29.4499 31.004 29.6816 30.8295 29.8229 30.4425C29.9048 30.2233 29.968 29.9975 30.0117 29.7677C30.0574 29.8555 30.0889 29.95 30.1051 30.0477C30.1147 30.1656 30.3365 30.1043 30.3365 30.1043L30.3838 29.5897L30.6638 28.424L30.9186 27.7019L32.1456 25.7907L34.3626 24.0834L36.2977 24.527L37.9304 22.3088L35.1177 20.6191L32.4558 20.8976L30.04 24.2436L28.1052 27.2785L27.7559 27.7787V27.7791Z" fill="#D8B65B"/>
<path fill-rule="evenodd" clip-rule="evenodd" d="M41.6974 22.937C41.6974 22.937 41.5322 22.9699 41.0556 23.217C40.5789 23.464 40.2485 23.5424 40.0644 23.9058C39.8802 24.2692 39.8662 24.5572 39.8662 24.5572C39.8662 24.5572 40.1919 24.4157 40.3808 24.3684C40.5789 24.3214 40.8008 24.3354 40.7771 24.4157C40.7544 24.4707 40.7229 24.5217 40.6838 24.5666C40.6838 24.5666 41.0571 24.5572 41.0472 24.7414C41.0372 24.9256 40.9765 25.1285 40.9059 25.2181C40.835 25.3114 40.5425 25.4495 40.5096 25.5581C40.4293 25.7799 40.5425 25.7893 40.4999 25.9685C40.4669 26.1433 40.3114 26.483 39.8015 27.0776C39.2776 27.6724 39.0548 28.0924 39.0548 28.0924C39.0548 28.0924 38.8 27.6158 38.6678 27.2051C38.5744 27.2521 38.0732 27.5306 38.0732 27.5306L36.9122 23.4861L36.9355 23.217C36.9355 23.217 37.0394 23.0897 37.0631 22.8536C36.8885 22.797 36.8649 22.7497 36.6334 22.5282C36.4019 22.3067 36.2134 22.0372 35.8267 21.853C35.7701 21.7491 35.6991 21.6079 35.416 21.551C35.1329 21.494 34.963 21.4474 34.963 21.4474C34.963 21.4474 35.1139 21.3904 35.1849 21.2725C35.01 21.2962 34.8688 21.3528 34.4864 21.3434C34.0994 21.3338 34.0568 21.3198 33.8446 21.3528C33.6324 21.3858 33.3779 21.4803 33.283 21.1546C33.1791 21.0743 32.9573 21.1453 32.7684 21.4234C32.5796 21.7015 32.5136 21.9237 32.1503 22.0323C32.1247 22.1924 32.0686 22.3462 31.9851 22.4852C31.8812 22.6601 31.716 22.8346 31.4941 23.0941C31.1447 23.5048 31.2014 24.1796 30.6445 24.6941C30.0829 25.2084 30.7378 23.2686 30.7378 23.2686L31.6344 21.1219L34.1877 18.6252L38.1523 18.3564L38.5393 20.4098L40.4744 21.0753L41.6968 22.9395L41.6974 22.937Z" fill="#D3AE4D"/>
<path fill-rule="evenodd" clip-rule="evenodd" d="M42.3248 23.3897L40.6588 20.9876L39.4931 20.0907C39.4931 20.0907 38.6625 18.5619 38.6059 18.5147C38.5586 18.4817 37.7752 18.3967 37.275 18.3638L37.3683 18.5949C37.4775 18.6304 37.5745 18.6958 37.6483 18.7838C37.8701 19.0386 38.0117 19.5198 37.5067 20.0344C37.7049 20.105 37.7867 20.1277 37.9597 20.105C37.7852 20.3129 37.3888 20.7565 37.3652 21.1435C37.3415 21.4596 37.5397 21.5539 37.5397 21.5539C37.5397 21.5539 37.2376 21.9032 37.2236 22.4872C37.3663 22.3263 37.5224 22.1779 37.6903 22.0435C38.0397 21.7636 38.5209 21.4487 38.8467 21.2505C38.8422 21.3337 38.8534 21.417 38.8796 21.496C38.8796 21.496 39.4882 20.9957 39.9996 21.2176C40.2308 21.3215 40.1268 21.6472 40.1268 21.6472C40.1268 21.6472 40.4432 21.5293 40.6651 21.7511C40.8869 21.9729 41.203 22.5438 41.3635 22.7659C41.4341 22.8698 41.6183 23.068 41.8068 23.3745C42.0644 23.804 42.2795 24.2577 42.4489 24.729C42.4583 24.5402 42.4962 24.2761 42.8222 24.2761L42.3267 23.3888L42.3248 23.3897Z" fill="#CAA13E"/>
<path fill-rule="evenodd" clip-rule="evenodd" d="M17.3493 30.2145C17.3493 30.2145 17.2314 29.9217 17.3493 29.3509C17.4672 28.78 17.6514 28.5109 17.7127 27.6709C17.7739 26.8309 18.3215 25.783 18.3215 25.783L19.8363 25.0942L20.9078 25.3867L21.2238 26.8215L19.8693 27.5682C19.8693 27.5682 19.7986 27.8843 19.4163 28.1391C19.0339 28.3939 18.5054 28.5921 18.3781 28.8518C18.3021 29.0109 18.2465 29.179 18.2129 29.3521C18.2129 29.3521 17.8259 29.2718 17.5947 29.5266C17.3493 29.7864 17.3586 30.0176 17.3493 30.2157V30.2145Z" fill="#F4EFC8"/>
<path fill-rule="evenodd" clip-rule="evenodd" d="M20.4072 29.832C20.4072 29.832 20.2796 29.9123 20.1854 30.112C20.092 29.9611 19.869 29.0642 19.8596 28.2572C19.8503 27.4502 19.8021 27.2501 19.9888 26.972C20.1754 26.6939 20.9075 26.4008 20.8036 25.8999C20.6996 25.4233 20.2653 25.2251 19.7321 25.362C19.3588 25.4553 19.0809 26.2493 18.6939 26.6456C18.4012 26.9477 18.0521 26.9004 17.9578 27.0656C17.8303 27.2875 17.9482 27.5093 17.9105 27.6508C17.9009 27.6981 17.783 27.9529 17.5705 28.2597C17.1412 28.8778 16.4144 29.7511 16.3198 30.5345C16.3528 30.0909 16.3295 30.0815 16.4474 29.5906L16.3764 29.4727L16.8431 27.9436L17.1452 26.6836L17.8203 24.5737L19.0094 22.4171L20.1658 21.1238L21.3692 21.204L21.5107 23.0116L22.1998 26.4052L23.6487 28.1891L21.3265 29.7518L20.4063 29.832H20.4072Z" fill="#EBCC73"/>
<path fill-rule="evenodd" clip-rule="evenodd" d="M21.1295 30.4733C21.1295 30.4733 20.9313 30.5206 20.8603 30.483C20.7894 30.4453 20.7191 30.4027 20.7424 30.3554C20.7658 30.3081 20.8933 30.2282 20.8933 30.1902C20.8959 30.1559 20.8851 30.1219 20.8631 30.0955C20.8411 30.0691 20.8096 30.0523 20.7754 30.0486C20.6668 30.0346 20.6339 30.1053 20.6339 30.1053C20.6339 30.1053 20.5299 30.0253 20.4453 30.0119C20.4954 30.0058 20.5458 30.0026 20.5962 30.0023C20.4658 29.9432 20.3274 29.9035 20.1855 29.8844C20.3035 29.8137 20.5349 29.6059 20.6858 29.6059C20.8367 29.6059 20.9313 29.5826 20.9076 29.5023C20.884 29.422 20.7661 29.3041 20.6388 29.2568C20.6858 29.2002 20.7191 29.1153 20.6059 28.8835C20.4876 28.6523 20.5349 28.4965 20.5729 28.4401C20.6059 28.3692 20.7238 28.242 20.7804 28.1617C20.837 28.0814 20.8843 27.9728 20.9786 27.9162C21.0259 27.8832 21.1767 27.8229 21.3279 27.7653C21.4931 27.7087 21.63 27.6378 21.7243 27.7087C21.8282 27.7793 21.7809 27.8739 21.7809 27.8739C21.7809 27.8739 22.1067 27.7557 22.3991 27.9069C22.6919 28.0481 23.4046 28.1381 23.4046 28.1381L23.66 28.6526L21.9704 30.1015L21.2719 30.4509L21.1304 30.4742L21.1295 30.4733Z" fill="#E5C66B"/>
<path fill-rule="evenodd" clip-rule="evenodd" d="M23.475 28.1046C23.475 28.1046 22.9511 28.454 22.8332 28.5813C22.9038 28.5909 23.0217 28.6382 22.9744 28.7088C22.9178 28.7794 22.5781 29.0249 22.3892 29.2564C22.1911 29.4875 22.0022 29.7803 21.9363 29.9218C21.8656 30.0491 21.3274 30.4221 21.1436 30.4691C21.5306 30.4691 22.3093 29.9925 22.6017 29.9925C22.5924 30.134 22.682 30.2946 22.8472 30.3086C23.0124 30.3226 23.489 30.4125 24.1308 30.0161C24.7727 29.6291 24.5605 29.341 24.8293 29.1525C25.3439 28.8124 25.5514 28.5103 25.8345 28.3218C26.1176 28.1333 26.2641 28.0903 26.2641 28.0903C26.2641 28.0903 26.2735 27.9488 26.3575 27.9631C26.3805 27.9657 26.4023 27.9746 26.4206 27.9887C26.4389 28.0029 26.453 28.0218 26.4614 28.0434C26.4614 28.0434 26.9523 27.694 27.5814 27.5997C27.5667 27.5931 27.555 27.5814 27.5484 27.5667C27.5484 27.5667 27.5954 27.5431 27.605 27.5194C27.605 27.5194 27.638 27.4722 27.6616 27.4958C27.6853 27.5194 27.7183 27.694 27.7656 27.7649C27.8695 27.7176 28.0676 27.274 28.0676 27.274L28.5446 25.9101V24.6641L28.1712 24.735L25.3712 25.9241L23.672 27.6846L23.4738 28.1046H23.475Z" fill="#E6BD62"/>
<path fill-rule="evenodd" clip-rule="evenodd" d="M31.5358 21.993C31.6872 21.9563 31.8324 21.8973 31.9667 21.8182C31.9101 21.9694 31.9101 22.1346 31.6646 22.4933C31.4191 22.852 31.4098 22.9039 31.2116 23.2767C31.0134 23.6637 30.9898 24.2206 30.8009 24.4657C30.8856 24.4246 30.9764 24.3976 31.0697 24.3858C31.0697 24.3858 30.8812 24.551 30.8009 24.7255C30.7207 24.9001 30.5791 25.2634 30.23 25.4856C29.881 25.7077 29.437 25.849 28.9604 26.3729C28.4835 26.8871 27.9928 27.5386 27.7471 27.7729C27.8746 27.5511 28.0492 27.1074 28.0964 26.815C28.1437 26.5225 28.0868 26.1728 28.1671 25.7861C28.2473 25.3994 28.2473 25.1206 28.6337 24.4455C29.0201 23.7704 29.6816 21.4249 29.6816 21.4249L31.1068 20.9719L31.5364 21.9914L31.5358 21.993Z" fill="#B6933F"/>
<path fill-rule="evenodd" clip-rule="evenodd" d="M30.5068 21.1293C30.5068 21.1293 30.0775 21.7475 29.9596 22.2951C29.8417 22.8426 29.95 22.7953 29.8793 23.0644C29.8371 23.2285 29.8371 23.4006 29.8793 23.5647C30.028 23.3252 30.2316 23.1245 30.4732 22.9792C30.8792 22.734 31.2096 22.5592 31.4066 22.3517C31.6047 22.1299 31.7699 21.7665 32.1993 21.488C32.0247 21.4644 31.7793 21.3841 31.7326 21.3947C31.9075 21.1965 32.431 20.8944 32.9596 20.5311C33.4835 20.1577 33.4506 20.0071 34.3002 19.6344C34.0217 19.6817 33.8895 19.6108 33.6581 19.6344C33.7514 19.4363 34.0781 19.3417 34.4047 19.0163C34.7314 18.6908 34.1972 18.2092 34.1972 18.2092L31.7083 19.7147L30.505 21.1306L30.5068 21.1293Z" fill="#C49937"/>
<path fill-rule="evenodd" clip-rule="evenodd" d="M23.7539 20.0061L23.8105 19.5531L24.5233 18.411L25.269 16.4053V13.6632L25.2124 12.0774L25.3303 11.0389L25.4199 10.7089L25.5145 10.5813L26.123 10.8974L26.9633 12.0395L27.0436 14.2437L26.2269 17.7219L23.8955 20.2659L23.7539 20.0061Z" fill="#DFC068"/>
<path fill-rule="evenodd" clip-rule="evenodd" d="M25.6083 10.4536C25.6083 10.4536 25.235 10.4632 25.1553 12.016C25.0757 13.5687 25.0371 14.3851 24.9805 15.1545C24.9239 15.9239 24.7919 16.3908 24.7257 16.8441C24.6594 17.2974 24.6218 17.9153 24.4096 18.293C24.3163 18.4675 24.1168 19.0151 23.6496 19.4257C23.1256 19.8787 22.3429 20.1951 22.2244 20.2187C22.0165 20.2657 20.9641 20.3696 20.5347 20.6058C20.3838 20.686 20.1241 20.7803 19.8363 21.0494C19.2651 21.5637 18.5054 22.4839 17.9578 23.5931C17.1178 25.2497 16.2778 29.9267 16.2778 29.9267L16.4667 29.6106C16.4667 29.6106 16.4903 29.1906 16.9103 28.4542C17.321 27.7181 17.2031 26.8921 17.774 25.4809C17.9958 24.943 18.2742 24.2445 18.6139 23.6497C19.1522 22.6821 19.8033 21.8515 20.4594 21.3985C21.5306 20.6624 22.7106 20.5019 22.7106 20.5019L23.9803 19.6619C23.9803 19.6619 24.2021 19.2325 24.4948 18.7416C24.9052 18.0528 25.4282 17.2834 25.5423 16.165C25.7172 14.5083 25.2969 13.4228 25.3205 12.4413C25.3442 11.4597 25.3535 10.7376 25.552 10.5628C25.7505 10.3879 25.6086 10.4542 25.6086 10.4542L25.6083 10.4536Z" fill="#A88F33"/>
<path fill-rule="evenodd" clip-rule="evenodd" d="M25.6083 17.8635C25.6083 17.8635 26.1683 16.4853 26.4247 15.2629C26.4719 15.0174 26.5662 14.7723 26.5899 14.5741C26.7078 13.4177 26.7408 12.9411 26.5899 12.3086C26.4719 11.8419 26.019 11.4213 25.7828 11.0953C25.5517 10.7552 25.4431 10.6286 25.4904 10.557C25.5377 10.4855 25.7215 10.3685 25.9007 10.3825C26.0912 10.388 26.2786 10.4323 26.4515 10.5125C26.6243 10.5927 26.7791 10.7073 26.9063 10.8492C27.2697 11.2692 27.5574 12.6947 27.5574 12.6947L27.8602 14.5757L28.6296 16.9448L25.6089 17.8653L25.6083 17.8635Z" fill="#C99E3D"/>
<path fill-rule="evenodd" clip-rule="evenodd" d="M30.8707 16.4286C30.8707 16.4286 30.7668 16.4756 30.5782 16.4286C30.5863 16.5057 30.5729 16.5834 30.5396 16.6534C30.5063 16.7233 30.4543 16.7827 30.3894 16.825C30.1912 16.7447 28.3361 16.9052 28.3361 16.9052C28.3361 16.9052 27.4724 16.754 27.2033 15.6119C27.0148 14.8519 27.3449 13.8044 27.2363 13.1153C27.0711 12.1004 26.8399 11.9019 26.8163 11.5862C26.7926 11.2704 26.769 11.1898 26.769 10.9916C26.6651 10.968 26.6038 10.935 26.5002 10.935C26.4765 10.8417 26.5235 10.7602 26.4199 10.595C26.4765 10.6186 26.8636 10.6659 27.3165 11.0952C27.6899 11.4446 27.6899 11.5719 27.7462 11.6428C27.8168 11.7134 28.388 12.2028 28.6335 12.6906C28.8789 13.1784 29.3556 14.734 29.4641 14.9888C29.4971 15.0927 29.5681 15.1966 29.7441 15.4324C30.0179 15.7725 30.4189 16.3347 30.8719 16.428L30.8707 16.4286Z" fill="#B58634"/>
<path fill-rule="evenodd" clip-rule="evenodd" d="M27.8125 11.6665C28.0984 12.1284 28.3553 12.6076 28.5816 13.1013C28.86 13.7289 29.0252 14.2434 29.3746 14.6634C29.1857 14.1162 28.8507 13.0401 28.6525 12.6577C28.4307 12.2533 27.9777 11.8177 27.8125 11.6668V11.6665Z" fill="#A88F33"/>
<path fill-rule="evenodd" clip-rule="evenodd" d="M24.6028 19.4256C24.6028 19.4256 24.1262 19.5435 23.239 20.0108C22.9462 20.1617 22.6681 20.2889 22.399 20.4072C21.6999 20.7232 20.9502 21.0154 20.3553 21.1765C20.4026 21.2332 20.426 21.2565 20.426 21.2565C20.426 21.2565 20.426 21.488 20.5535 21.6199C20.4829 21.6908 19.5387 22.3326 19.8174 24.4799C20.006 24.4093 20.2278 24.3147 20.2608 24.3147C20.3177 24.3244 20.3317 24.4799 20.4023 24.4799C20.4729 24.4799 20.7044 24.3866 20.9499 24.0692C20.9405 24.1968 20.799 25.4804 21.5587 26.3441C21.7002 26.1789 22.0589 25.6313 22.0589 25.6313L22.0683 25.4568C22.0683 25.4568 22.1013 24.848 22.2997 24.2911C22.4982 23.7342 22.8849 23.3235 22.8849 23.3235L24.9043 20.4398L24.6022 19.4253L24.6028 19.4256Z" fill="#E6C367"/>
<path fill-rule="evenodd" clip-rule="evenodd" d="M22.7151 23.66C22.6226 23.7253 22.5208 23.7762 22.413 23.8109C22.38 23.693 22.3327 23.287 22.6112 22.8906C22.9369 22.4137 23.6494 21.7955 23.8475 21.3039C23.9751 20.9875 23.9185 20.1948 25.0512 19.18C26.184 18.1651 26.6273 17.816 26.6273 17.816L28.4585 16.8958L30.7097 17.7831L29.5913 22.1667L28.723 24.22L25.2696 23.5688L22.7148 23.66H22.7151Z" fill="#DCBA5A"/>
<path fill-rule="evenodd" clip-rule="evenodd" d="M24.0332 22.4698L24.4629 21.9318V21.5495C24.4629 21.5495 24.9395 21.4219 25.4537 20.898C25.968 20.3741 26.6808 19.3689 27.3086 19.4302C27.9364 19.5011 27.9977 20.7941 28.0214 21.1578C28.045 21.5215 28.1253 22.3469 28.2525 22.7908C28.3941 23.2345 26.7234 24.9145 26.7234 24.9145L25.5888 25.7782L24.0332 22.4698Z" fill="#E9CE77"/>
<path fill-rule="evenodd" clip-rule="evenodd" d="M25.3633 26.9484C25.3633 26.9484 25.7126 26.4009 25.4566 26.283C25.6075 25.9432 25.8859 25.5845 25.8859 25.5845C25.8859 25.5845 26.0841 25.0939 26.7259 24.4897C27.3677 23.8855 27.7644 23.4842 27.8683 23.0785C27.9323 22.8141 27.9672 22.5435 27.9722 22.2715C28.0416 22.3282 28.1158 22.3787 28.194 22.4224C28.2979 22.4697 28.7885 22.8754 28.7179 23.692C28.6473 24.5087 28.3446 24.8484 28.3446 24.8484C28.3446 24.8484 28.0521 25.1409 27.8446 25.2921C27.6225 25.443 27.5426 25.6175 27.1695 25.6318C27.2079 25.6013 27.251 25.5773 27.2971 25.5609C27.2971 25.5609 26.9101 25.5139 26.7023 25.7024C26.4945 25.891 26.0527 26.4718 25.8309 26.6466C25.6091 26.7882 25.3642 26.9487 25.3642 26.9487L25.3633 26.9484Z" fill="#CDAE50"/>
<path fill-rule="evenodd" clip-rule="evenodd" d="M41.0549 17.7688C40.4974 17.5656 39.9114 17.451 39.3183 17.4291C38.3271 17.3961 36.8783 17.4527 35.4578 17.4621C33.9287 17.4714 32.5412 16.9382 30.6157 16.8439C30.2996 16.655 29.4957 15.829 26.9863 17.58C27.1372 17.5707 28.8082 17.193 29.3884 17.92C29.9736 18.6421 29.8084 19.8692 29.7284 20.1616C29.5772 20.8131 29.0863 21.7617 28.8884 22.4271C28.6906 23.0926 28.7372 23.4423 28.5957 23.909C28.4541 24.3756 28.1427 24.6074 28.3266 25.1453C28.572 24.9944 28.6999 24.9944 29.11 24.0742C29.52 23.1539 29.4357 22.4978 30.1155 21.719C30.7809 20.9357 31.8888 19.8642 32.31 19.5951C32.7312 19.326 36.076 17.5893 39.5781 19.246C40.4228 19.1564 41.0552 17.7685 41.0552 17.7685L41.0549 17.7688Z" fill="#D2A83E"/>
<path fill-rule="evenodd" clip-rule="evenodd" d="M28.3974 17.1264C28.394 17.091 28.3861 17.0561 28.3741 17.0225C28.3414 16.9535 28.2983 16.8898 28.2465 16.8337C28.2465 16.8337 27.4159 16.6828 26.9959 16.7298C26.2595 16.81 25.594 17.721 25.2826 18.1883C24.9712 18.6556 24.5842 19.3774 24.1642 19.7504C24.1688 19.714 24.1604 19.6772 24.1405 19.6465C24.1405 19.6465 24.1642 19.6794 24.1172 19.7267C24.0702 19.774 24.0699 19.7974 24.0936 19.8201L24.1645 19.8907C24.1878 19.8907 24.8393 19.5979 25.7266 18.7707C26.6705 17.907 27.3926 17.464 27.7702 17.3122C27.9717 17.2266 28.1822 17.1643 28.3977 17.1264H28.3974Z" fill="#C29637"/>
<path fill-rule="evenodd" clip-rule="evenodd" d="M44.5101 13.5781C44.5101 13.5781 44.3589 13.7667 44.1701 13.9745C43.7501 14.4181 43.2025 14.9181 42.7352 15.4327C42.2919 15.9236 41.7916 16.306 41.2298 16.9478C40.6679 17.5896 40.0164 18.3021 39.8515 18.5099C39.7006 18.7177 39.5827 19.0574 39.5827 19.232C39.5025 19.1754 39.4082 19.1141 39.4082 19.1141C39.4479 19.1882 39.4953 19.2578 39.5498 19.3219C39.6677 19.4871 39.8515 19.6952 39.9461 19.8222C40.0621 19.9838 40.1454 20.1665 40.1913 20.3601C40.2479 20.3694 40.6113 20.4403 41.0646 19.6946C41.5179 18.9489 42.1121 18.1325 42.1121 18.1325L43.056 16.7306L43.6508 15.5416L44.3975 14.2106L44.511 13.5781H44.5101Z" fill="#AC8132"/>
<path fill-rule="evenodd" clip-rule="evenodd" d="M45.4782 12.6248C45.4782 12.6248 44.907 13.0914 44.6851 13.3714C44.4633 13.6514 43.9385 14.3863 43.9385 14.3863L44.1273 14.3627L45.0855 13.5133L45.4589 12.8478L45.4779 12.626L45.4782 12.6248Z" fill="#A88F33"/>
<path fill-rule="evenodd" clip-rule="evenodd" d="M45.3023 50.1308C45.3023 50.1308 45.293 49.7438 45.5101 49.5126C45.7319 49.2812 46.2935 48.9414 46.8411 47.6671C47.3886 46.3928 47.4496 46.105 47.4496 46.105C47.4496 46.105 46.468 46.945 45.8629 47.1432C46.0045 46.8505 46.0847 46.643 46.1557 46.4918C46.0754 46.4211 45.7357 46.3409 45.7027 46.3032C45.8912 46.1144 45.9951 45.6518 46.3775 45.345C46.8684 44.9717 47.7651 44.3302 48.4619 43.7583C49.1588 43.1865 50.529 41.8565 50.7038 41.4695C50.8077 41.6204 50.8311 41.7146 50.8311 41.7146C50.8311 41.7146 50.1423 42.6116 49.7835 43.1825C49.4671 43.6734 49.4908 43.9518 49.4908 43.9518L50.1423 43.6718C50.1423 43.6718 50.3308 44.3703 49.4768 45.4324C49.8501 45.2909 50.0007 45.3758 50.2129 45.2576C49.8635 45.4797 49.3822 45.7818 48.9292 46.6122C48.4856 47.4428 47.8814 48.4104 46.8622 49.0142C45.871 49.6514 45.2998 50.128 45.2998 50.128L45.3023 50.1308Z" fill="#A67A2E"/>
<path fill-rule="evenodd" clip-rule="evenodd" d="M42.745 18.2601C42.745 18.2601 42.358 19.0668 42.3014 19.6946C42.2921 19.8458 42.2541 19.9637 42.2541 20.1382C42.2448 20.6998 42.2871 21.3276 42.1608 21.6201C42.1135 21.5021 42.0898 21.4219 42.0426 21.3749C41.9719 21.5731 41.8444 22.1912 41.7405 22.4224C41.6935 22.2715 41.5896 21.7476 41.5992 21.1294C41.6089 20.5113 41.6226 20.393 41.6226 20.2658C41.5992 20.4543 41.4717 20.7094 41.4244 20.8603C41.3538 20.7331 41.2735 20.5679 41.1789 20.431C41.1223 20.5243 41.0517 20.6621 40.9904 20.7331C40.9808 20.6765 40.9574 20.5253 40.9431 20.3131C40.9338 20.0676 40.9195 19.7515 40.9338 19.6853C40.9571 19.558 41.1556 19.0578 41.5756 18.5998C42.0758 18.0523 42.5904 17.0001 42.7413 16.6744C42.8922 16.3486 43.534 14.9944 43.534 14.9944H44.0249L43.3122 16.6177C43.3122 16.6177 42.8828 17.505 42.661 17.8311C42.4392 18.1571 41.9719 19.0914 41.7641 19.4547C41.915 19.2566 42.0426 19.1527 42.1938 18.9638C42.34 18.8316 42.7456 18.2607 42.7456 18.2607L42.745 18.2601Z" fill="#8C6228"/>
<path fill-rule="evenodd" clip-rule="evenodd" d="M45.4868 12.563C45.4066 12.8098 45.2798 13.039 45.1134 13.2381C44.8207 13.5875 44.1929 14.0545 43.8865 14.4272C43.6065 14.7905 43.0465 15.7817 43.301 16.9568C43.3943 16.702 43.5701 16.1971 44.0373 15.6259C44.5046 15.0547 45.0049 14.3989 45.2506 13.8893C45.4958 13.3747 45.5288 12.969 45.5288 12.969L45.6221 12.8511L45.5655 12.582L45.4852 12.563H45.4868Z" fill="#CBA94C"/>
<path fill-rule="evenodd" clip-rule="evenodd" d="M55.0447 43.868C55.0447 43.868 54.8558 43.3538 54.7992 42.8865C54.7426 42.4192 54.8925 42.3265 54.7189 41.7917C54.615 41.466 54.4265 41.5117 54.3792 41.466C54.3319 41.4202 54.2989 40.928 54.3083 40.6589C54.3176 40.3898 54.2989 40.0408 54.2517 39.8896C54.181 39.8329 54.1337 39.7856 54.0298 39.4366C53.9119 39.0872 53.8553 38.9127 53.7987 38.8091C53.7421 38.7055 53.5765 38.6109 53.5765 38.507C53.5765 38.2992 53.7654 38.1909 53.7654 38.1336C53.7561 38.0157 53.6145 38.1103 53.5765 38.077C53.5296 38.0204 53.6948 37.6807 53.6335 37.6334C53.6098 37.61 53.4446 37.8082 53.402 37.7516C53.3547 37.6947 53.2981 37.1331 53.2132 36.7604C53.1332 36.397 53.048 36.1329 53.0386 36.0243C53.0293 35.9204 52.3872 34.0892 52.2316 33.6456C52.1062 33.2707 52.0007 32.8894 51.9155 32.5035C51.8682 32.2816 51.8352 31.8284 51.8116 31.8756C51.7879 31.9229 51.8023 32.1541 51.7643 32.1447C51.7313 32.1351 51.6134 31.3284 51.5758 31.2008C51.5428 31.0733 51.3443 30.6408 51.2958 30.3279C51.2485 30.0115 51.1449 29.1855 51.0739 28.6239C51.003 28.0624 50.97 27.8312 50.97 27.6906C50.9816 27.3466 50.9627 27.0023 50.9134 26.6617C50.8201 26.0669 50.6334 25.3448 50.4698 24.9251C50.1537 24.1321 49.3134 22.1027 49.1631 21.5978C49.1631 21.4702 49.3283 21.5412 49.3283 21.5412C49.3283 21.5412 49.7386 22.57 50.0407 23.3627C50.3335 24.1557 50.6119 24.8542 50.6829 24.9251C50.7395 24.9957 51.1831 25.7744 51.3813 27.0488C51.5795 28.3231 51.6501 29.4981 51.7683 30.2815C51.825 30.6548 51.8723 31.0509 51.9902 31.4472C52.1174 31.8769 52.3156 32.3205 52.5754 33C52.7972 33.5712 52.9624 34.0478 53.052 34.4585C53.1559 34.9824 53.1559 35.3788 53.2172 35.6385C53.2741 35.8604 53.3588 36.3037 53.5572 36.9452C53.7557 37.5867 54.0479 38.413 54.2461 38.9273C54.6334 39.9561 54.8061 40.8151 54.8645 41.2731C54.9162 41.745 55.091 43.378 55.0437 43.8687L55.0447 43.868Z" fill="#A88F33"/>
<path fill-rule="evenodd" clip-rule="evenodd" d="M45.511 12.5066L45.4874 12.5633C45.4874 12.5633 45.558 12.5869 45.544 12.6815C45.545 12.8109 45.5371 12.9402 45.5204 13.0685C45.497 13.2337 45.4497 13.3609 45.4404 13.4649C45.4404 13.6867 45.4734 13.9415 45.1604 14.574C45.0671 14.7485 45.0095 14.8994 44.9623 15.0033C44.8443 15.2581 44.8207 15.2961 44.7168 15.414C44.882 15.3206 45.4768 14.9473 45.7786 15.0033C45.5711 15.1212 45.2547 15.3527 45.0565 15.6548C45.1038 15.6641 45.302 15.7021 45.6165 15.6548C46.1404 15.5745 46.7256 15.3857 47.2398 15.4233C47.8017 15.4563 47.5798 14.7485 47.5798 14.7485L46.9315 13.3233L45.7045 12.46L45.511 12.5069V12.5066Z" fill="#BE9C44"/>
<path fill-rule="evenodd" clip-rule="evenodd" d="M48.7107 23.1822C48.7107 23.1822 48.1632 22.6346 47.9414 20.7555C47.7195 18.8677 47.7668 16.0889 47.7668 16.0889L47.3232 15.0034C47.3232 15.0034 47.2298 14.2813 46.9974 14.0125C46.765 13.7437 46.3086 13.2904 46.1008 13.0686C45.893 12.8468 45.6572 12.5447 45.5156 12.4974C45.5862 12.3795 45.9026 11.714 47.1154 11.7047C48.3281 11.6954 48.702 12.3702 48.8286 12.6156C48.9553 12.8611 49.5271 13.9223 49.7393 15.9445C49.9374 17.9642 49.9471 18.1154 49.9141 18.8139C49.8905 19.2009 49.7629 20.0975 49.5408 21.0554C49.3379 21.8674 49.1161 22.7737 48.7101 23.1841L48.7107 23.1822Z" fill="#A17C34"/>
<path fill-rule="evenodd" clip-rule="evenodd" d="M46.9934 24.7917C47.1759 24.8048 47.3582 24.7637 47.5173 24.6735C47.6919 24.6641 48.3244 24.7444 48.8104 24.1262C48.8434 24.2675 48.9286 24.6501 48.7065 24.9899C48.8247 24.8716 48.9993 24.8247 49.0229 24.7917C49.0322 24.9662 49.1974 25.5041 48.499 26.8114C48.6875 26.6039 48.9093 26.6132 49.1075 26.5896C49.1172 26.835 49.2491 27.6607 48.9 28.1047C48.6688 28.4068 48.2911 28.3122 48.2911 28.3122C48.2966 28.2462 48.2966 28.18 48.2911 28.114C48.2818 27.9865 48.2345 27.8592 48.2678 27.7743C48.0853 27.6909 47.919 27.5758 47.7768 27.4342C47.3661 27.0472 46.8328 26.3867 46.7952 25.8958C46.7479 25.3483 47.2389 25.2303 47.2389 25.2303C47.1977 25.1936 47.1627 25.1505 47.135 25.1028C47.1113 25.0228 47.0877 24.8953 46.9934 24.7917Z" fill="#8C6228"/>
<path fill-rule="evenodd" clip-rule="evenodd" d="M43.354 18.8544C43.354 18.8544 43.3304 18.8214 43.2031 18.9723C43.2268 18.8214 43.2504 18.6796 43.2597 18.5427C43.32 18.4159 43.3979 18.2984 43.4912 18.1936C43.4203 18.3348 43.373 18.4624 43.373 18.4624C43.373 18.4624 43.5478 18.1367 43.8026 17.9385C43.9771 17.7969 44.199 17.731 44.2932 17.5988C44.3971 17.4572 44.3735 17.4336 44.3971 17.4099C44.3971 17.4099 44.6286 17.259 44.9826 16.8151C45.0296 16.7584 45.1005 16.6972 45.1478 16.6405C45.2278 16.6076 45.4166 16.5226 45.6384 16.4091C45.8699 16.2818 46.1294 16.1073 46.2899 16.0357C46.606 15.8942 46.9413 15.9085 47.0969 15.6864C47.2148 15.6534 47.342 15.2993 47.3187 14.9976C47.4932 15.0682 48.3898 15.6251 48.6969 16.8428C48.9187 17.7064 48.5221 19.0373 48.3569 19.6795C48.1917 20.3216 48.1683 20.7979 47.9369 21.0904C47.6441 21.4777 46.7005 22.0237 46.4691 22.294C46.2709 22.5159 45.6764 23.0774 45.6997 23.4831C45.7234 23.7852 46.0961 23.9498 46.1766 24.007C46.2572 24.0643 46.2566 24.1346 46.4078 24.1004C46.559 24.0661 46.6153 23.9964 46.6769 23.9964C46.7475 24.0058 46.7475 24.0201 46.7805 24.0201C46.8044 24.0194 46.8282 24.0161 46.8514 24.0104C46.8514 24.0104 46.8278 24.4401 45.8226 24.5704C45.7517 24.5801 45.6811 24.6034 45.5912 24.6177C45.7094 24.5611 45.78 24.5611 45.9075 24.3866C45.766 24.3629 45.36 24.3393 45.2561 24.3063C45.2891 24.2497 45.3976 24.0985 45.4872 24.0279C45.5675 23.9572 45.4779 23.9345 45.4073 23.9712C45.2857 24.054 45.169 24.1437 45.0579 24.24C44.94 24.344 44.8361 24.4855 44.6473 24.6134C44.5906 24.4245 44.6 24.0658 44.8221 23.8064C44.7652 23.8157 44.6566 23.9809 44.553 23.9479C44.5343 23.7758 44.5454 23.6017 44.586 23.4333C44.6426 23.2208 44.9493 22.8481 44.9493 22.8481L46.4311 20.2003L46.7472 18.1945L43.354 18.8538V18.8544Z" fill="#92723A"/>
<path fill-rule="evenodd" clip-rule="evenodd" d="M43.2734 18.9676C43.2734 18.9676 43.1932 19.0242 43.3537 19.1328C43.33 19.1658 43.2734 19.2837 43.2025 19.3639C43.1225 19.4573 43.0373 19.5151 43.0043 19.5954C42.9337 19.7606 42.877 19.8738 42.877 19.9448C42.877 20.0157 42.8534 20.4687 42.6552 20.7611C42.5843 20.865 42.504 21.0396 42.4474 21.1575C42.3295 21.365 42.2255 21.5308 42.2019 21.6242C42.1549 21.7894 42.1219 22.2423 42.1219 22.2423C42.1219 22.2423 42.2258 22.1148 42.2635 22.0678C42.2066 22.1857 42.1453 22.313 42.0557 22.4075C42.1123 22.3602 42.2775 22.2423 42.556 21.9969C42.943 21.6714 43.5472 21.1239 44.2837 20.6902C44.0615 20.7705 43.873 20.7705 43.7221 20.7941C43.84 20.6762 44.9019 19.4302 45.4588 19.3123C45.4926 19.2694 45.5094 19.2156 45.5061 19.1611L45.0291 19.1141L44.0615 19.3216L43.9203 18.575L43.2734 18.9666V18.9676Z" fill="#B18E3E"/>
<path fill-rule="evenodd" clip-rule="evenodd" d="M44.8129 23.2152C44.8129 23.2152 44.6853 23.3425 44.5674 23.6589C44.4766 23.5641 44.3988 23.4577 44.3359 23.3425C44.1614 23.05 43.8926 22.677 43.2648 22.8895C43.2554 22.6913 43.2411 22.5874 43.2648 22.4459C43.3687 22.4225 43.6848 22.1677 44.0009 21.7947C44.223 21.5399 44.4305 21.2472 44.5721 20.8744C44.6654 20.8035 44.8269 20.6856 45.0387 20.5487C45.3408 20.3412 45.7042 20.0578 45.7608 19.7417C45.6193 19.7983 45.3172 19.9399 44.8639 19.9165C45.0387 19.8363 45.3075 19.7513 45.2745 19.402C45.3455 19.3547 45.4021 19.3217 45.4021 19.3217C45.3489 19.3039 45.2929 19.2959 45.2369 19.298C45.2273 19.2651 45.2133 19.2181 45.133 19.2414C45.0527 19.2648 45.0397 19.2651 45.0291 19.298C44.9961 19.3077 44.8875 19.298 44.8073 19.355C44.727 19.4119 44.5052 19.6001 44.4202 19.6331C44.4532 19.5765 44.5002 19.4919 44.5002 19.4919C44.5002 19.4919 44.269 19.5152 44.1038 19.5852C43.8017 19.6891 43.4527 19.878 43.0986 20.0618C43.1316 20.0052 43.1459 19.9685 43.1693 19.9579C43.1926 19.9473 43.2495 19.9346 43.2495 19.9249C43.2495 19.9153 43.2262 19.8316 43.2402 19.7977C43.346 19.5735 43.4709 19.3587 43.6135 19.1559C43.7787 18.9337 43.8117 18.6176 43.8117 18.6176L44.5338 18.2543L46.5632 17.7876L47.8801 17.8679L47.7149 18.7788L46.9371 20.3692L46.2717 21.818L45.5116 22.7056L44.8132 23.2152H44.8129Z" fill="#543E26"/>
<path fill-rule="evenodd" clip-rule="evenodd" d="M48.1018 19.273C48.1018 19.273 47.3087 20.2545 47.0869 20.4057C47.2284 20.1036 48.1018 18.3054 48.4179 17.8052C48.3472 17.7485 48.2526 17.7485 48.4745 16.8718C48.2859 17.3152 48.2197 17.5466 48.0641 17.6645C47.9086 17.7824 47.8893 17.7448 47.7841 17.7448C47.804 17.7089 47.8121 17.6677 47.8074 17.6269C47.8074 17.6269 47.142 17.5466 46.6874 17.5466C46.2329 17.5466 45.3331 17.7921 44.8325 17.9903C44.4361 18.1555 44.2143 18.1555 44.0728 18.2591C43.9312 18.377 43.8509 18.5045 43.78 18.5375C43.7234 18.5705 43.4546 18.6554 43.393 18.745C43.3363 18.8384 43.2421 18.9432 43.2421 18.9668C43.2421 18.9905 43.2184 19.0238 43.2894 18.9998C43.3127 18.9905 43.4875 18.8959 43.6857 18.778C43.9545 18.6271 44.2803 18.4526 44.5164 18.3487C45.1912 18.0796 45.4037 18.1268 45.7055 18.0702C46.0216 18.0136 46.4749 17.8814 46.7767 17.8814C47.0788 17.872 47.65 17.8814 47.7822 17.905C47.7256 17.9523 47.6783 18.0089 47.702 18.2071C47.702 18.2637 47.6547 18.325 47.6086 18.4619C47.4674 18.8489 47.1983 19.4908 47.0486 19.8165C46.8411 20.2598 46.6053 20.6328 46.4886 20.864C46.3719 21.0952 46.1153 21.704 45.8611 22.0297C45.6069 22.3555 45.474 22.5536 45.3944 22.6246C45.3147 22.6955 44.7429 23.1152 44.7855 23.2664C44.8894 23.2334 45.5456 22.9864 46.0219 22.45C46.4982 21.9137 46.5931 21.5864 46.9659 21.2936C47.3386 21.0009 47.6313 20.5103 47.8059 20.1046C47.9521 19.7269 47.9191 19.609 48.103 19.2739L48.1018 19.273Z" fill="#806031"/>
<path fill-rule="evenodd" clip-rule="evenodd" d="M31.0122 26.5994C31.0122 26.5994 30.9082 27.0287 30.6721 27.2412C30.4409 27.449 30.0303 27.6283 29.9833 27.9776C29.9267 28.3267 30.394 28.5015 30.394 28.5015C30.394 28.5015 30.1388 28.9215 30.1388 29.2376C30.1388 29.5634 30.1295 29.6246 30.1625 29.9361C30.1251 29.9601 30.0932 29.992 30.0691 30.0294C30.0691 30.0294 30.0925 30.3315 30.324 30.52C30.5554 30.7086 30.7533 30.8221 30.8712 30.7748C30.8892 30.8133 30.905 30.8528 30.9185 30.893C30.9185 30.893 31.0934 30.4494 31.2113 30.0624C31.3292 29.666 31.4331 29.7223 31.4801 29.1891C31.5271 28.6558 32.0401 27.7403 32.0401 27.7403L32.3901 26.9578L31.8192 26.5142L31.0122 26.5991V26.5994Z" fill="#B6903C"/>
<path fill-rule="evenodd" clip-rule="evenodd" d="M32.0743 27.3684C31.9566 27.4893 31.8479 27.6186 31.7492 27.7554C31.5983 27.9633 31.4804 28.1518 31.2585 28.2324C31.0367 28.3129 30.8952 28.3123 30.9092 28.5345C30.9232 28.7566 31.131 28.8505 31.2489 28.9638C31.3765 29.0817 31.4804 29.2799 31.4237 29.502C31.4944 29.469 31.6219 29.4311 31.7398 29.1763C31.8578 28.9215 32.6825 27.3687 32.6825 27.3687H32.0743V27.3684Z" fill="#685026"/>
<path fill-rule="evenodd" clip-rule="evenodd" d="M35.3266 23.7863C35.3266 23.7863 35.3973 23.5978 35.3266 23.4609C35.2557 23.3194 34.8264 23.2721 34.6139 23.1115C34.3921 22.9463 34.1229 22.8315 33.9011 22.904C33.9341 22.8238 34.0663 22.6489 33.9578 22.6113C33.8538 22.5783 33.4671 22.7528 33.3632 22.8331C33.2593 22.9134 33.0232 23.0076 32.9762 23.0646C32.9292 23.1215 32.8486 23.2298 32.8014 23.1825C32.7541 23.1495 32.7307 23.0646 32.6505 23.1115C32.5702 23.1585 32.1838 23.4749 32.1126 23.6591C32.0413 23.8433 31.8811 24.2539 31.3998 24.7209C30.9185 25.1879 30.7107 25.4903 30.8523 25.6648C30.9938 25.8393 31.0601 25.7121 31.0837 25.863C31.1019 26.0111 31.0939 26.1613 31.0601 26.3066C31.0035 26.5521 30.9092 26.7832 31.0364 26.8305C31.3622 26.9344 31.6786 26.7372 31.7492 26.7976C31.8907 26.9248 31.6689 27.3828 32.004 27.4724C32.344 27.5657 32.6791 27.3921 32.6791 27.3921L33.9154 26.7266L35.1048 26.0991L35.7133 24.8954L35.387 23.8902L35.3248 23.7863H35.3266Z" fill="#D4B968"/>
<path fill-rule="evenodd" clip-rule="evenodd" d="M34.1599 26.6605C34.1599 26.6605 33.9521 26.3444 34.2072 26.0657C34.4623 25.7869 34.8253 25.6693 34.9669 25.4948C34.9399 25.4615 34.9038 25.437 34.863 25.4242C34.9569 25.256 35.1003 25.1208 35.2736 25.0368C35.203 24.9662 35.1084 24.9096 35.0048 24.9096C34.7734 24.9096 34.6315 25.0511 34.4193 25.0511C34.2118 25.0511 34.1882 24.9472 34.1882 24.9472C34.1882 24.9472 34.5376 24.9142 34.5043 24.7584C34.4713 24.5932 34.4109 24.5932 34.4109 24.5932C34.4109 24.5932 35.0857 24.3132 35.2036 24.1639C35.3215 24.0145 35.3075 23.8381 35.3312 23.7675C35.4111 23.7675 35.8784 23.522 36.0673 23.6259C36.2561 23.7299 36.1239 24.013 36.1239 24.013C36.1239 24.013 36.6954 23.5833 36.9866 23.1621C37.2414 23.1857 37.3599 22.9875 37.5466 22.9875C37.778 22.9875 38.1414 23.3036 38.212 23.9784C38.2593 24.3654 38.3299 24.5873 38.2593 25.2717C38.2263 25.6587 38.2356 26.485 38.3526 26.8951C38.4326 27.2208 38.6214 27.1878 38.6214 27.1878C38.5924 27.2871 38.535 27.3757 38.4562 27.4426C38.3287 27.5605 38.3147 27.8723 38.3287 27.9902C38.3475 28.0764 38.3712 28.1615 38.3996 28.245C38.3996 28.245 38.2487 28.4195 38.2108 28.5377C38.1778 28.6556 38.0222 28.7359 37.9087 28.7359C37.7951 28.7359 37.8521 28.7263 37.7012 28.7359C37.5503 28.7456 37.503 28.7689 37.4084 28.7359C37.3138 28.7029 37.2432 28.665 37.2812 28.3626C37.3142 28.0605 36.1155 27.3574 36.1155 27.3574L34.1555 26.6589L34.1599 26.6605Z" fill="#CCA849"/>
<path fill-rule="evenodd" clip-rule="evenodd" d="M31.9088 29.6433C31.9088 29.6433 32.3381 30.2145 34.1034 30.2145C34.9434 30.2145 35.2361 30.1343 35.4101 30.087C35.5989 30.0397 36.3067 29.7615 37.0194 28.9212C37.6613 28.1615 37.5197 27.8501 37.5197 27.8501L37.1464 27.7935L35.933 27.9587L32.3428 29.4878L31.9072 29.6433H31.9088Z" fill="#585136"/>
<path fill-rule="evenodd" clip-rule="evenodd" d="M33.2254 29.7847C33.2254 29.7847 31.6963 30.1247 31.6963 29.1572C31.6963 28.2133 32.6402 27.2222 32.8763 27.0476C33.1218 26.8728 33.707 26.6743 33.707 26.6743H35.1182L35.387 27.387L35.2691 28.9254L33.2254 29.7844V29.7847Z" fill="#252211"/>
<path fill-rule="evenodd" clip-rule="evenodd" d="M34.6365 26.9628C34.6365 26.9628 34.344 26.6937 33.6786 27.0561C33.0131 27.4186 32.4749 28.1762 32.4419 28.864C32.4089 29.4726 32.9421 29.9259 33.7728 29.9495C34.391 29.9729 34.764 29.9022 34.9529 29.8562C34.9056 29.7996 34.6601 29.4928 34.6601 29.4928L34.6368 26.9631L34.6365 26.9628Z" fill="#C3B378"/>
<path fill-rule="evenodd" clip-rule="evenodd" d="M34.3488 27.1133C34.3488 27.1133 34.2782 27.0567 34.0688 27.1699C33.8943 27.2632 33.6395 27.5099 33.4413 27.6845C33.3138 27.7884 33.2335 27.8353 33.1613 27.9156C32.8686 28.265 32.6231 28.8361 32.765 29.1192C32.9069 29.4023 33.3738 29.7281 34.5632 29.5062L34.3454 27.1136L34.3488 27.1133Z" fill="#E6D89C"/>
<path fill-rule="evenodd" clip-rule="evenodd" d="M33.962 27.6987C33.962 27.6987 33.7732 27.9914 33.7732 28.4587C33.7732 28.9353 34.0423 29.6951 35.0335 29.7517C35.7932 29.799 36.3028 28.6569 36.855 28.2132C37.275 27.8735 37.5298 27.8639 37.5298 27.8639C37.5298 27.8639 37.1004 27.3972 35.9537 26.7927C34.821 26.1838 33.5514 26.1036 32.8623 27.0382C33.188 27.0145 34.2405 26.7454 34.2405 26.7454L34.755 26.9106L33.962 27.699V27.6987Z" fill="#252211"/>
<path fill-rule="evenodd" clip-rule="evenodd" d="M35.4434 28.317C35.4105 28.2464 35.3868 28.1518 35.5237 28.1285C35.6606 28.1051 35.7218 28.1188 35.7691 28.2218C35.8164 28.3248 35.8624 28.4106 35.7924 28.4532C35.7218 28.4909 35.5377 28.4532 35.4431 28.3164L35.4434 28.317ZM35.2217 27.6515C35.2217 27.6515 35.1744 27.6845 35.198 27.6186C35.2074 27.5386 35.2689 27.3967 35.4198 27.43C35.5707 27.4633 35.538 27.6282 35.5131 27.6755C35.4882 27.7228 35.3623 27.8027 35.2677 27.7688C35.2557 27.7657 35.2446 27.7599 35.2353 27.7517C35.226 27.7436 35.2188 27.7333 35.2142 27.7219C35.2095 27.7104 35.2077 27.698 35.2088 27.6856C35.2099 27.6733 35.2139 27.6614 35.2204 27.6509L35.2217 27.6515Z" fill="#6F674D"/>
<path fill-rule="evenodd" clip-rule="evenodd" d="M22.4473 27.9532C22.4473 27.9532 22.8206 28.2332 23.2543 28.2223C23.6836 28.2126 24.2358 27.7693 24.4906 27.4859C24.6415 27.3207 24.7706 27.1461 24.9106 27.0092C25.0289 26.8913 25.1088 26.8347 25.1654 26.7544C25.2457 26.6611 25.3306 26.4856 25.3733 26.4287C25.2694 26.509 25.1185 26.6508 24.9626 26.7451C24.8117 26.8384 24.486 27.0139 24.3538 27.0612C24.2265 27.1085 22.9049 27.8079 22.9049 27.8079L22.4473 27.9532Z" fill="#AC924C"/>
<path fill-rule="evenodd" clip-rule="evenodd" d="M23.0176 24.466C23.0176 24.466 23.2251 24.3244 23.6264 24.2345C24.0134 24.1412 24.7922 24.0693 24.7922 24.0693L25.434 24.3493L25.6888 25.3169L25.2221 26.3224L24.6276 26.6957L23.9525 25.6103L23.0191 24.4679L23.0176 24.466Z" fill="#9F8E57"/>
<path fill-rule="evenodd" clip-rule="evenodd" d="M22.1772 25.3298L21.9551 25.4956C21.9551 25.4956 22.012 25.3917 22.059 25.0756C22.106 24.7595 22.3517 23.9901 22.7105 23.5464C23.0692 23.1028 23.0598 23.1264 23.0598 23.1264C23.0268 23.1204 22.9929 23.1215 22.9604 23.1296C22.9278 23.1377 22.8973 23.1526 22.871 23.1734C22.9183 23.0689 23.2204 22.6955 23.5225 22.5089C23.8246 22.3222 23.9425 22.2634 24.2586 22.4155C24.5746 22.5677 24.6549 22.6467 24.8864 22.6374C25.1179 22.628 25.3157 22.3826 25.3157 22.3826C25.3157 22.3826 25.363 22.5334 25.1885 22.8828C25.0139 23.2322 24.3248 23.9447 24.3248 23.9447L22.89 24.9262L22.1772 25.3307V25.3298Z" fill="#EAC970"/>
<path fill-rule="evenodd" clip-rule="evenodd" d="M23.2386 24.3479C23.2386 24.3479 24.277 24.4895 24.5931 24.1971C24.6025 24.23 24.6404 24.23 24.6404 24.2537C24.6379 24.2715 24.6296 24.288 24.6168 24.3007C24.6512 24.2952 24.6859 24.292 24.7207 24.2913C24.7622 24.3037 24.805 24.3116 24.8482 24.315C24.8831 24.3142 24.9178 24.311 24.9521 24.3053C24.9489 24.3288 24.9409 24.3513 24.9287 24.3716C24.9165 24.392 24.9004 24.4096 24.8812 24.4235C24.9285 24.4235 24.9745 24.4329 24.9745 24.4705C24.9745 24.5082 24.9839 24.6217 24.9273 24.6454C24.8804 24.6583 24.8304 24.6549 24.7857 24.6357C24.7894 24.7251 24.8137 24.8124 24.8566 24.8908C24.95 25.0654 25.1491 25.2642 25.4166 25.2069C25.4166 25.2069 25.5579 25.5467 24.9633 26.3017C24.8834 26.4056 24.7981 26.5472 24.6945 26.6651C24.6536 26.7543 24.6223 26.8477 24.6012 26.9435C24.6012 26.9435 25.6067 26.5565 25.8945 25.6739C26.1873 24.7866 26.2439 23.9136 26.1873 23.0973C26.1776 22.8658 26.14 22.7009 26.0833 22.5827C25.9418 22.2899 25.5451 22.3372 25.3849 22.5024C25.1534 22.7339 24.7664 23.3095 24.2285 23.7058C23.681 24.1022 23.6576 24.1725 23.2373 24.3479H23.2386Z" fill="#D7BC6B"/>
<path fill-rule="evenodd" clip-rule="evenodd" d="M21.9935 25.6224C21.9935 25.6224 21.7953 25.7403 21.6914 26.1824C21.5875 26.6354 21.7847 27.1876 21.8989 27.3621C22.0131 27.5367 22.2722 28.0136 22.8099 28.0372C22.9429 28.0365 23.0745 28.0092 23.1969 27.957C23.3846 27.8709 23.5606 27.7615 23.7208 27.6312C23.9523 27.4567 24.1408 27.3058 24.1172 27.2915C24.0605 27.2679 22.6919 26.1351 22.6919 26.1351L22.1774 25.5608L21.9932 25.623L21.9935 25.6224Z" fill="#585136"/>
<path fill-rule="evenodd" clip-rule="evenodd" d="M23.2866 27.5005C23.2866 27.5005 23.5651 27.4772 23.7303 27.3733C23.8955 27.2694 22.7627 26.1462 22.7627 26.1462L22.843 27.3596L23.2866 27.5005Z" fill="#453A25"/>
<path fill-rule="evenodd" clip-rule="evenodd" d="M22.0828 25.5371C22.0828 25.5371 21.9412 25.8062 21.9412 25.8771C21.9176 26.1083 21.9885 26.8351 22.0451 27.0662C22.1017 27.3117 22.4085 27.6844 22.8051 27.6844C23.0503 27.6844 23.3903 27.5335 23.3903 27.4959C23.3903 27.4486 23.041 27.4025 22.9467 27.2267C22.8901 27.1334 22.8664 26.9013 22.8534 26.6667C22.844 26.5159 22.844 26.3507 22.9007 26.2934C23.0282 26.1519 23.0515 25.7459 23.0515 25.7459L23.5045 24.9043H22.9087L22.196 25.3479L22.0828 25.5371Z" fill="#84754B"/>
<path fill-rule="evenodd" clip-rule="evenodd" d="M21.9082 25.7969C21.9082 25.7969 22.3749 25.1788 22.7955 25.0369C23.2161 24.895 23.4043 24.9803 23.4043 24.9803L23.1588 25.6081L22.8095 25.9951L22.8331 26.1933C22.8331 26.1933 22.7762 26.7172 23.1256 27.0806C23.4749 27.4439 23.7344 27.4299 23.8856 27.4299C24.0368 27.4299 24.4708 27.3024 24.6926 26.7785C24.8908 26.2879 25.0559 25.6585 24.6596 25.0276C24.2723 24.3998 23.5882 24.3755 23.4559 24.3755C23.3237 24.3755 22.2856 24.4274 21.9082 25.796V25.7969Z" fill="#252211"/>
<path fill-rule="evenodd" clip-rule="evenodd" d="M33.8907 27.8968C33.7161 27.8166 33.8813 27.3259 34.0559 27.1747C34.2304 27.0236 34.4522 26.8493 34.8396 26.8254C34.9808 26.816 35.1177 26.9056 35.0944 27.0002C35.0614 27.1747 34.8159 27.4202 34.5941 27.5947C34.2874 27.8355 34.0889 27.9864 33.8907 27.8968Z" fill="#F7F7E7"/>
<path fill-rule="evenodd" clip-rule="evenodd" d="M24.4515 25.221C24.5791 25.2117 24.7443 25.3144 24.7773 25.4525C24.8103 25.6034 24.697 25.9055 24.4515 25.9055C24.2533 25.9055 24.1494 25.66 24.1494 25.5894C24.1516 25.5313 24.1679 25.4747 24.1967 25.4242C24.206 25.4099 24.2297 25.2447 24.4515 25.221Z" fill="#F8F6DE"/>
<path fill-rule="evenodd" clip-rule="evenodd" d="M22.6115 25.3298C22.6115 25.3298 22.2857 25.4807 22.1348 25.7965C22.027 26.0297 21.9944 26.2906 22.0415 26.5431C22.0651 26.661 22.1831 26.9535 22.2633 27.0574C22.3436 27.1613 22.4522 27.2322 22.5324 27.2226C22.6127 27.2129 22.7776 27.0007 22.7776 26.8735C22.7776 26.7463 22.7872 26.2081 22.9428 25.9153C23.0797 25.6229 22.6124 25.3301 22.6124 25.3301L22.6115 25.3298Z" fill="#D4C38B"/>
<path fill-rule="evenodd" clip-rule="evenodd" d="M22.6585 25.3059C22.6019 25.3389 22.5077 25.3862 22.531 25.4475C22.5546 25.5041 22.7528 25.5408 22.8237 25.6789C22.904 25.8205 22.904 25.9713 22.8804 26.0423C22.942 26.013 22.998 25.9729 23.0456 25.924C23.1495 25.8061 23.2767 25.6459 23.3853 25.6459C23.4562 25.6459 23.5269 25.6789 23.5931 25.6789C23.697 25.6789 23.8006 25.6459 23.8149 25.5374C23.8383 25.3958 23.6168 25.2683 23.4892 25.2919C23.5129 25.1986 23.5458 25.0608 23.4419 24.9662C23.338 24.8716 23.0126 25.0371 22.9417 25.0844C22.8707 25.1317 22.6585 25.3062 22.6585 25.3062V25.3059Z" fill="#E2D59D"/>
<path fill-rule="evenodd" clip-rule="evenodd" d="M30.1578 35.2216L30.8563 35.0154L31.0544 35.1569C31.0544 35.1569 31.1957 35.459 31.4178 35.4967C31.3469 35.6476 31.1627 35.7767 31.1724 35.8837C31.182 35.9907 31.2763 36.0725 31.2763 36.0725C31.2763 36.0725 30.6484 37.1107 31.8851 38.157C31.5924 38.2749 31.2196 38.437 31.0215 38.5303C31.1627 38.5633 31.4648 38.6237 31.5924 38.7381C31.7199 38.8526 31.7199 38.889 31.8378 38.96C31.9557 39.0309 32.0264 39.1252 32.003 39.1675C31.9228 39.1202 31.6536 38.9789 31.6067 39.1108C31.5597 39.2428 30.4409 39.1911 30.4409 39.1911L28.5531 39.5545C28.5531 39.5545 28.6237 39.3656 28.4256 39.1911C28.1944 38.9836 27.9113 39.2004 27.6092 38.9693C27.2128 38.6672 27.1985 38.3178 27.0713 38.1859C27.1985 38.1056 27.4583 37.9877 28.0765 37.9059C28.0528 37.8586 27.9726 37.7171 28.0199 37.5898C28.0765 37.4246 28.3123 37.3207 28.2417 37.1232C28.3456 37.0995 28.3926 37.0995 28.6524 36.7738C28.8978 36.448 29.0487 36.3774 29.2376 36.3538C29.4264 36.3301 29.5396 36.3538 29.889 36.028C30.1342 35.7969 30.0542 35.5987 30.0542 35.5987C30.0542 35.5987 30.2144 35.5468 30.1581 35.221L30.1578 35.2216Z" fill="#CBAC5A"/>
<path fill-rule="evenodd" clip-rule="evenodd" d="M28.0954 35.3268C28.1047 35.2795 28.1427 35.2558 28.3975 35.2795C28.6523 35.3031 30.2664 35.1286 30.7053 35.105C31.149 35.072 32.7111 35.0953 33.4712 35.2558C34.2312 35.4163 35.0003 35.6052 35.373 35.6994C35.7463 35.8033 35.8639 35.8407 35.8496 35.8879C35.8403 35.9352 35.7563 35.9813 35.7081 35.9682C35.6611 35.9589 34.4244 35.5812 34.0424 35.5016C33.6603 35.4219 32.3384 35.2089 31.6157 35.2216C30.9409 35.2313 30.6717 35.2123 30.1009 35.2782C29.5296 35.3492 28.5857 35.4434 28.3026 35.4058C28.0226 35.3728 28.0805 35.3728 28.0948 35.3255L28.0954 35.3268Z" fill="#D6BC6F"/>
<path fill-rule="evenodd" clip-rule="evenodd" d="M31.8947 39.0258C31.8947 39.0258 32.8622 39.5497 33.2116 40.1915C33.4664 40.6681 33.0607 40.9042 33.0607 40.9042C33.0607 40.9042 33.6082 40.9042 33.5373 41.2063C33.5043 41.3948 32.5934 41.9044 31.9846 42.1735C31.3664 42.4426 31.39 42.4286 31.088 42.4756C30.7952 42.5229 29.9928 42.3823 29.8276 42.6172C29.6624 42.8521 29.7343 43.0941 29.7804 43.1317C29.8276 43.1647 30.21 43.212 30.21 43.212C30.21 43.212 30.1297 43.4338 29.337 43.4575C28.5443 43.4811 28.3458 43.5374 28.2985 43.6227C28.2513 43.7026 28.4494 43.6556 28.8131 43.716C29.1765 43.7726 29.6861 43.8093 29.6861 43.8093C29.6861 43.8093 29.5209 43.9509 29.0916 44.0641C28.6006 44.1914 27.8313 44.3096 27.6001 44.4511C27.718 44.5314 27.8929 44.6493 27.9734 44.6586C27.7753 44.7059 27.4965 44.8098 27.4495 44.8475C27.5201 44.8948 27.6147 44.9514 27.6147 44.9514C27.6147 44.9514 27.2181 45.428 26.9869 45.5462C26.7558 45.6645 25.4248 46.2823 24.9669 46.1644C23.8248 45.8623 23.6832 44.6117 23.4048 44.5174C22.9848 44.3759 22.7866 44.6586 22.4136 44.4605C22.5788 44.3426 22.6687 44.2719 22.8432 44.1917C22.6544 44.0983 21.6775 43.4789 21.6775 43.4789C21.5754 43.2563 21.462 43.0389 21.3378 42.8278C21.1489 42.5021 20.8711 42.0678 20.6627 41.6854C20.2097 40.8454 20.1861 40.4584 19.7754 39.9818C19.8463 39.8885 20.0915 39.9015 20.0915 39.9015L23.5323 41.0343L29.6335 41.211L31.2202 38.9458L31.895 39.0261L31.8947 39.0258Z" fill="#DFC677"/>
<path fill-rule="evenodd" clip-rule="evenodd" d="M22.8574 42.4803C22.8942 42.5213 22.9372 42.5563 22.9847 42.5842C23.1029 42.6645 23.2774 42.759 23.3953 42.9003C23.4426 42.8297 23.5605 42.7021 23.7687 42.9003C23.9768 43.0985 24.2353 42.9572 24.3962 43.0042C24.5614 43.0611 24.5707 43.0845 24.5707 43.0845C24.5707 43.0845 24.664 43.0042 24.8728 42.9193C25.0004 42.872 25.1512 42.839 25.3164 42.792C25.4673 42.759 25.6325 42.7117 25.7461 42.7117C25.85 42.7824 26.2227 43.1784 27.7188 42.5938C29.13 42.0463 29.4555 41.985 29.6916 42.0696C29.7152 42.013 29.7389 41.9044 30.1023 41.9187C30.1023 41.7678 29.8002 41.2533 29.8002 41.2533L28.1342 40.6824H27.2229L24.4904 41.1826L22.9763 42.0466L22.8584 42.4821L22.8574 42.4803Z" fill="#C4A859"/>
<path fill-rule="evenodd" clip-rule="evenodd" d="M21.9463 41.5222C21.9463 41.5222 21.9793 41.777 22.357 42.0461C22.7303 42.3149 22.8476 42.4755 22.8476 42.4755C22.8476 42.4755 22.9185 42.3821 22.9751 42.2869C23.0318 42.183 23.079 42.0651 23.1733 42.0321C23.3622 41.9519 23.7915 42.1028 23.8861 42.0791C23.9663 42.0558 23.9427 41.8906 24.0276 41.8906C24.2258 41.8809 24.353 42.0178 24.424 42.0178C24.4949 42.0178 24.6691 42.0085 24.6928 41.9708C24.7164 41.9332 24.7258 41.5412 24.9949 41.3524C25.2876 41.1448 25.6463 41.2345 25.7415 41.2817C25.7415 41.3524 25.7509 41.5272 25.9397 41.5365C26.1286 41.5459 26.1472 41.5129 26.313 41.5695C26.4789 41.6261 26.6764 41.5602 26.766 41.8383C26.8463 41.815 27.0351 41.7913 26.9878 41.5222C27.0812 41.4516 27.1627 41.4043 27.3612 41.1259C27.4085 41.0553 27.4884 40.975 27.55 40.8711C27.7152 40.8711 27.9134 40.8381 28.1775 41.0693C28.0973 41.1259 28.05 41.1626 28.0266 41.2201C28.0957 41.2885 28.1588 41.3628 28.2152 41.442C28.2861 41.5353 28.3334 41.6498 28.423 41.6734C28.6212 41.7301 28.9469 41.6498 29.3103 41.6734C29.6597 41.6971 29.9521 41.8243 30.0797 41.9046C30.127 41.8812 30.127 41.8716 30.2449 41.8953C30.3628 41.9189 30.4524 41.9282 30.3251 41.7773C30.3958 41.8103 30.476 41.8813 30.547 41.8103C30.6179 41.7394 30.6742 41.6358 30.8724 41.6121C31.0706 41.5885 31.1415 41.6215 31.2218 41.414C31.3257 41.1592 30.967 41.1592 30.967 41.1592C30.967 41.1592 31.1322 41.008 31.3163 40.8098C31.5382 40.6023 31.793 40.3332 31.8542 40.0028C31.9582 39.3939 31.3636 39.314 31.3636 39.314L28.4799 40.2013L24.9544 40.0264L21.9482 41.5225L21.9463 41.5222Z" fill="#927D49"/>
<path fill-rule="evenodd" clip-rule="evenodd" d="M19.3547 33.1925C19.3547 33.1925 19.2614 33.3104 19.2038 33.5888C19.1463 33.8673 19.1709 33.8343 19.1236 34.0325C19.0763 34.2307 18.4954 36.2035 18.7132 36.8689C18.931 37.5344 19.3081 37.7799 19.5439 38.3178C19.5912 38.4357 19.6372 38.5067 19.6618 38.6106C19.7421 38.9597 19.6714 39.2288 19.7657 39.5782C19.7987 39.6961 19.8839 39.833 20.0112 39.9745C20.2912 40.267 20.7476 40.5454 20.9445 40.7436C21.2226 41.0364 21.6193 41.6312 22.1242 41.6875C22.3933 41.7205 22.7757 41.6073 23.0918 41.4187C23.3718 41.2439 23.5448 40.9987 23.8384 40.8587C24.0459 40.7548 24.2678 40.7172 24.4659 40.6699C24.8766 40.5896 25.2496 40.5765 25.4715 40.6226C25.8112 40.6935 26.6135 40.939 27.0581 40.939C27.4055 40.9334 27.751 40.8859 28.087 40.7974C28.7617 40.5993 29.5781 40.2592 30.1163 40.1083C30.4324 40.015 30.6872 39.9904 30.947 39.9338C31.3906 39.8299 31.7633 39.6883 31.9758 39.4192C31.8343 39.254 31.6597 38.9992 30.7155 39.0085C29.6444 39.0321 28.4077 39.6267 27.7989 39.7213C27.19 39.8159 26.9259 39.8958 26.2461 39.6503C25.5797 39.4024 25.5576 39.2384 25.5576 39.2384C25.5576 39.2384 24.8579 38.749 24.5652 37.5014C24.2724 36.2539 24.5652 35.3448 25.3252 34.4808C25.5234 34.259 25.4761 34.0608 25.4761 34.0608C25.4761 34.0608 25.9764 33.386 25.8395 32.7541C25.6886 32.1263 24.7211 32.2538 24.7211 32.2538L19.355 33.1925H19.3547Z" fill="#6E6342"/>
<path fill-rule="evenodd" clip-rule="evenodd" d="M20.1618 35.2925C20.1202 35.3707 20.1006 35.4588 20.1051 35.5473C20.1145 35.6745 20.1524 35.8397 20.5345 36.2127C20.8602 36.5381 20.7893 36.9015 20.7893 36.9015C20.7893 36.9015 20.9532 36.9345 21.3981 36.7263C21.7475 36.5612 21.8648 36.8539 21.8648 36.8539C21.9665 36.8006 22.0767 36.7654 22.1905 36.75C22.2936 36.7405 22.3934 36.7086 22.4829 36.6567C22.4829 36.6567 22.8936 37.0766 23.2523 37.2748C23.5781 37.4497 23.7669 37.5676 23.9274 37.4497C24.0783 37.3457 24.0783 37.1333 24.0687 37.039C24.0312 36.952 23.9838 36.8696 23.9274 36.7935C23.8235 36.6427 23.6583 36.4678 23.6474 36.3269C23.6238 36.0015 23.8929 35.6142 23.836 35.5199C23.779 35.4256 23.5672 35.402 23.0433 35.5908C22.5007 35.77 20.1596 35.2934 20.1596 35.2934L20.1618 35.2925Z" fill="#39331F"/>
<path fill-rule="evenodd" clip-rule="evenodd" d="M21.3986 37.4025C21.3986 37.4025 21.1299 37.1477 21.2241 35.9111C21.3382 35.9094 21.4521 35.9205 21.5638 35.944C21.5638 35.944 21.7102 36.9022 21.3986 37.4025Z" fill="#292311"/>
<path fill-rule="evenodd" clip-rule="evenodd" d="M19.4823 32.2483C19.5198 32.2205 19.5546 32.1893 19.5862 32.155C19.4929 32.3295 19.062 33.0279 19.4114 34.1277C19.7607 35.2225 20.6384 36.0388 21.7192 36.0768C22.8 36.1147 23.3681 35.5858 24.0177 34.7931C24.2725 34.4771 24.5652 34.0804 24.8247 33.8116C25.2117 33.3913 25.5138 33.2734 25.5138 32.8677C25.5138 32.037 24.6642 31.664 23.4135 31.2913C22.1628 30.9186 21.0347 30.9647 20.4495 31.2198C19.8786 31.4979 19.6332 31.7907 19.482 32.2486L19.4823 32.2483Z" fill="#252211"/>
<path fill-rule="evenodd" clip-rule="evenodd" d="M23.499 37.7751L23.5923 37.7279C23.5923 37.7279 23.6156 37.3545 23.7668 37.3645C23.9177 37.3881 23.9886 37.5866 23.9743 37.6572C23.965 37.7279 23.9273 37.8461 23.7761 37.8318C23.578 37.8364 23.498 37.7751 23.498 37.7751H23.499Z" fill="#3F3824"/>
<path fill-rule="evenodd" clip-rule="evenodd" d="M23.0781 36.1893C23.0781 36.1893 23.1715 36.1563 23.2856 36.2695C23.379 36.2695 23.7859 36.2223 23.9135 36.3025C24.041 36.3828 24.0787 36.4534 24.0787 36.4534C24.0787 36.4534 23.602 36.5573 23.3423 36.4534C23.0781 36.3638 23.0781 36.1893 23.0781 36.1893Z" fill="#2D2815"/>
<path fill-rule="evenodd" clip-rule="evenodd" d="M25.1785 36.2599C25.1785 36.2363 24.9237 36.0618 24.6547 36.0048C24.6074 35.9955 24.5977 36.0285 24.5613 36.0285C24.5377 36.0192 24.5284 35.9482 24.5284 35.9482L24.3753 36.0288C24.3753 36.0288 24.3517 36.0618 24.4319 36.1221C24.5025 36.1787 24.6208 36.226 24.6537 36.3202C24.6867 36.4145 24.6867 36.4474 24.701 36.4618C24.7103 36.4711 24.8755 36.4618 24.9558 36.4145C25.036 36.3672 25.1872 36.2901 25.1776 36.259L25.1785 36.2599Z" fill="#82764F"/>
<path fill-rule="evenodd" clip-rule="evenodd" d="M22.7959 37.2182C22.7959 37.2182 22.8429 36.8928 23.1593 36.8785C23.4847 36.8548 23.5463 37.1709 23.5463 37.1709L23.3575 37.3598C23.3575 37.3551 23.2159 37.1569 22.7975 37.2182H22.7959Z" fill="#2D2816"/>
<path fill-rule="evenodd" clip-rule="evenodd" d="M24.8484 35.8163C24.8484 35.8163 24.6735 36.0052 24.2868 36.0618C24.2539 36.0145 24.1829 35.9202 24.2868 35.7693C24.3907 35.6183 24.5087 35.571 24.6266 35.618C24.6786 35.6264 24.7271 35.6496 24.7664 35.6847C24.8057 35.7198 24.8342 35.7655 24.8484 35.8163Z" fill="#574F35"/>
<path fill-rule="evenodd" clip-rule="evenodd" d="M25.5614 36.0478C25.571 36.0005 25.5381 35.9911 25.5614 35.9675C25.5847 35.9439 25.7126 35.8969 25.7362 35.9202C25.7456 35.9299 25.7362 35.9675 25.7362 36.0135C25.7362 36.0596 25.7362 36.1069 25.7126 36.1408C25.6796 36.188 25.5854 36.2117 25.5381 36.1977C25.4908 36.1837 25.4814 36.1174 25.4814 36.1044C25.5048 36.095 25.5614 36.0714 25.5614 36.0478ZM26.3672 35.5382C26.3672 35.5146 26.4474 35.4673 26.4947 35.4673C26.5654 35.4673 26.5654 35.5239 26.575 35.5382C26.5983 35.5475 26.5983 35.5286 26.622 35.5712C26.6456 35.6138 26.6789 35.6891 26.655 35.7364C26.631 35.7836 26.537 35.8163 26.5137 35.807C26.4807 35.7833 26.3768 35.5712 26.3672 35.5382Z" fill="#82764F"/>
<path fill-rule="evenodd" clip-rule="evenodd" d="M24.7441 36.1563C24.7441 36.1563 24.8481 36.1797 24.9896 36.2979C24.9423 36.3308 24.8714 36.3685 24.8714 36.3685C24.8714 36.3685 24.8621 36.2599 24.7441 36.156V36.1563Z" fill="#6E6342"/>
<path fill-rule="evenodd" clip-rule="evenodd" d="M24.5135 35.118C24.4899 35.0946 24.5841 35.038 24.6407 35.0473C24.6974 35.0567 24.721 35.0946 24.7823 35.104C24.8436 35.1133 24.8532 35.0803 24.8756 35.0567C24.898 35.033 24.9796 35.0473 24.9936 35.0567C25.0023 35.0671 25.0102 35.0781 25.0172 35.0897C25.0182 35.0717 25.0229 35.0542 25.031 35.0381C25.039 35.022 25.0504 35.0078 25.0642 34.9963C25.0823 34.983 25.1032 34.974 25.1253 34.9699C25.1473 34.9658 25.1701 34.9667 25.1917 34.9727C25.2011 35.0057 25.2484 35.1236 25.239 35.1472C25.2297 35.1709 25.0881 35.2042 25.0642 35.1802C25.0878 35.2371 25.1917 35.3551 25.2057 35.3784C25.2197 35.4017 25.1018 35.4587 25.0548 35.4493C24.9889 35.4447 24.5829 35.2085 24.5123 35.1189L24.5135 35.118ZM25.1317 34.3345C25.123 34.3108 25.1062 34.2907 25.0844 34.2779C25.0514 34.2686 24.9428 34.2779 24.9428 34.3345C24.9428 34.3912 25.0362 34.7079 25.141 34.8728C25.2593 35.038 25.3392 35.1746 25.4195 35.2126C25.4447 35.224 25.4733 35.2255 25.4996 35.2168C25.5258 35.208 25.5478 35.1896 25.561 35.1653C25.5704 35.1416 25.594 34.9671 25.5847 34.5564C25.5754 34.1457 25.561 33.7493 25.5374 33.7256C25.5138 33.702 25.4195 33.7023 25.3865 33.7493C25.3535 33.7963 25.141 34.2639 25.1314 34.3345H25.1317Z" fill="#585136"/>
<path fill-rule="evenodd" clip-rule="evenodd" d="M24.7116 36.7511C24.7116 36.7511 24.5464 36.6472 24.3858 36.7181C24.2349 36.789 24.2443 37.0674 24.2443 37.0674C24.2782 37.0807 24.3149 37.0855 24.3511 37.0813C24.3873 37.0772 24.422 37.0643 24.4521 37.0437C24.556 36.9731 24.688 36.8553 24.7116 36.7514V36.7511Z" fill="#574F35"/>
<path fill-rule="evenodd" clip-rule="evenodd" d="M25.023 37.1238C25.0137 37.0305 24.9297 37.0305 24.9297 36.9823C24.9355 36.9592 24.9488 36.9388 24.9676 36.9242C24.9864 36.9097 25.0095 36.9018 25.0333 36.902C25.0806 36.902 25.1266 36.9586 25.1845 36.9953C25.2411 37.0283 25.326 37.0887 25.3354 37.1605C25.3447 37.2324 25.242 37.4294 25.1279 37.4294C25.0137 37.4294 25.0476 37.2169 25.024 37.1226L25.023 37.1238ZM25.934 36.9963C25.934 36.9963 25.7451 37.0529 25.7591 36.9963C25.7731 36.9396 25.816 36.9256 25.8773 36.9256C25.9085 36.893 25.9504 36.8728 25.9952 36.8687C26.0209 36.8674 26.0461 36.8759 26.0659 36.8924C26.0659 36.8924 26.1934 36.8357 26.2311 36.8687C26.2687 36.9017 26.2407 36.9017 26.264 36.9396C26.2938 36.9818 26.3132 37.0302 26.321 37.0812C26.321 37.1188 26.1794 37.1991 26.0659 37.1851C25.934 37.1568 25.9573 37.0199 25.934 36.9963ZM27.0334 36.7838C27.0334 36.7838 27.09 36.8167 27.0431 36.8547C27.0101 36.8877 26.8449 36.948 26.703 36.9586C26.5615 36.9586 26.4342 36.982 26.4342 36.935C26.4342 36.888 26.5521 36.7934 26.6228 36.7698C26.6369 36.752 26.6549 36.7377 26.6754 36.7279C26.6959 36.7181 26.7183 36.7131 26.741 36.7131C26.7976 36.7131 27.0191 36.6895 27.0807 36.6802C27.1373 36.6705 27.1846 36.7035 27.1513 36.7508C27.1373 36.7838 27.0334 36.7838 27.0334 36.7838ZM27.3592 35.3265C27.3592 35.3265 27.2882 35.4774 27.2083 35.4774C27.128 35.468 27.128 35.4444 27.128 35.4207C27.128 35.3878 27.2083 35.3028 27.1986 35.2792C27.1753 35.2792 27.1184 35.2792 27.128 35.2226C27.128 35.1753 27.2083 35.1186 27.2789 35.1292C27.3323 35.0854 27.3987 35.0605 27.4677 35.0586C27.548 35.0586 27.6186 35.0819 27.6186 35.1292C27.6186 35.1765 27.5253 35.2801 27.4911 35.3041C27.4534 35.3417 27.4061 35.3663 27.3592 35.3274V35.3265ZM26.283 38.1157C26.283 38.1157 26.1897 38.1253 26.1897 38.1723C26.1897 38.196 26.213 38.196 26.2463 38.182C26.2655 38.1809 26.2845 38.1776 26.3029 38.1723C26.3123 38.182 26.3123 38.2289 26.3832 38.2289C26.4414 38.2211 26.4976 38.2018 26.5484 38.1723C26.605 38.149 26.6523 38.125 26.6523 38.079C26.6287 37.9987 26.5814 37.9607 26.5108 37.9607C26.4746 37.9585 26.4385 37.9667 26.4068 37.9844C26.4068 37.9844 26.3832 37.9371 26.3029 37.9844C26.2227 38.0317 26.232 38.0317 26.2556 38.0553C26.298 38.093 26.284 38.1176 26.284 38.1176L26.283 38.1157ZM25.7498 38.6066C25.7498 38.583 25.8677 38.5357 25.9007 38.55C25.9336 38.5593 26.0279 38.7386 26.0279 38.7575C26.0279 38.7812 25.91 38.8378 25.8627 38.8378C25.8154 38.8378 25.7355 38.7575 25.7355 38.7445C25.7355 38.7351 25.7921 38.7211 25.7921 38.7115C25.8061 38.6882 25.7498 38.6312 25.7498 38.6076V38.6066ZM25.3764 37.9175C25.4001 37.9082 25.4001 37.8845 25.4331 37.8609C25.4434 37.854 25.4552 37.8496 25.4674 37.848C25.4797 37.8464 25.4922 37.8476 25.504 37.8515C25.5123 37.8367 25.5238 37.8239 25.5377 37.814C25.5516 37.8042 25.5675 37.7976 25.5843 37.7946C25.6409 37.7853 25.6882 37.7946 25.6776 37.8183C25.6776 37.8892 25.7249 37.9362 25.7249 37.9928C25.7249 38.0494 25.6919 38.1204 25.574 38.1676C25.4561 38.2006 25.2956 38.2006 25.2719 38.1913C25.2483 38.182 25.2246 38.0874 25.2483 38.0401C25.2719 37.9928 25.3379 37.9411 25.3758 37.9175H25.3764Z" fill="#82764F"/>
<path fill-rule="evenodd" clip-rule="evenodd" d="M25.5273 37.9495C25.5273 37.9495 25.447 37.9967 25.447 38.0204C25.4399 38.0432 25.4367 38.0671 25.4377 38.091C25.4377 38.105 25.5416 38.0816 25.5556 38.0673C25.5603 38.058 25.5273 37.974 25.5273 37.9495Z" fill="#6E6342"/>
<path fill-rule="evenodd" clip-rule="evenodd" d="M24.8245 37.7278C24.8715 37.7374 24.9517 37.7278 25.013 37.7514C25.0603 37.7751 25.0933 37.8223 25.046 37.8789C24.9987 37.9355 24.9527 38.0205 24.8478 38.0061C24.7299 37.9968 24.6167 37.9355 24.6167 37.8883C24.6147 37.8584 24.6187 37.8284 24.6284 37.8C24.6381 37.7717 24.6534 37.7455 24.6733 37.7231C24.7206 37.6855 24.7439 37.7091 24.8242 37.7278H24.8245Z" fill="#585136"/>
<path fill-rule="evenodd" clip-rule="evenodd" d="M24.7684 37.7751C24.7684 37.7751 24.6175 37.8931 24.5795 37.95C24.5322 38.0066 24.3011 38.2991 24.2304 38.3603C24.2539 38.319 24.2806 38.2795 24.3104 38.2424C24.2171 38.3021 24.1471 38.3921 24.1122 38.4972C24.0556 38.6721 24.4286 38.7663 24.6738 38.8373C24.919 38.9082 25.0139 38.9306 25.0139 38.9306C24.9236 38.795 24.8461 38.6512 24.7824 38.5013C24.689 38.2795 24.6408 38.2558 24.7021 38.1519C24.7494 38.048 24.8203 37.9774 24.8203 37.8971C24.792 37.8224 24.7684 37.7751 24.7684 37.7751Z" fill="#574F35"/>
<path fill-rule="evenodd" clip-rule="evenodd" d="M19.3878 38.1479C19.4222 38.1543 19.4574 38.1543 19.4917 38.1479C19.5624 38.1383 20.2988 37.8679 21.0681 37.9165C21.6441 37.9513 22.215 38.0451 22.7718 38.1965C23.7393 38.4513 24.9427 38.9563 25.7214 39.2444C25.9289 39.3243 26.1321 39.4662 26.2814 39.5225C26.8762 39.754 26.8996 39.754 27.2489 39.8153C27.6596 39.8719 28.0796 39.735 28.5186 39.6407C29.0565 39.5225 29.9767 39.4659 30.7838 39.348C31.0447 39.3118 31.3021 39.2534 31.5531 39.1734C31.5531 39.1734 30.9113 39.8153 29.3726 40.0464C28.7506 40.1409 28.1186 40.1488 27.4944 40.0701C27.0035 40.0228 26.6781 39.9519 26.4326 39.8812C26.1541 39.801 25.5829 39.5885 24.8798 39.4145C24.3889 39.287 23.8414 39.1927 23.2138 39.0748C21.6658 38.7914 19.9858 38.4659 19.3872 38.1498L19.3878 38.1479Z" fill="#252211"/>
<path fill-rule="evenodd" clip-rule="evenodd" d="M17.6507 35.2314C17.2774 35.5475 16.8813 35.8496 16.4946 36.1421L15.3289 37.0378C14.9326 37.3302 14.5455 37.6323 14.1489 37.925C13.7522 38.2178 13.3562 38.4959 12.9355 38.765C13.3089 38.449 13.7049 38.1562 14.1013 37.8684C14.4976 37.5806 14.9086 37.2985 15.291 37.0066L16.4567 36.1097C16.8577 35.8173 17.2447 35.5152 17.6507 35.2321V35.2314ZM15.5884 38.5351C15.5884 38.5351 16.0084 38.1858 16.5323 37.6951C17.1834 37.0866 17.9811 36.3076 18.2359 36.1663L15.5881 38.5354L15.5884 38.5351Z" fill="#CFB66C"/>
<path fill-rule="evenodd" clip-rule="evenodd" d="M15.5884 38.5348C15.7962 38.3272 16.018 38.1244 16.2398 37.9259L16.5796 37.6335C16.6835 37.5401 16.8017 37.4353 16.9053 37.3314C17.1128 37.1239 17.316 36.9017 17.5235 36.6896C17.6263 36.5829 17.7351 36.482 17.8492 36.3875C17.9063 36.337 17.9697 36.2941 18.0378 36.2599C18.0947 36.2269 18.156 36.1666 18.2359 36.156C18.189 36.2269 18.1323 36.2599 18.085 36.3212C18.0284 36.3685 17.9811 36.4251 17.9342 36.4721C17.8302 36.576 17.7123 36.6703 17.6084 36.7648C17.3866 36.9537 17.1554 37.1382 16.9336 37.3357C16.7118 37.5333 16.5043 37.7464 16.2822 37.9446C16.0417 38.1477 15.8198 38.3459 15.5884 38.5357V38.5348ZM18.4108 36.6469C18.4108 36.6469 16.8723 38.1527 16.5559 38.3979L18.4108 36.6469Z" fill="#CFB66C"/>
<path fill-rule="evenodd" clip-rule="evenodd" d="M18.411 36.647C18.2726 36.8072 18.1242 36.9585 17.9667 37.1L17.5001 37.5436C17.3492 37.6945 17.2073 37.8457 17.0471 37.9966C16.8819 38.1381 16.731 38.2766 16.5562 38.4072L17.0091 37.9636C17.1603 37.8127 17.3255 37.6855 17.4861 37.5343L17.939 37.0906C18.0946 36.9351 18.2458 36.7839 18.411 36.647ZM18.4816 37.4633C18.3398 37.8591 18.1727 38.2454 17.9814 38.6197C17.585 39.4128 16.9905 40.4036 16.7307 40.9089L18.4816 37.4633Z" fill="#CFB66C"/>
<path fill-rule="evenodd" clip-rule="evenodd" d="M18.4816 37.4636C18.4816 37.6382 18.4343 37.7894 18.3777 37.9402C18.3225 38.0913 18.2596 38.2393 18.1892 38.3839C18.1182 38.5254 18.038 38.6766 17.9577 38.8135C17.8774 38.9504 17.7832 39.0917 17.7122 39.2335L17.2356 40.0735C17.0704 40.3535 16.9099 40.6351 16.7354 40.9042C16.8533 40.6021 17.0138 40.319 17.165 40.0406C17.3302 39.7606 17.4811 39.4806 17.6317 39.1909C17.7052 39.0466 17.7713 38.8986 17.8298 38.7476C17.9005 38.5964 17.9711 38.4548 18.028 38.3179C18.0986 38.167 18.1553 38.0252 18.2262 37.8886C18.3062 37.7421 18.3724 37.6005 18.481 37.4636H18.4816Z" fill="#CFB66C"/>
<path fill-rule="evenodd" clip-rule="evenodd" d="M20.162 41.3335C20.162 41.3335 19.6954 41.9517 19.742 42.7351C19.8693 42.3247 20.0298 41.6969 20.162 41.3335ZM20.6057 41.9532C20.6057 41.9532 20.4405 43.6332 20.3036 44.4592C20.4971 43.5044 20.5347 43.5847 20.6057 41.9532ZM23.6968 44.5585C23.6968 44.5585 22.9984 46.6118 22.9841 47.1824C23.1353 46.5956 23.4277 45.3969 23.6968 44.5569V44.5585Z" fill="#DEC270"/>
<path fill-rule="evenodd" clip-rule="evenodd" d="M25.3301 41.2065C25.3301 41.2065 26.4628 43.0754 27.3125 44.6705C27.0826 43.8678 26.5537 42.3956 25.3301 41.2065Z" fill="#CBAF59"/>
<path fill-rule="evenodd" clip-rule="evenodd" d="M28.374 43.9578C28.996 45.0571 29.5568 46.1899 30.054 47.351C29.9598 46.5487 29.7046 45.1755 28.374 43.9578Z" fill="#E3C677"/>
<path fill-rule="evenodd" clip-rule="evenodd" d="M37.3222 46.713C37.5107 46.5951 37.8838 45.953 38.2095 45.7928C38.5349 45.6276 38.7804 45.5946 39.0731 45.2688C39.3656 44.9288 39.4465 44.7213 40.0877 44.4525C40.9846 44.0652 40.3677 43.5649 40.3677 43.5649C40.4665 43.4679 40.5721 43.378 40.6837 43.2961C40.9152 43.1216 41.184 42.9091 41.1607 42.5361C41.1277 41.9085 41.0098 40.9976 40.4952 40.469C40.9955 40.3651 41.9534 40.2945 42.5485 40.1436C43.2373 39.9688 43.5537 39.7233 43.5537 39.7233C43.5537 39.7233 43.1574 39.0485 43.7992 38.369C44.441 37.6896 44.9649 37.2836 45.3519 36.5235C44.9083 36.4669 44.232 36.2311 42.5059 36.8869C42.5991 36.9307 42.689 36.9812 42.775 37.0378C42.775 37.0378 41.7132 37.3305 41.3262 37.6563C40.6511 38.2272 40.5662 38.6945 39.8347 39.0438C39.1033 39.3932 38.3669 39.2986 37.7584 39.5817C37.1499 39.8649 37.06 40.1056 36.8378 40.2096C36.8851 40.2662 36.8285 40.3605 36.9181 40.4407C36.8615 40.521 36.5311 41.0589 36.196 41.0589C36.229 41.1865 36.5121 41.2807 36.5121 41.2807C36.5121 41.2807 36.3046 41.4319 35.776 41.4696C36.0448 41.7496 36.2999 42.0548 37.003 42.4984C36.9464 42.6163 36.7103 42.7912 36.8048 43.013C36.9088 43.2348 37.1782 43.5369 38.2537 43.7824C37.7061 43.8057 37.0646 43.9333 36.2004 43.8153C35.3367 43.7114 35.1952 43.6501 34.6619 43.7824C34.7185 43.839 34.8694 43.839 35.0017 43.9899C34.8601 43.9992 33.9728 43.886 33.6707 44.2826C33.3546 44.693 33.2177 45.3681 33.2414 45.8211C33.0762 45.9013 32.9157 46.0429 32.9959 46.3357C33.0762 46.6284 33.4962 46.7227 33.7653 46.9065C34.0341 47.1047 34.0577 47.1753 34.3129 47.1284C34.5817 47.0717 34.978 46.8029 35.2095 46.8029C35.4409 46.8029 35.6058 46.9775 35.6058 46.9775C35.6058 46.9775 36.2336 46.6754 36.2949 46.732C36.3516 46.7886 36.3043 47.152 36.3656 47.2086C36.4278 47.2513 37.1349 46.8313 37.3238 46.713H37.3222Z" fill="#ECD592"/>
<path fill-rule="evenodd" clip-rule="evenodd" d="M51.042 27.8265C48.0924 20.2093 40.8006 18.7981 40.8006 18.7981H19.9969L20.0772 26.5569H24.2202V43.8824H19.9966V51.6272H40.2247C45.0998 51.6272 49.0077 46.7281 49.0077 46.7281C55.2657 37.8462 51.0417 27.8265 51.0417 27.8265H51.042ZM40.3333 41.5083C40.3333 41.5083 38.7466 43.7974 37.0203 43.7974H33.5669L33.4851 26.5759H37.9169C37.9169 26.5759 39.9702 27.0052 41.4048 31.0686C41.4048 31.0686 43.3066 36.8864 40.3333 41.5083Z" fill="white" fill-opacity="0.8"/>
</svg>
