<svg width="70" height="70" viewBox="0 0 70 70" fill="none" xmlns="http://www.w3.org/2000/svg">
<path d="M40.4244 54.2767V60.8141L34.7252 64.1666L29.1936 60.8141V54.2767L34.7252 57.6292L40.4244 54.2767ZM9.91675 31.6474L15.4484 34.9999V46.2308L25.003 51.93V58.4674L9.91675 49.5833V31.6474ZM59.5336 31.6474V49.5833L44.2798 58.4674V51.93L53.8344 46.2308V34.9999L59.5336 31.6474ZM44.2798 22.7633L49.979 26.1158V32.6532L40.4244 38.3524V49.7509L34.8928 53.1034L29.3612 49.7509V38.3524L19.4713 32.6532V26.1158L25.1706 22.7633L34.7252 28.4626L44.2798 22.7633ZM19.4713 37.3467L25.003 40.6992V47.2365L19.4713 43.884V37.3467ZM49.979 37.3467V43.884L44.4474 47.2365V40.6992L49.979 37.3467ZM15.4484 17.0641L21.1476 20.4166L15.4484 23.7691V30.3064L9.91675 26.9539V20.4166L15.4484 17.0641ZM54.002 17.0641L59.7012 20.4166V26.9539L54.002 30.3064V23.7691L48.4704 20.4166L54.002 17.0641ZM34.7252 17.0641L40.4244 20.4166L34.7252 23.7691L29.1936 20.4166L34.7252 17.0641ZM34.7252 5.83325L49.979 14.7174L44.4474 18.0698L34.8928 12.3706L25.1706 18.0698L19.639 14.7174L34.7252 5.83325Z" fill="#F3BA2F"/>
</svg>
