<svg width="16" height="17" viewBox="0 0 16 17" fill="none" xmlns="http://www.w3.org/2000/svg">
<path d="M7.9999 2.99137L7.2829 2.18911C5.5999 0.305933 2.5139 0.955793 1.39989 3.32337C0.876895 4.43695 0.758895 6.04473 1.71389 8.09663C2.63389 10.0723 4.5479 12.4388 7.9999 15.0165C11.4519 12.4388 13.3649 10.0723 14.2859 8.09663C15.2409 6.04364 15.1239 4.43695 14.5999 3.32337C13.4859 0.955793 10.3999 0.304845 8.7169 2.18802L7.9999 2.99137ZM7.9999 16.3282C-7.33311 5.29907 3.27889 -3.30911 7.82389 1.24426C7.88389 1.30413 7.94289 1.36617 7.9999 1.4304C8.05632 1.36623 8.11503 1.3045 8.17589 1.24534C12.7199 -3.31129 23.3329 5.29799 7.9999 16.3282Z" fill="#FED700"/>
</svg>
