<svg width="22" height="21" viewBox="0 0 22 21" fill="none" xmlns="http://www.w3.org/2000/svg">
<path fill-rule="evenodd" clip-rule="evenodd" d="M5.09824 2.965L1.81479 9.66894C1.80167 9.69323 1.79714 9.72105 1.80193 9.74809C1.80672 9.77513 1.82054 9.79988 1.84127 9.81851L10.7047 18.08C10.7302 18.1023 10.7633 18.1147 10.7976 18.1147C10.832 18.1147 10.8651 18.1023 10.8906 18.08L19.7593 9.81851C19.7798 9.79975 19.7935 9.77501 19.7983 9.74803C19.8031 9.72104 19.7987 9.69328 19.7858 9.66894L16.5024 2.965C16.4936 2.94168 16.4776 2.92163 16.4564 2.90772C16.4353 2.8938 16.4102 2.88672 16.3847 2.88749H5.21473C5.18956 2.88816 5.16511 2.89582 5.14426 2.90955C5.12341 2.92328 5.10704 2.94252 5.09706 2.965H5.09824Z" fill="#50AF95"/>
<path fill-rule="evenodd" clip-rule="evenodd" d="M11.941 10.3547C11.8774 10.3598 11.5486 10.3804 10.8164 10.3804C10.2331 10.3804 9.81917 10.365 9.67062 10.3547C7.41645 10.2569 5.73501 9.87509 5.73501 9.42122C5.73501 8.96735 7.41645 8.58069 9.67062 8.48288V9.97318C9.8177 9.98348 10.2384 10.0092 10.8217 10.0092C11.5218 10.0092 11.8718 9.97833 11.9357 9.97318V8.48288C14.1846 8.58069 15.866 8.96249 15.866 9.41607C15.866 9.86965 14.1893 10.2569 11.941 10.3547ZM11.941 8.33331V6.99744H15.0812V4.9606H6.53072V6.99744H9.67062V8.33331C7.11934 8.4477 5.19934 8.93646 5.19934 9.52961C5.19934 10.1228 7.11934 10.6075 9.67062 10.7259V15.0012H11.941V10.7259C14.4869 10.6115 16.4019 10.1225 16.4019 9.53476C16.4019 8.94704 14.4869 8.44656 11.941 8.33359V8.33331Z" fill="white"/>
</svg>
