<svg width="110" height="22" viewBox="0 0 110 22" fill="none" xmlns="http://www.w3.org/2000/svg">
<path fill-rule="evenodd" clip-rule="evenodd" d="M16.0967 19.2502C15.9501 19.2508 15.8055 19.2162 15.6751 19.1494L11.0001 16.7019L6.32505 19.1494C5.87697 19.385 5.32271 19.2128 5.08709 18.7647C4.99238 18.5846 4.96029 18.3781 4.99588 18.1777L5.91255 13.0169L2.13588 9.35023H2.13588C1.89577 9.11062 1.80761 8.75799 1.90672 8.43357L1.90672 8.43357C2.01511 8.1012 2.3031 7.85943 2.64922 7.81023L7.87422 7.0494L10.1751 2.3469V2.3469C10.3957 1.89127 10.944 1.70079 11.3996 1.92147C11.5853 2.01137 11.7351 2.16126 11.8251 2.3469L14.1534 7.04023L19.3784 7.80107C19.7245 7.85026 20.0125 8.09204 20.1209 8.4244C20.22 8.74882 20.1318 9.10145 19.8917 9.34107L16.1151 13.0077L17.0317 18.1686C17.0985 18.5195 16.9554 18.8772 16.6651 19.0852C16.4991 19.2016 16.2992 19.2596 16.0967 19.2502L16.0967 19.2502Z" fill="#FED700"/>
<path fill-rule="evenodd" clip-rule="evenodd" d="M38.0967 19.2502C37.9501 19.2508 37.8055 19.2162 37.6751 19.1494L33.0001 16.7019L28.3251 19.1494C27.877 19.385 27.3227 19.2128 27.0871 18.7647C26.9924 18.5846 26.9603 18.3781 26.9959 18.1777L27.9126 13.0169L24.1359 9.35023H24.1359C23.8958 9.11062 23.8076 8.75799 23.9067 8.43357L23.9067 8.43357C24.0151 8.1012 24.3031 7.85943 24.6492 7.81023L29.8742 7.0494L32.1751 2.3469V2.3469C32.3957 1.89127 32.944 1.70079 33.3996 1.92147C33.5853 2.01137 33.7351 2.16126 33.8251 2.3469L36.1534 7.04023L41.3784 7.80107C41.7245 7.85026 42.0125 8.09204 42.1209 8.4244C42.22 8.74882 42.1318 9.10145 41.8917 9.34107L38.1151 13.0077L39.0317 18.1686C39.0985 18.5195 38.9554 18.8772 38.6651 19.0852C38.4991 19.2016 38.2992 19.2596 38.0967 19.2502L38.0967 19.2502Z" fill="#FED700"/>
<path fill-rule="evenodd" clip-rule="evenodd" d="M60.0967 19.2502C59.9501 19.2508 59.8055 19.2162 59.6751 19.1494L55.0001 16.7019L50.3251 19.1494C49.877 19.385 49.3227 19.2128 49.0871 18.7647C48.9924 18.5846 48.9603 18.3781 48.9959 18.1777L49.9126 13.0169L46.1359 9.35023H46.1359C45.8958 9.11062 45.8076 8.75799 45.9067 8.43357L45.9067 8.43357C46.0151 8.1012 46.3031 7.85943 46.6492 7.81023L51.8742 7.0494L54.1751 2.3469V2.3469C54.3957 1.89127 54.944 1.70079 55.3996 1.92147C55.5853 2.01137 55.7351 2.16126 55.8251 2.3469L58.1534 7.04023L63.3784 7.80107C63.7245 7.85026 64.0125 8.09204 64.1209 8.4244C64.22 8.74882 64.1318 9.10145 63.8917 9.34107L60.1151 13.0077L61.0317 18.1686C61.0985 18.5195 60.9554 18.8772 60.6651 19.0852C60.4991 19.2016 60.2992 19.2596 60.0967 19.2502L60.0967 19.2502Z" fill="#FED700"/>
<path fill-rule="evenodd" clip-rule="evenodd" d="M82.0967 19.2502C81.9501 19.2508 81.8055 19.2162 81.6751 19.1494L77.0001 16.7019L72.3251 19.1494C71.877 19.385 71.3227 19.2128 71.0871 18.7647C70.9924 18.5846 70.9603 18.3781 70.9959 18.1777L71.9126 13.0169L68.1359 9.35023H68.1359C67.8958 9.11062 67.8076 8.75799 67.9067 8.43357L67.9067 8.43357C68.0151 8.1012 68.3031 7.85943 68.6492 7.81023L73.8742 7.0494L76.1751 2.3469V2.3469C76.3957 1.89127 76.944 1.70079 77.3996 1.92147C77.5853 2.01137 77.7351 2.16126 77.8251 2.3469L80.1534 7.04023L85.3784 7.80107C85.7245 7.85026 86.0125 8.09204 86.1209 8.4244C86.22 8.74882 86.1318 9.10145 85.8917 9.34107L82.1151 13.0077L83.0317 18.1686C83.0985 18.5195 82.9554 18.8772 82.6651 19.0852C82.4991 19.2016 82.2992 19.2596 82.0967 19.2502L82.0967 19.2502Z" fill="#FED700"/>
<path fill-rule="evenodd" clip-rule="evenodd" d="M104.097 19.2502C103.95 19.2508 103.806 19.2162 103.675 19.1494L99.0001 16.7019L94.3251 19.1494C93.877 19.385 93.3227 19.2128 93.0871 18.7647C92.9924 18.5846 92.9603 18.3781 92.9959 18.1777L93.9126 13.0169L90.1359 9.35023H90.1359C89.8958 9.11062 89.8076 8.75799 89.9067 8.43357L89.9067 8.43357C90.0151 8.1012 90.3031 7.85943 90.6492 7.81023L95.8742 7.0494L98.1751 2.3469V2.3469C98.3957 1.89127 98.944 1.70079 99.3996 1.92147C99.5853 2.01137 99.7351 2.16126 99.8251 2.3469L102.153 7.04023L107.378 7.80107C107.724 7.85026 108.012 8.09204 108.121 8.4244C108.22 8.74882 108.132 9.10145 107.892 9.34107L104.115 13.0077L105.032 18.1686C105.099 18.5195 104.955 18.8772 104.665 19.0852C104.499 19.2016 104.299 19.2596 104.097 19.2502L104.097 19.2502Z" fill="#FED700"/>
</svg>
