<svg width="16" height="12" viewBox="0 0 16 12" fill="none" xmlns="http://www.w3.org/2000/svg">
<path fill-rule="evenodd" clip-rule="evenodd" d="M0 0H16V12H0V0Z" fill="#F7FCFF"/>
<path fill-rule="evenodd" clip-rule="evenodd" d="M0 7.33334V8.33334H16V7.33334H0Z" fill="#E31D1C"/>
<path fill-rule="evenodd" clip-rule="evenodd" d="M0 9.16666V10.1667H16V9.16666H0Z" fill="#E31D1C"/>
<path fill-rule="evenodd" clip-rule="evenodd" d="M0 3.66666V4.66666H16V3.66666H0Z" fill="#E31D1C"/>
<path fill-rule="evenodd" clip-rule="evenodd" d="M0 11V12H16V11H0Z" fill="#E31D1C"/>
<path fill-rule="evenodd" clip-rule="evenodd" d="M0 5.5V6.5H16V5.5H0Z" fill="#E31D1C"/>
<path fill-rule="evenodd" clip-rule="evenodd" d="M0 0V1H16V0H0Z" fill="#E31D1C"/>
<path fill-rule="evenodd" clip-rule="evenodd" d="M0 1.83334V2.83334H16V1.83334H0Z" fill="#E31D1C"/>
<rect width="10" height="6.5" fill="#2E42A5"/>
<path fill-rule="evenodd" clip-rule="evenodd" d="M0.860617 1.46932L0.497677 1.72377L0.62021 1.27096L0.297852 0.984005H0.718895L0.86011 0.614471L1.0257 0.984005H1.38462L1.10261 1.27096L1.21179 1.72377L0.860617 1.46932ZM2.86062 1.46932L2.49768 1.72377L2.62021 1.27096L2.29785 0.984005H2.7189L2.86011 0.614471L3.0257 0.984005H3.38462L3.10261 1.27096L3.21179 1.72377L2.86062 1.46932ZM4.49768 1.72377L4.86062 1.46932L5.21179 1.72377L5.10261 1.27096L5.38462 0.984005H5.0257L4.86011 0.614471L4.7189 0.984005H4.29785L4.62021 1.27096L4.49768 1.72377ZM6.86062 1.46932L6.49768 1.72377L6.62021 1.27096L6.29785 0.984005H6.7189L6.86011 0.614471L7.0257 0.984005H7.38462L7.10261 1.27096L7.21179 1.72377L6.86062 1.46932ZM0.497677 3.72377L0.860617 3.46932L1.21179 3.72377L1.10261 3.27096L1.38462 2.984H1.0257L0.86011 2.61447L0.718895 2.984H0.297852L0.62021 3.27096L0.497677 3.72377ZM2.86062 3.46932L2.49768 3.72377L2.62021 3.27096L2.29785 2.984H2.7189L2.86011 2.61447L3.0257 2.984H3.38462L3.10261 3.27096L3.21179 3.72377L2.86062 3.46932ZM4.49768 3.72377L4.86062 3.46932L5.21179 3.72377L5.10261 3.27096L5.38462 2.984H5.0257L4.86011 2.61447L4.7189 2.984H4.29785L4.62021 3.27096L4.49768 3.72377ZM6.86062 3.46932L6.49768 3.72377L6.62021 3.27096L6.29785 2.984H6.7189L6.86011 2.61447L7.0257 2.984H7.38462L7.10261 3.27096L7.21179 3.72377L6.86062 3.46932ZM0.497677 5.72377L0.860617 5.46932L1.21179 5.72377L1.10261 5.27096L1.38462 4.98401H1.0257L0.86011 4.61447L0.718895 4.98401H0.297852L0.62021 5.27096L0.497677 5.72377ZM2.86062 5.46932L2.49768 5.72377L2.62021 5.27096L2.29785 4.98401H2.7189L2.86011 4.61447L3.0257 4.98401H3.38462L3.10261 5.27096L3.21179 5.72377L2.86062 5.46932ZM4.49768 5.72377L4.86062 5.46932L5.21179 5.72377L5.10261 5.27096L5.38462 4.98401H5.0257L4.86011 4.61447L4.7189 4.98401H4.29785L4.62021 5.27096L4.49768 5.72377ZM6.86062 5.46932L6.49768 5.72377L6.62021 5.27096L6.29785 4.98401H6.7189L6.86011 4.61447L7.0257 4.98401H7.38462L7.10261 5.27096L7.21179 5.72377L6.86062 5.46932ZM8.49768 1.72377L8.86062 1.46932L9.21179 1.72377L9.10261 1.27096L9.38462 0.984005H9.0257L8.86011 0.614471L8.71889 0.984005H8.29785L8.62021 1.27096L8.49768 1.72377ZM8.86062 3.46932L8.49768 3.72377L8.62021 3.27096L8.29785 2.984H8.71889L8.86011 2.61447L9.0257 2.984H9.38462L9.10261 3.27096L9.21179 3.72377L8.86062 3.46932ZM8.49768 5.72377L8.86062 5.46932L9.21179 5.72377L9.10261 5.27096L9.38462 4.98401H9.0257L8.86011 4.61447L8.71889 4.98401H8.29785L8.62021 5.27096L8.49768 5.72377ZM1.86062 2.46932L1.49768 2.72377L1.62021 2.27096L1.29785 1.984H1.7189L1.86011 1.61447L2.0257 1.984H2.38462L2.10261 2.27096L2.21179 2.72377L1.86062 2.46932ZM3.49768 2.72377L3.86062 2.46932L4.21179 2.72377L4.10261 2.27096L4.38462 1.984H4.0257L3.86011 1.61447L3.7189 1.984H3.29785L3.62021 2.27096L3.49768 2.72377ZM5.86062 2.46932L5.49768 2.72377L5.62021 2.27096L5.29785 1.984H5.7189L5.86011 1.61447L6.0257 1.984H6.38462L6.10261 2.27096L6.21179 2.72377L5.86062 2.46932ZM1.49768 4.72377L1.86062 4.46932L2.21179 4.72377L2.10261 4.27096L2.38462 3.98401H2.0257L1.86011 3.61447L1.7189 3.98401H1.29785L1.62021 4.27096L1.49768 4.72377ZM3.86062 4.46932L3.49768 4.72377L3.62021 4.27096L3.29785 3.98401H3.7189L3.86011 3.61447L4.0257 3.98401H4.38462L4.10261 4.27096L4.21179 4.72377L3.86062 4.46932ZM5.49768 4.72377L5.86062 4.46932L6.21179 4.72377L6.10261 4.27096L6.38462 3.98401H6.0257L5.86011 3.61447L5.7189 3.98401H5.29785L5.62021 4.27096L5.49768 4.72377ZM7.86062 2.46932L7.49768 2.72377L7.62021 2.27096L7.29785 1.984H7.7189L7.86011 1.61447L8.0257 1.984H8.38462L8.10261 2.27096L8.21179 2.72377L7.86062 2.46932ZM7.49768 4.72377L7.86062 4.46932L8.21179 4.72377L8.10261 4.27096L8.38462 3.98401H8.0257L7.86011 3.61447L7.7189 3.98401H7.29785L7.62021 4.27096L7.49768 4.72377Z" fill="#F7FCFF"/>
</svg>
