<svg width="18" height="18" viewBox="0 0 18 18" fill="none" xmlns="http://www.w3.org/2000/svg">
<path d="M9.00044 4.01785L7.60298 2.41541L7.60245 2.41481C7.24748 2.00987 6.82207 1.686 6.34995 1.46411C5.87768 1.24215 5.36914 1.12719 4.85437 1.12719C4.33961 1.12719 3.83106 1.24215 3.3588 1.46411C2.88673 1.68597 2.46137 2.00979 2.10642 2.41466C1.37836 3.24275 0.975211 4.3517 0.975211 5.5008C0.975211 6.65001 1.37843 7.75904 2.10661 8.58716L2.10688 8.58746L8.76559 16.1403L9 16.4061L9.23441 16.1403L15.8931 8.58746L15.8934 8.58716C16.6216 7.75904 17.0248 6.65001 17.0248 5.5008C17.0248 4.35172 16.6217 3.24279 15.8936 2.4147C15.5389 2.00954 15.1135 1.68555 14.6414 1.4637C14.1692 1.24186 13.6607 1.12713 13.1461 1.1275C13.1459 1.1275 13.1456 1.1275 13.1453 1.1275L13.1456 1.44M9.00044 4.01785L10.3902 2.43026L10.391 2.42937L10.6261 2.6352M9.00044 4.01785L10.3895 2.4311M9.00044 4.01785L10.3895 2.4311M13.1456 1.44C12.6755 1.43925 12.2101 1.5447 11.7772 1.75006C11.3443 1.95542 10.9528 2.25647 10.6261 2.6352M13.1456 1.44C13.6136 1.43956 14.0769 1.54377 14.5085 1.74654C14.94 1.9493 15.3311 2.24653 15.6587 2.6208L13.1456 1.44ZM10.6261 2.6352L10.3895 2.4311M10.6261 2.6352L10.3895 2.4311M13.1455 0.312502L13.1453 0.312502C12.5531 0.31194 11.9658 0.443768 11.4172 0.701514C10.8686 0.959327 10.3689 1.33844 9.94858 1.81863L9.94749 1.81987L9.23405 2.62627L9 2.89082L8.76595 2.62627L8.05252 1.81987L8.05173 1.81898C7.63084 1.3396 7.13093 0.961073 6.58228 0.703497C6.03376 0.445988 5.4465 0.31401 4.85437 0.31401C4.26225 0.31401 3.67499 0.445988 3.12647 0.703497C2.57783 0.961063 2.07794 1.33957 1.65706 1.81893L13.1455 0.312502ZM13.1455 0.312502C13.7377 0.312684 14.3251 0.444882 14.8736 0.702636C15.4223 0.960457 15.9221 1.33924 16.3429 1.81889C17.2015 2.79803 17.6875 4.12236 17.6875 5.508C17.6875 6.89356 17.2016 8.21781 16.3431 9.19694C16.343 9.19701 16.3429 9.19709 16.3429 9.19716L9 17.5274M13.1455 0.312502L9 17.5274M9 17.5274L1.65714 9.19716C1.65707 9.19709 1.657 9.19701 1.65694 9.19694C0.798434 8.21781 0.3125 6.89356 0.3125 5.508C0.3125 4.1224 0.798462 2.79811 1.65701 1.81898L9 17.5274Z" fill="#242424" stroke="#252B42" stroke-width="0.625"/>
</svg>
