<svg width="70" height="70" viewBox="0 0 70 70" fill="none" xmlns="http://www.w3.org/2000/svg">
<path d="M19.8476 11.7305C21.4542 12.1687 23.0609 12.4608 24.6676 12.899C26.2743 13.3372 27.881 13.6293 29.4876 14.0675C29.9258 14.2135 30.0719 14.0675 30.2179 13.6293C30.8022 11.1462 31.3864 8.80926 31.9707 6.32621C32.1167 5.88803 32.2628 5.74196 32.701 5.88802C34.1616 6.32621 35.4761 6.61833 36.9368 6.91045C37.3749 7.05652 37.3749 7.20258 37.2289 7.4947C36.6446 9.83169 36.0604 12.3147 35.4761 14.6517C35.4761 14.7978 35.4762 14.9438 35.3301 15.236C36.4986 15.5281 37.8131 15.8202 38.9816 16.1123C39.1277 16.1123 39.2738 15.8202 39.4198 15.6741C39.858 13.7753 40.2962 12.0226 40.8804 10.1238C41.0265 9.53956 41.1725 8.95532 41.3186 8.37107C41.3186 8.07895 41.4647 7.93289 41.7568 8.07895C43.2174 8.51713 44.678 8.80926 46.2847 9.24744C46.4308 9.24744 46.4308 9.3935 46.5768 9.3935C46.1386 11.2923 45.7005 13.045 45.2623 14.7978C45.1162 15.5281 44.9701 16.2584 44.678 16.9887C44.532 17.4269 44.678 17.5729 45.1162 17.719C46.7229 18.4493 48.3296 19.1796 49.9362 19.9099C51.3969 20.7863 52.7114 21.9548 53.7338 23.4154C55.0484 25.6063 55.1945 27.9433 54.6102 30.2803C54.172 31.887 53.5878 33.3476 52.4193 34.5161C51.5429 35.3925 50.3744 35.9767 49.2059 36.4149C49.0599 36.4149 48.9138 36.561 48.6217 36.561C49.2059 36.9991 49.7902 37.2913 50.3744 37.7294C52.1272 39.044 53.2957 40.6507 53.8799 42.6955C54.172 44.3022 54.026 46.055 53.5878 47.6616C53.0035 49.7065 52.2732 51.4592 50.9587 53.0659C49.352 54.9647 47.3071 55.9871 44.9701 56.2793C41.9029 56.7174 38.9816 56.4253 36.0604 55.9871C35.6222 55.8411 35.3301 55.9871 35.184 56.4253C34.5998 58.7623 34.0155 61.2453 33.4313 63.5823C33.2852 64.1666 33.2852 64.3126 32.5549 64.0205C31.2404 63.7284 29.7797 63.2902 28.4652 62.9981C28.027 62.852 28.027 62.706 28.1731 62.4138C28.7573 59.9308 29.3416 57.4477 30.0719 55.1108C30.0719 54.8186 30.2179 54.6726 29.9258 54.5265C28.7573 54.2344 27.5888 53.9423 26.2743 53.6501C25.9821 54.9647 25.544 56.2793 25.2518 57.5938C24.9597 58.9084 24.5215 60.2229 24.2294 61.5375C24.0834 61.8296 24.0834 61.9757 23.6452 61.8296C22.1846 61.3914 20.7239 61.0993 19.2633 60.8072C18.8251 60.6611 18.8251 60.515 18.9712 60.2229C19.5554 57.7399 20.1397 55.2568 20.87 52.9198C20.87 52.7738 21.0161 52.6277 21.0161 52.3356C17.6566 51.4592 14.2972 50.5829 10.7917 49.7065C11.0839 49.1222 11.2299 48.6841 11.5221 48.0998C12.1063 46.7853 12.6905 45.4707 13.1287 44.3022C13.2748 43.864 13.4209 43.864 13.859 43.864C14.8815 44.1562 16.05 44.4483 17.0724 44.5943C18.2409 44.8865 19.1173 44.3022 19.2633 43.2798C21.1621 35.8306 23.0609 28.3815 24.8137 20.7863C25.1058 19.6178 24.3755 18.3033 23.0609 17.8651C21.7464 17.4269 20.4318 17.1348 19.2633 16.8426C18.9712 16.8426 18.8251 16.6966 18.9712 16.4045C19.4094 14.7978 19.8476 13.045 20.2857 11.4384C19.7015 11.8765 19.7015 11.8765 19.8476 11.7305ZM27.2967 47.8077C27.4428 47.8077 27.5888 47.9537 27.5888 47.9537C29.9258 48.538 32.4089 49.2683 34.8919 49.4144C36.6446 49.5604 38.2513 49.5604 39.858 48.9762C42.6332 48.0998 43.8017 44.4483 42.195 42.1113C41.4647 40.9428 40.2962 40.2125 39.1277 39.4822C36.4986 38.0216 33.4313 37.4373 30.5101 36.8531C30.0719 36.707 30.0719 36.8531 29.9258 37.2913C29.6337 38.7519 29.1955 40.0664 28.9034 41.527C28.3191 43.5719 27.881 45.6168 27.2967 47.8077ZM39.5659 32.9094C39.858 32.9094 40.5883 32.7633 41.1726 32.6173C43.9477 32.033 45.4083 28.8197 43.9477 26.3366C43.2174 25.0221 41.9029 24.1457 40.5883 23.5615C38.5434 22.6851 36.4986 22.2469 34.3077 21.6627C33.8695 21.5166 33.7234 21.6627 33.5773 22.1009C32.847 25.1681 32.1167 28.0894 31.2404 31.1567C31.0943 31.4488 31.2404 31.5949 31.5325 31.7409C32.1167 31.887 32.5549 32.033 33.1392 32.1791C35.3301 32.4712 37.2289 32.9094 39.5659 32.9094Z" fill="#F5B300"/>
</svg>
