<svg width="17" height="16" viewBox="0 0 17 16" fill="none" xmlns="http://www.w3.org/2000/svg">
<path fill-rule="evenodd" clip-rule="evenodd" d="M4.76292 11.762H4.97895L3.39995 2.74749H1.69995V1.56787H4.48314L5.03082 4.70369H15.3208L14.4708 10.1914H5.98899L6.26635 11.7593H13.1519C13.1595 11.7593 13.1672 11.7593 13.175 11.7593C13.8791 11.7593 14.45 12.2858 14.45 12.9352C14.45 13.5847 13.8791 14.1111 13.175 14.1111C12.4708 14.1111 11.9 13.5847 11.9 12.9352C11.9 12.9299 11.9 12.9247 11.9001 12.9194H5.94984C5.94991 12.9247 5.94995 12.9299 5.94995 12.9352C5.94995 13.5847 5.37911 14.1111 4.67495 14.1111C3.97079 14.1111 3.39995 13.5847 3.39995 12.9352C3.39995 12.2858 3.97079 11.7593 4.67495 11.7593C4.70452 11.7593 4.73385 11.7602 4.76292 11.762ZM5.23592 5.88068L5.78531 9.01373H13.4045L13.8939 5.88068H5.23592Z" fill="#242424"/>
</svg>
