<svg width="123" height="125" viewBox="0 0 123 125" fill="none" xmlns="http://www.w3.org/2000/svg">
<path d="M61.5 124.253C95.4655 124.253 123 96.4377 123 62.1263C123 27.8148 95.4655 0 61.5 0C27.5345 0 0 27.8148 0 62.1263C0 96.4377 27.5345 124.253 61.5 124.253Z" fill="black"/>
<path d="M14.6221 34.3505V79.8695L37.1402 57.1462L14.6221 34.3505Z" fill="#FED700"/>
<path d="M83.9688 57.267L61.4507 80.0144L38.9326 57.267L61.4507 34.4711L83.9688 57.267Z" fill="#FED700"/>
<path d="M15.2432 80.7166H60.3272L37.8091 57.9934L15.2432 80.7166Z" fill="#FED700"/>
<path d="M108.378 34.3505V79.8695L85.8604 57.1462L108.378 34.3505Z" fill="#FED700"/>
<path d="M107.733 80.7166H62.6733L85.1675 57.9934L107.733 80.7166Z" fill="#FED700"/>
<path d="M108.38 81.731H14.6221V89.9017H108.38V81.731Z" fill="#FED700"/>
<path d="M61.4578 50.8547L55.1294 57.2476L61.4578 63.6405L67.7863 57.2476L61.4578 50.8547Z" fill="#4F0166"/>
</svg>
