<svg width="50" height="50" viewBox="0 0 50 50" fill="none" xmlns="http://www.w3.org/2000/svg">
<path fill-rule="evenodd" clip-rule="evenodd" d="M20.1561 12.5C20.1561 9.82487 22.3248 7.65625 24.9999 7.65625C27.675 7.65625 29.8436 9.82487 29.8436 12.5V13.1771H20.1561V12.5ZM17.3436 15.9896V18.75C17.3436 19.5266 17.9732 20.1562 18.7499 20.1562C19.5265 20.1562 20.1561 19.5266 20.1561 18.75V15.9896H29.8436V18.75C29.8436 19.5266 30.4732 20.1562 31.2499 20.1562C32.0265 20.1562 32.6561 19.5266 32.6561 18.75V15.9896H36.1979L38.0648 40.2604H11.9353L13.8023 15.9896H17.3436ZM17.3436 13.1771V12.5C17.3436 8.27157 20.7715 4.84375 24.9999 4.84375C29.2283 4.84375 32.6561 8.27157 32.6561 12.5V13.1771H37.5001C38.2349 13.1771 38.8458 13.7429 38.9022 14.4755L40.9855 41.5588C41.0156 41.9494 40.8814 42.3348 40.6152 42.6222C40.3491 42.9096 39.9751 43.0729 39.5834 43.0729H10.4168C10.025 43.0729 9.6511 42.9096 9.38496 42.6222C9.11881 42.3348 8.9846 41.9494 9.01464 41.5588L11.098 14.4755C11.1543 13.7429 11.7653 13.1771 12.5001 13.1771H17.3436Z" fill="#FED700"/>
</svg>
