<svg width="15" height="17" viewBox="0 0 15 17" fill="none" xmlns="http://www.w3.org/2000/svg">
<path d="M0 0.544271C0 0.399921 0.0526784 0.261484 0.146447 0.159413C0.240215 0.0573426 0.367392 0 0.5 0H2C2.11153 3.35396e-05 2.21985 0.0406578 2.30773 0.115412C2.39561 0.190167 2.45801 0.29476 2.485 0.412557L2.89 2.17708H14.5C14.5734 2.17716 14.6459 2.19483 14.7124 2.22884C14.7788 2.26286 14.8375 2.31238 14.8844 2.3739C14.9313 2.43541 14.9651 2.5074 14.9835 2.58476C15.002 2.66212 15.0045 2.74295 14.991 2.8215L13.491 11.5298C13.4696 11.6546 13.4087 11.7672 13.3191 11.8483C13.2294 11.9294 13.1166 11.9738 13 11.974H4C3.88343 11.9738 3.77057 11.9294 3.68091 11.8483C3.59126 11.7672 3.53045 11.6546 3.509 11.5298L2.01 2.83783L1.61 1.08854H0.5C0.367392 1.08854 0.240215 1.0312 0.146447 0.929128C0.0526784 0.827058 0 0.68862 0 0.544271ZM3.102 3.26562L4.415 10.8854H12.585L13.898 3.26562H3.102ZM5 11.974C4.46957 11.974 3.96086 12.2033 3.58579 12.6116C3.21071 13.0199 3 13.5736 3 14.151C3 14.7284 3.21071 15.2822 3.58579 15.6905C3.96086 16.0988 4.46957 16.3281 5 16.3281C5.53043 16.3281 6.03914 16.0988 6.41421 15.6905C6.78929 15.2822 7 14.7284 7 14.151C7 13.5736 6.78929 13.0199 6.41421 12.6116C6.03914 12.2033 5.53043 11.974 5 11.974ZM12 11.974C11.4696 11.974 10.9609 12.2033 10.5858 12.6116C10.2107 13.0199 10 13.5736 10 14.151C10 14.7284 10.2107 15.2822 10.5858 15.6905C10.9609 16.0988 11.4696 16.3281 12 16.3281C12.5304 16.3281 13.0391 16.0988 13.4142 15.6905C13.7893 15.2822 14 14.7284 14 14.151C14 13.5736 13.7893 13.0199 13.4142 12.6116C13.0391 12.2033 12.5304 11.974 12 11.974ZM5 13.0625C5.26522 13.0625 5.51957 13.1772 5.70711 13.3813C5.89464 13.5855 6 13.8623 6 14.151C6 14.4397 5.89464 14.7166 5.70711 14.9208C5.51957 15.1249 5.26522 15.2396 5 15.2396C4.73478 15.2396 4.48043 15.1249 4.29289 14.9208C4.10536 14.7166 4 14.4397 4 14.151C4 13.8623 4.10536 13.5855 4.29289 13.3813C4.48043 13.1772 4.73478 13.0625 5 13.0625ZM12 13.0625C12.2652 13.0625 12.5196 13.1772 12.7071 13.3813C12.8946 13.5855 13 13.8623 13 14.151C13 14.4397 12.8946 14.7166 12.7071 14.9208C12.5196 15.1249 12.2652 15.2396 12 15.2396C11.7348 15.2396 11.4804 15.1249 11.2929 14.9208C11.1054 14.7166 11 14.4397 11 14.151C11 13.8623 11.1054 13.5855 11.2929 13.3813C11.4804 13.1772 11.7348 13.0625 12 13.0625Z" fill="#FED700"/>
</svg>
