<svg width="70" height="70" viewBox="0 0 70 70" fill="none" xmlns="http://www.w3.org/2000/svg">
<g clip-path="url(#clip0_286_7782)">
<path d="M59.7487 10.2513C53.1381 3.64055 44.3488 0 35 0C25.6512 0 16.8619 3.64055 10.2513 10.2513C3.64068 16.8619 0 25.6512 0 35C0 44.3488 3.64068 53.1381 10.2513 59.7487C16.8619 66.3595 25.6512 70 35 70C44.3488 70 53.1381 66.3595 59.7487 59.7487C66.3593 53.1381 70 44.3488 70 35C70 25.6512 66.3593 16.8619 59.7487 10.2513ZM58.1988 58.1987C52.0021 64.3952 43.7633 67.808 35 67.808C26.2367 67.808 17.9979 64.3952 11.8012 58.1987C5.60465 52.0021 2.19201 43.7633 2.19201 35C2.19201 26.2367 5.60465 17.9979 11.8012 11.8013C17.9979 5.60478 26.2367 2.19201 35 2.19201C43.7633 2.19201 52.0021 5.60478 58.1988 11.8013C64.3954 17.9978 67.808 26.2366 67.808 35C67.808 43.7634 64.3954 52.0021 58.1988 58.1987Z" fill="#FED700"/>
<path d="M47.8367 29.4286L48.8878 28.4943C48.6209 28.1941 48.2384 28.0223 47.8367 28.0223V29.4286ZM54.2041 36.5918H55.6103C55.6103 36.2474 55.4839 35.915 55.2551 35.6576L54.2041 36.5918ZM54.2041 44.2857L54.2043 45.692C54.9809 45.6919 55.6103 45.0623 55.6103 44.2857H54.2041ZM50.4105 44.2863L49.0816 44.7461V44.7461L50.4105 44.2863ZM45.263 44.2863L46.5919 44.7461L46.5919 44.7461L45.263 44.2863ZM41.4694 29.4286V28.0223C40.6927 28.0223 40.0631 28.6519 40.0631 29.4286H41.4694ZM16 20.5938C15.2233 20.5938 14.5938 21.2233 14.5938 22C14.5938 22.7767 15.2233 23.4062 16 23.4062V20.5938ZM41.4694 22H42.8756C42.8756 21.2233 42.246 20.5938 41.4694 20.5938V22ZM21.4581 42.8795C20.6815 42.8792 20.0517 43.5087 20.0515 44.2853C20.0513 45.062 20.6807 45.6917 21.4573 45.692L21.4581 42.8795ZM22.3673 34.5491C23.144 34.5491 23.7736 33.9195 23.7736 33.1429C23.7736 32.3662 23.144 31.7366 22.3673 31.7366V34.5491ZM19.6385 31.7366C18.8618 31.7366 18.2322 32.3662 18.2322 33.1429C18.2322 33.9195 18.8618 34.5491 19.6385 34.5491V31.7366ZM22.3673 40.1205C23.144 40.1205 23.7736 39.4909 23.7736 38.7143C23.7736 37.9376 23.144 37.308 22.3673 37.308V40.1205ZM21.4577 37.308C20.6811 37.308 20.0515 37.9376 20.0515 38.7143C20.0515 39.4909 20.6811 40.1205 21.4577 40.1205V37.308ZM22.3673 28.9777C23.144 28.9777 23.7736 28.3481 23.7736 27.5714C23.7736 26.7948 23.144 26.1652 22.3673 26.1652V28.9777ZM17.8192 26.1652C17.0426 26.1652 16.413 26.7948 16.413 27.5714C16.413 28.3481 17.0426 28.9777 17.8192 28.9777V26.1652ZM46.7857 30.3628L53.153 37.5261L55.2551 35.6576L48.8878 28.4943L46.7857 30.3628ZM52.7978 36.5918V44.2857H55.6103V36.5918H52.7978ZM54.2039 42.8795L50.4103 42.88L50.4107 45.6925L54.2043 45.692L54.2039 42.8795ZM51.7395 43.8264C51.1802 42.21 49.658 41.0223 47.8367 41.0223V43.8348C48.3922 43.8348 48.8919 44.198 49.0816 44.7461L51.7395 43.8264ZM47.8367 41.0223C46.0155 41.0223 44.4933 42.21 43.934 43.8264L46.5919 44.7461C46.7815 44.198 47.2813 43.8348 47.8367 43.8348V41.0223ZM45.2632 42.88L41.4696 42.8795L41.4692 45.692L45.2628 45.6925L45.2632 42.88ZM42.8756 44.2857V29.4286H40.0631V44.2857H42.8756ZM41.4694 30.8348H47.8367V28.0223H41.4694V30.8348ZM16 23.4062H41.4694V20.5938H16V23.4062ZM40.0631 22V44.2857H42.8756V22H40.0631ZM41.4693 42.8795L28.5795 42.88L28.5797 45.6925L41.4694 45.692L41.4693 42.8795ZM29.9086 43.8264C29.3493 42.21 27.8271 41.0223 26.0058 41.0223V43.8348C26.5613 43.8348 27.061 44.198 27.2507 44.7461L29.9086 43.8264ZM26.0058 41.0223C24.1846 41.0223 22.6624 42.21 22.1031 43.8264L24.761 44.7461C24.9506 44.198 25.4504 43.8348 26.0058 43.8348V41.0223ZM23.4324 42.88L21.4581 42.8795L21.4573 45.692L23.4317 45.6925L23.4324 42.88ZM47.8367 43.8348C48.54 43.8348 49.1593 44.425 49.1593 45.2143H51.9718C51.9718 42.9266 50.1477 41.0223 47.8367 41.0223V43.8348ZM49.1593 45.2143C49.1593 46.0036 48.54 46.5938 47.8367 46.5938V49.4062C50.1477 49.4062 51.9718 47.502 51.9718 45.2143H49.1593ZM47.8367 46.5938C47.1335 46.5938 46.5141 46.0036 46.5141 45.2143H43.7016C43.7016 47.502 45.5258 49.4062 47.8367 49.4062V46.5938ZM46.5141 45.2143C46.5141 44.425 47.1335 43.8348 47.8367 43.8348V41.0223C45.5258 41.0223 43.7016 42.9266 43.7016 45.2143H46.5141ZM26.0058 43.8348C26.7091 43.8348 27.3284 44.425 27.3284 45.2143H30.1409C30.1409 42.9266 28.3168 41.0223 26.0058 41.0223V43.8348ZM27.3284 45.2143C27.3284 46.0036 26.7091 46.5938 26.0058 46.5938V49.4062C28.3168 49.4062 30.1409 47.502 30.1409 45.2143H27.3284ZM26.0058 46.5938C25.3026 46.5938 24.6832 46.0036 24.6832 45.2143H21.8707C21.8707 47.502 23.6949 49.4062 26.0058 49.4062V46.5938ZM24.6832 45.2143C24.6832 44.425 25.3026 43.8348 26.0058 43.8348V41.0223C23.6949 41.0223 21.8707 42.9266 21.8707 45.2143H24.6832ZM22.3673 31.7366H19.6385V34.5491H22.3673V31.7366ZM22.3673 37.308H21.4577V40.1205H22.3673V37.308ZM22.3673 26.1652H17.8192V28.9777H22.3673V26.1652ZM43.934 43.8264C43.783 44.2629 43.7016 44.7306 43.7016 45.2143H46.5141C46.5141 45.0472 46.5421 44.8902 46.5919 44.7461L43.934 43.8264ZM51.9718 45.2143C51.9718 44.7306 51.8905 44.2629 51.7395 43.8264L49.0816 44.7461C49.1314 44.8902 49.1593 45.0472 49.1593 45.2143H51.9718ZM22.1031 43.8264C21.9521 44.2629 21.8707 44.7306 21.8707 45.2143H24.6832C24.6832 45.0472 24.7111 44.8902 24.761 44.7461L22.1031 43.8264ZM30.1409 45.2143C30.1409 44.7306 30.0596 44.2629 29.9086 43.8264L27.2507 44.7461C27.3005 44.8902 27.3284 45.0472 27.3284 45.2143H30.1409Z" fill="#FED700"/>
</g>
<defs>
<clipPath id="clip0_286_7782">
<rect width="70" height="70" fill="white"/>
</clipPath>
</defs>
</svg>
