<svg width="70" height="70" viewBox="0 0 70 70" fill="none" xmlns="http://www.w3.org/2000/svg">
<path d="M61.2605 7.61499L38.499 24.591L42.7082 14.5754L61.2605 7.61499Z" fill="#E2761B"/>
<path d="M8.71495 7.61499L31.2934 24.7518L27.2901 14.5754L8.71495 7.61499ZM53.0712 46.9652L47.0091 56.2917L59.9797 59.8752L63.7084 47.172L53.0712 46.9652ZM6.31299 47.172L10.0189 59.8752L22.9895 56.2917L16.9274 46.9652L6.31299 47.172Z" fill="#E4761B"/>
<path d="M22.2574 31.2067L18.6431 36.6969L31.5222 37.2712L31.0646 23.3734L22.2574 31.2067ZM47.7182 31.2067L38.7967 23.2126L38.4993 37.2712L51.3555 36.6969L47.7182 31.2067ZM22.9895 56.2917L30.7215 52.5014L24.0418 47.2638L22.9895 56.2917ZM39.2542 52.5014L47.0091 56.2917L45.9339 47.2638L39.2542 52.5014Z" fill="#E4761B"/>
<path d="M47.0089 56.2918L39.254 52.5015L39.8716 57.5782L39.803 59.7145L47.0089 56.2918ZM22.9893 56.2918L30.1951 59.7145L30.1494 57.5782L30.7213 52.5015L22.9893 56.2918Z" fill="#D7C1B3"/>
<path d="M30.3099 43.9099L23.8589 42.0033L28.4112 39.9128L30.3099 43.9099ZM39.6661 43.9099L41.5648 39.9128L46.1399 42.0033L39.6661 43.9099Z" fill="#233447"/>
<path d="M22.9893 56.2917L24.0874 46.9653L16.9272 47.172L22.9893 56.2917ZM45.9109 46.9653L47.0089 56.2917L53.071 47.172L45.9109 46.9653ZM51.3554 36.697L38.4991 37.2713L39.6887 43.9101L41.5874 39.913L46.1625 42.0034L51.3554 36.697ZM23.8586 42.0034L28.4338 39.913L30.3096 43.9101L31.522 37.2713L18.6429 36.697L23.8586 42.0034Z" fill="#CD6116"/>
<path d="M18.6431 36.697L24.0418 47.2639L23.8588 42.0034L18.6431 36.697ZM46.1627 42.0034L45.9339 47.2639L51.3555 36.697L46.1627 42.0034ZM31.5222 37.2713L30.3097 43.9101L31.8195 51.7434L32.1627 41.4292L31.5222 37.2713ZM38.4993 37.2713L37.8816 41.4062L38.1561 51.7434L39.6888 43.9101L38.4993 37.2713Z" fill="#E4751F"/>
<path d="M39.689 43.9101L38.1563 51.7434L39.2543 52.5014L45.9341 47.2639L46.1628 42.0034L39.689 43.9101ZM23.8589 42.0034L24.0419 47.2639L30.7216 52.5014L31.8197 51.7434L30.3099 43.9101L23.8589 42.0034Z" fill="#F6851B"/>
<path d="M39.803 59.7145L39.8716 57.5782L39.2997 57.0728H30.6755L30.1494 57.5782L30.1951 59.7145L22.9893 56.2917L25.5056 58.3592L30.6069 61.9198H39.3683L44.4925 58.3592L47.0089 56.2917L39.803 59.7145Z" fill="#C0AD9E"/>
<path d="M39.254 52.5015L38.156 51.7434H31.8193L30.7213 52.5015L30.1494 57.5782L30.6756 57.0728H39.2997L39.8716 57.5782L39.254 52.5015Z" fill="#161616"/>
<path d="M62.2214 25.6936L64.1659 16.3212L61.2606 7.61499L39.2541 24.0167L47.7181 31.2068L59.6822 34.7214L62.3358 31.6202L61.192 30.7933L63.0221 29.1163L61.6038 28.0137L63.4338 26.6124L62.2214 25.6936ZM5.83252 16.3212L7.77696 25.6936L6.54167 26.6124L8.37174 28.0137L6.97631 29.1163L8.80638 30.7933L7.66258 31.6202L10.2933 34.7214L22.2574 31.2068L30.7214 24.0167L8.71487 7.61499L5.83252 16.3212Z" fill="#763D16"/>
<path d="M59.6823 34.7215L47.7182 31.2068L51.3555 36.697L45.9339 47.2639L53.0712 47.172H63.7084L59.6823 34.7215ZM22.2574 31.2068L10.2934 34.7215L6.31299 47.172H16.9274L24.0417 47.2639L18.6431 36.697L22.2574 31.2068ZM38.4993 37.2713L39.2542 24.0167L42.7313 14.5754H27.2901L30.7215 24.0167L31.5221 37.2713L31.7966 41.4521L31.8195 51.7434H38.1561L38.2019 41.4521L38.4993 37.2713Z" fill="#F6851B"/>
</svg>
